# MagicaVoxel @ Ephtracy

# group
o 

# material
mtllib apartment0.mtl
usemtl palette

# normals
vn -1 0 0
vn 1 0 0
vn 0 0 1
vn 0 0 -1
vn 0 -1 0
vn 0 1 0

# texcoords
vt 0.951172 0.5
vt 0.974609 0.5
vt 0.978516 0.5
vt 0.982422 0.5
vt 0.986328 0.5
vt 0.990234 0.5

# verts
v -3.6 0 3.5
v -3.6 0 -3.5
v -3.6 12.7 3.5
v -3.6 12.7 -3.5
v -2.8 0.1 3.5
v -2.8 0.1 3.4
v -2.8 2.4 3.5
v -2.8 2.4 3.4
v -2.1 8.7 3.5
v -2.1 8.7 3.4
v -2.1 10 3.5
v -2.1 10 3.4
v -2 3.6 3.5
v -2 3.6 3.4
v -2 3.9 3.5
v -2 3.9 3.4
v -2 6.7 3.5
v -2 6.7 3.4
v -2 7 3.5
v -2 7 3.4
v -2 10.1 3.5
v -2 10.1 3.4
v -2 11.2 3.5
v -2 11.2 3.4
v -2 12.2 3.5
v -2 12.2 3.4
v -2 12.3 3.5
v -2 12.3 3.4
v -1.9 3.2 3.5
v -1.9 3.2 3.4
v -1.9 3.6 3.5
v -1.9 3.6 3.4
v -1.9 4 3.5
v -1.9 4 3.4
v -1.9 5.5 3.5
v -1.9 5.5 3.4
v -1.9 6.3 3.5
v -1.9 6.3 3.4
v -1.9 6.7 3.5
v -1.9 6.7 3.4
v -1.9 12.1 3.5
v -1.9 12.1 3.4
v -1.9 12.2 3.5
v -1.9 12.2 3.4
v -1.8 0.1 3.5
v -1.8 0.1 3.4
v -1.8 2.4 3.5
v -1.8 2.4 3.4
v -1.8 2.8 3.5
v -1.8 2.8 3.4
v -1.8 3.2 3.5
v -1.8 3.2 3.4
v -1.8 5.9 3.5
v -1.8 5.9 3.4
v -1.8 6.3 3.5
v -1.8 6.3 3.4
v -1.8 11.3 3.5
v -1.8 11.3 3.4
v -1.8 12.1 3.5
v -1.8 12.1 3.4
v -1.7 2.5 3.5
v -1.7 2.5 3.4
v -1.7 2.8 3.5
v -1.7 2.8 3.4
v -1.7 5.6 3.5
v -1.7 5.6 3.4
v -1.7 5.9 3.5
v -1.7 5.9 3.4
v -1.7 7.1 3.5
v -1.7 7.1 3.4
v -1.7 8.6 3.5
v -1.7 8.6 3.4
v -1.4 0.1 3.5
v -1.4 0.1 3.4
v -1.4 2.4 3.5
v -1.4 2.4 3.4
v -0.9 0.1 3.5
v -0.9 0.1 3.4
v -0.9 2.4 3.5
v -0.9 2.4 3.4
v 0.2 2.5 3.5
v 0.2 2.5 3.4
v 0.2 2.7 3.5
v 0.2 2.7 3.4
v 0.2 3.8 3.5
v 0.2 3.8 3.4
v 0.2 3.9 3.5
v 0.2 3.9 3.4
v 0.2 4 3.5
v 0.2 4 3.4
v 0.2 5.5 3.5
v 0.2 5.5 3.4
v 0.2 10.1 3.5
v 0.2 10.1 3.4
v 0.2 11.2 3.5
v 0.2 11.2 3.4
v 0.3 2.7 3.5
v 0.3 2.7 3.4
v 0.3 2.9 3.5
v 0.3 2.9 3.4
v 0.3 3.6 3.5
v 0.3 3.6 3.4
v 0.3 3.8 3.5
v 0.3 3.8 3.4
v 0.3 5.6 3.5
v 0.3 5.6 3.4
v 0.3 7 3.5
v 0.3 7 3.4
v 0.3 8.5 3.5
v 0.3 8.5 3.4
v 0.3 8.6 3.5
v 0.3 8.6 3.4
v 0.3 8.7 3.5
v 0.3 8.7 3.4
v 0.3 10 3.5
v 0.3 10 3.4
v 0.3 12.3 3.5
v 0.3 12.3 3.4
v 0.3 12.4 3.5
v 0.3 12.4 3.4
v 0.4 2.9 3.5
v 0.4 2.9 3.4
v 0.4 3.1 3.5
v 0.4 3.1 3.4
v 0.4 3.4 3.5
v 0.4 3.4 3.4
v 0.4 3.6 3.5
v 0.4 3.6 3.4
v 0.4 8.3 3.5
v 0.4 8.3 3.4
v 0.4 8.5 3.5
v 0.4 8.5 3.4
v 0.4 12.2 3.5
v 0.4 12.2 3.4
v 0.4 12.3 3.5
v 0.4 12.3 3.4
v 0.5 0.1 3.5
v 0.5 0.1 3.4
v 0.5 2.4 3.5
v 0.5 2.4 3.4
v 0.5 3.1 3.5
v 0.5 3.1 3.4
v 0.5 3.4 3.5
v 0.5 3.4 3.4
v 0.5 8.2 3.5
v 0.5 8.2 3.4
v 0.5 8.3 3.5
v 0.5 8.3 3.4
v 0.5 12.1 3.5
v 0.5 12.1 3.4
v 0.5 12.2 3.5
v 0.5 12.2 3.4
v 0.6 8.1 3.5
v 0.6 8.1 3.4
v 0.6 8.2 3.5
v 0.6 8.2 3.4
v 0.6 12 3.5
v 0.6 12 3.4
v 0.6 12.1 3.5
v 0.6 12.1 3.4
v 0.7 7.1 3.5
v 0.7 7.1 3.4
v 0.7 8.1 3.5
v 0.7 8.1 3.4
v 0.7 11.3 3.5
v 0.7 11.3 3.4
v 0.7 12 3.5
v 0.7 12 3.4
v 0.9 0.1 3.5
v 0.9 0.1 3.4
v 0.9 2.4 3.5
v 0.9 2.4 3.4
v 1.5 0.1 3.5
v 1.5 0.1 3.4
v 1.5 2.4 3.5
v 1.5 2.4 3.4
v 1.9 12.4 3.5
v 1.9 12.4 3.4
v 1.9 12.5 3.5
v 1.9 12.5 3.4
v 2 12.3 3.5
v 2 12.3 3.4
v 2 12.4 3.5
v 2 12.4 3.4
v 2.1 11.3 3.5
v 2.1 11.3 3.4
v 2.1 12.3 3.5
v 2.1 12.3 3.4
v 2.4 8.5 3.5
v 2.4 8.5 3.4
v 2.4 8.6 3.5
v 2.4 8.6 3.4
v 2.4 10.1 3.5
v 2.4 10.1 3.4
v 2.4 11.2 3.5
v 2.4 11.2 3.4
v 2.5 7.9 3.5
v 2.5 7.9 3.4
v 2.5 8.5 3.5
v 2.5 8.5 3.4
v 2.6 3.5 3.5
v 2.6 3.5 3.4
v 2.6 3.9 3.5
v 2.6 3.9 3.4
v 2.6 7.1 3.5
v 2.6 7.1 3.4
v 2.6 7.9 3.5
v 2.6 7.9 3.4
v 2.7 0.1 3.5
v 2.7 0.1 3.4
v 2.7 2.4 3.5
v 2.7 2.4 3.4
v 2.7 2.9 3.5
v 2.7 2.9 3.4
v 2.7 3.5 3.5
v 2.7 3.5 3.4
v 2.8 2.5 3.5
v 2.8 2.5 3.4
v 2.8 2.9 3.5
v 2.8 2.9 3.4
v 2.8 4 3.5
v 2.8 4 3.4
v 2.8 5.5 3.5
v 2.8 5.5 3.4
v 2.8 8.7 3.5
v 2.8 8.7 3.4
v 2.8 10 3.5
v 2.8 10 3.4
v 2.9 5.6 3.5
v 2.9 5.6 3.4
v 2.9 7 3.5
v 2.9 7 3.4
v 3.2 0.1 3.5
v 3.2 0.1 3.4
v 3.2 2.4 3.5
v 3.2 2.4 3.4
v 3.2 11.3 3.4
v 3.2 11.3 3.3
v 3.2 12.5 3.4
v 3.2 12.5 3.3
v -3.2 0.1 3.5
v -3.2 0.1 3.4
v -3.2 2.4 3.5
v -3.2 2.4 3.4
v -3.2 11.3 3.4
v -3.2 11.3 3.3
v -3.2 12.5 3.4
v -3.2 12.5 3.3
v -2.9 2.5 3.5
v -2.9 2.5 3.4
v -2.9 2.7 3.5
v -2.9 2.7 3.4
v -2.9 5.6 3.5
v -2.9 5.6 3.4
v -2.9 5.9 3.5
v -2.9 5.9 3.4
v -2.9 7.1 3.5
v -2.9 7.1 3.4
v -2.9 8.6 3.5
v -2.9 8.6 3.4
v -2.8 2.7 3.5
v -2.8 2.7 3.4
v -2.8 3 3.5
v -2.8 3 3.4
v -2.8 5.9 3.5
v -2.8 5.9 3.4
v -2.8 6.3 3.5
v -2.8 6.3 3.4
v -2.8 8.7 3.5
v -2.8 8.7 3.4
v -2.8 10 3.5
v -2.8 10 3.4
v -2.7 0.1 3.5
v -2.7 0.1 3.4
v -2.7 2.4 3.5
v -2.7 2.4 3.4
v -2.7 3 3.5
v -2.7 3 3.4
v -2.7 3.4 3.5
v -2.7 3.4 3.4
v -2.7 4 3.5
v -2.7 4 3.4
v -2.7 5.5 3.5
v -2.7 5.5 3.4
v -2.7 6.3 3.5
v -2.7 6.3 3.4
v -2.7 6.7 3.5
v -2.7 6.7 3.4
v -2.6 3.4 3.5
v -2.6 3.4 3.4
v -2.6 3.7 3.5
v -2.6 3.7 3.4
v -2.6 6.7 3.5
v -2.6 6.7 3.4
v -2.6 7 3.5
v -2.6 7 3.4
v -2.6 10.1 3.5
v -2.6 10.1 3.4
v -2.6 11.2 3.5
v -2.6 11.2 3.4
v -2.5 3.7 3.5
v -2.5 3.7 3.4
v -2.5 3.9 3.5
v -2.5 3.9 3.4
v -2.5 11.3 3.5
v -2.5 11.3 3.4
v -2.5 12.2 3.5
v -2.5 12.2 3.4
v -2.4 12.2 3.5
v -2.4 12.2 3.4
v -2.4 12.3 3.5
v -2.4 12.3 3.4
v -1.7 0.1 3.5
v -1.7 0.1 3.4
v -1.7 2.4 3.5
v -1.7 2.4 3.4
v -1.3 0.1 3.5
v -1.3 0.1 3.4
v -1.3 2.4 3.5
v -1.3 2.4 3.4
v -0.9 3.1 3.5
v -0.9 3.1 3.4
v -0.9 3.4 3.5
v -0.9 3.4 3.4
v -0.8 0.1 3.5
v -0.8 0.1 3.4
v -0.8 2.4 3.5
v -0.8 2.4 3.4
v -0.8 2.7 3.5
v -0.8 2.7 3.4
v -0.8 3.1 3.5
v -0.8 3.1 3.4
v -0.8 3.4 3.5
v -0.8 3.4 3.4
v -0.8 3.5 3.5
v -0.8 3.5 3.4
v -0.7 2.5 3.5
v -0.7 2.5 3.4
v -0.7 2.7 3.5
v -0.7 2.7 3.4
v -0.7 3.5 3.5
v -0.7 3.5 3.4
v -0.7 3.7 3.5
v -0.7 3.7 3.4
v -0.7 5.6 3.5
v -0.7 5.6 3.4
v -0.7 7 3.5
v -0.7 7 3.4
v -0.7 8.7 3.5
v -0.7 8.7 3.4
v -0.7 10 3.5
v -0.7 10 3.4
v -0.6 3.7 3.5
v -0.6 3.7 3.4
v -0.6 3.8 3.5
v -0.6 3.8 3.4
v -0.6 4 3.5
v -0.6 4 3.4
v -0.6 5.5 3.5
v -0.6 5.5 3.4
v -0.6 10.1 3.5
v -0.6 10.1 3.4
v -0.6 11.2 3.5
v -0.6 11.2 3.4
v -0.5 3.8 3.5
v -0.5 3.8 3.4
v -0.5 3.9 3.5
v -0.5 3.9 3.4
v -0.5 7.1 3.5
v -0.5 7.1 3.4
v -0.5 8.6 3.5
v -0.5 8.6 3.4
v -0.5 11.3 3.5
v -0.5 11.3 3.4
v -0.5 12.1 3.5
v -0.5 12.1 3.4
v -0.3 12.1 3.5
v -0.3 12.1 3.4
v -0.3 12.2 3.5
v -0.3 12.2 3.4
v -0.0999999 12.2 3.5
v -0.0999999 12.2 3.4
v -0.0999999 12.3 3.5
v -0.0999999 12.3 3.4
v 0.0999999 12.3 3.5
v 0.0999999 12.3 3.4
v 0.0999999 12.4 3.5
v 0.0999999 12.4 3.4
v 0.6 0.1 3.5
v 0.6 0.1 3.4
v 0.6 2.4 3.5
v 0.6 2.4 3.4
v 1 0.1 3.5
v 1 0.1 3.4
v 1 2.4 3.5
v 1 2.4 3.4
v 1.3 5.6 3.5
v 1.3 5.6 3.4
v 1.3 7 3.5
v 1.3 7 3.4
v 1.4 2.5 3.5
v 1.4 2.5 3.4
v 1.4 2.8 3.5
v 1.4 2.8 3.4
v 1.4 4 3.5
v 1.4 4 3.4
v 1.4 5.5 3.5
v 1.4 5.5 3.4
v 1.4 8.7 3.5
v 1.4 8.7 3.4
v 1.4 10 3.5
v 1.4 10 3.4
v 1.4 11.3 3.5
v 1.4 11.3 3.4
v 1.4 12.2 3.5
v 1.4 12.2 3.4
v 1.5 2.8 3.5
v 1.5 2.8 3.4
v 1.5 3.2 3.5
v 1.5 3.2 3.4
v 1.5 12.2 3.5
v 1.5 12.2 3.4
v 1.5 12.3 3.5
v 1.5 12.3 3.4
v 1.6 0.1 3.5
v 1.6 0.1 3.4
v 1.6 2.4 3.5
v 1.6 2.4 3.4
v 1.6 3.2 3.5
v 1.6 3.2 3.4
v 1.6 3.6 3.5
v 1.6 3.6 3.4
v 1.6 10.1 3.5
v 1.6 10.1 3.4
v 1.6 11.2 3.5
v 1.6 11.2 3.4
v 1.6 12.3 3.5
v 1.6 12.3 3.4
v 1.6 12.4 3.5
v 1.6 12.4 3.4
v 1.7 3.6 3.5
v 1.7 3.6 3.4
v 1.7 3.9 3.5
v 1.7 3.9 3.4
v 1.7 12.4 3.5
v 1.7 12.4 3.4
v 1.7 12.5 3.5
v 1.7 12.5 3.4
v 1.8 7.1 3.5
v 1.8 7.1 3.4
v 1.8 7.9 3.5
v 1.8 7.9 3.4
v 1.9 7.9 3.5
v 1.9 7.9 3.4
v 1.9 8.5 3.5
v 1.9 8.5 3.4
v 2 8.5 3.5
v 2 8.5 3.4
v 2 8.6 3.5
v 2 8.6 3.4
v 2.8 0.1 3.5
v 2.8 0.1 3.4
v 2.8 2.4 3.5
v 2.8 2.4 3.4
v 3.3 0.1 3.2
v 3.3 0.1 -3.2
v 3.3 2.4 3.2
v 3.3 2.4 -3.2
v 3.3 2.5 3.2
v 3.3 2.5 -3.2
v 3.3 3.9 3.2
v 3.3 3.9 -3.2
v 3.3 4 3.2
v 3.3 4 -3.2
v 3.3 5.5 3.2
v 3.3 5.5 -3.2
v 3.3 5.6 3.2
v 3.3 5.6 -3.2
v 3.3 7 3.2
v 3.3 7 -3.2
v 3.3 7.1 3.2
v 3.3 7.1 -3.2
v 3.3 8.6 3.2
v 3.3 8.6 -3.2
v 3.3 8.7 3.2
v 3.3 8.7 -3.2
v 3.3 10 3.2
v 3.3 10 -3.2
v 3.3 10.1 3.2
v 3.3 10.1 -3.2
v 3.3 11.2 3.2
v 3.3 11.2 -3.2
v 3.3 11.3 3.2
v 3.3 11.3 -3.2
v 3.3 12.5 3.2
v 3.3 12.5 -3.2
v 3.5 0 3.5
v 3.5 0 -3.5
v 3.5 0.1 3.2
v 3.5 0.1 -3.2
v 3.5 2.4 3.2
v 3.5 2.4 -3.2
v 3.5 2.5 3.2
v 3.5 2.5 -3.2
v 3.5 3.9 3.2
v 3.5 3.9 -3.2
v 3.5 4 3.2
v 3.5 4 -3.2
v 3.5 5.5 3.2
v 3.5 5.5 -3.2
v 3.5 5.6 3.2
v 3.5 5.6 -3.2
v 3.5 7 3.2
v 3.5 7 -3.2
v 3.5 7.1 3.2
v 3.5 7.1 -3.2
v 3.5 8.6 3.2
v 3.5 8.6 -3.2
v 3.5 8.7 3.2
v 3.5 8.7 -3.2
v 3.5 10 3.2
v 3.5 10 -3.2
v 3.5 10.1 3.2
v 3.5 10.1 -3.2
v 3.5 11.2 3.2
v 3.5 11.2 -3.2
v 3.5 11.3 3.2
v 3.5 11.3 -3.2
v 3.5 12.5 3.2
v 3.5 12.5 -3.2
v 3.5 12.7 3.5
v 3.5 12.7 -3.5
v -3.6 0 3.5
v -3.6 12.7 3.5
v -3.2 0.1 3.5
v -3.2 2.4 3.5
v -3.2 2.5 3.5
v -3.2 3.9 3.5
v -3.2 4 3.5
v -3.2 5.5 3.5
v -3.2 5.6 3.5
v -3.2 7 3.5
v -3.2 7.1 3.5
v -3.2 8.6 3.5
v -3.2 8.7 3.5
v -3.2 10 3.5
v -3.2 10.1 3.5
v -3.2 11.2 3.5
v -3.2 11.3 3.5
v -3.2 12.5 3.5
v -2.9 2.5 3.5
v -2.9 2.7 3.5
v -2.9 5.6 3.5
v -2.9 5.9 3.5
v -2.9 7.1 3.5
v -2.9 8.6 3.5
v -2.8 0.1 3.5
v -2.8 2.4 3.5
v -2.8 2.7 3.5
v -2.8 3 3.5
v -2.8 5.9 3.5
v -2.8 6.3 3.5
v -2.8 8.7 3.5
v -2.8 10 3.5
v -2.7 0.1 3.5
v -2.7 2.4 3.5
v -2.7 3 3.5
v -2.7 3.4 3.5
v -2.7 4 3.5
v -2.7 5.5 3.5
v -2.7 6.3 3.5
v -2.7 6.7 3.5
v -2.6 3.4 3.5
v -2.6 3.7 3.5
v -2.6 6.7 3.5
v -2.6 7 3.5
v -2.6 10.1 3.5
v -2.6 11.2 3.5
v -2.5 3.7 3.5
v -2.5 3.9 3.5
v -2.5 11.3 3.5
v -2.5 12.2 3.5
v -2.4 12.2 3.5
v -2.4 12.3 3.5
v -2.1 8.7 3.5
v -2.1 10 3.5
v -2 3.6 3.5
v -2 3.9 3.5
v -2 6.7 3.5
v -2 7 3.5
v -2 10.1 3.5
v -2 11.2 3.5
v -2 12.2 3.5
v -2 12.3 3.5
v -1.9 3.2 3.5
v -1.9 3.6 3.5
v -1.9 4 3.5
v -1.9 5.5 3.5
v -1.9 6.3 3.5
v -1.9 6.7 3.5
v -1.9 12.1 3.5
v -1.9 12.2 3.5
v -1.8 0.1 3.5
v -1.8 2.4 3.5
v -1.8 2.8 3.5
v -1.8 3.2 3.5
v -1.8 5.9 3.5
v -1.8 6.3 3.5
v -1.8 11.3 3.5
v -1.8 12.1 3.5
v -1.7 0.1 3.5
v -1.7 2.4 3.5
v -1.7 2.5 3.5
v -1.7 2.8 3.5
v -1.7 5.6 3.5
v -1.7 5.9 3.5
v -1.7 7.1 3.5
v -1.7 8.6 3.5
v -1.4 0.1 3.5
v -1.4 2.4 3.5
v -1.4 2.5 3.5
v -1.4 3.9 3.5
v -1.4 4 3.5
v -1.4 5.5 3.5
v -1.4 5.6 3.5
v -1.4 7 3.5
v -1.4 7.1 3.5
v -1.4 8.6 3.5
v -1.4 8.7 3.5
v -1.4 10 3.5
v -1.4 10.1 3.5
v -1.4 11.2 3.5
v -1.4 11.3 3.5
v -1.4 12.5 3.5
v -1.3 0.1 3.5
v -1.3 2.4 3.5
v -1.3 2.5 3.5
v -1.3 3.9 3.5
v -1.3 4 3.5
v -1.3 5.5 3.5
v -1.3 5.6 3.5
v -1.3 7 3.5
v -1.3 7.1 3.5
v -1.3 8.6 3.5
v -1.3 8.7 3.5
v -1.3 10 3.5
v -1.3 10.1 3.5
v -1.3 11.2 3.5
v -1.3 11.3 3.5
v -1.3 12.5 3.5
v -0.9 0.1 3.5
v -0.9 2.4 3.5
v -0.9 3.1 3.5
v -0.9 3.4 3.5
v -0.8 0.1 3.5
v -0.8 2.4 3.5
v -0.8 2.7 3.5
v -0.8 3.1 3.5
v -0.8 3.4 3.5
v -0.8 3.5 3.5
v -0.7 2.5 3.5
v -0.7 2.7 3.5
v -0.7 3.5 3.5
v -0.7 3.7 3.5
v -0.7 5.6 3.5
v -0.7 7 3.5
v -0.7 8.7 3.5
v -0.7 10 3.5
v -0.6 3.7 3.5
v -0.6 3.8 3.5
v -0.6 4 3.5
v -0.6 5.5 3.5
v -0.6 10.1 3.5
v -0.6 11.2 3.5
v -0.5 3.8 3.5
v -0.5 3.9 3.5
v -0.5 7.1 3.5
v -0.5 8.6 3.5
v -0.5 11.3 3.5
v -0.5 12.1 3.5
v -0.3 12.1 3.5
v -0.3 12.2 3.5
v -0.0999999 12.2 3.5
v -0.0999999 12.3 3.5
v 0.0999999 12.3 3.5
v 0.0999999 12.4 3.5
v 0.2 2.5 3.5
v 0.2 2.7 3.5
v 0.2 3.8 3.5
v 0.2 3.9 3.5
v 0.2 4 3.5
v 0.2 5.5 3.5
v 0.2 10.1 3.5
v 0.2 11.2 3.5
v 0.3 2.7 3.5
v 0.3 2.9 3.5
v 0.3 3.6 3.5
v 0.3 3.8 3.5
v 0.3 5.6 3.5
v 0.3 7 3.5
v 0.3 8.5 3.5
v 0.3 8.6 3.5
v 0.3 8.7 3.5
v 0.3 10 3.5
v 0.3 12.3 3.5
v 0.3 12.4 3.5
v 0.4 2.9 3.5
v 0.4 3.1 3.5
v 0.4 3.4 3.5
v 0.4 3.6 3.5
v 0.4 8.3 3.5
v 0.4 8.5 3.5
v 0.4 12.2 3.5
v 0.4 12.3 3.5
v 0.5 0.1 3.5
v 0.5 2.4 3.5
v 0.5 3.1 3.5
v 0.5 3.4 3.5
v 0.5 8.2 3.5
v 0.5 8.3 3.5
v 0.5 12.1 3.5
v 0.5 12.2 3.5
v 0.6 0.1 3.5
v 0.6 2.4 3.5
v 0.6 8.1 3.5
v 0.6 8.2 3.5
v 0.6 12 3.5
v 0.6 12.1 3.5
v 0.7 7.1 3.5
v 0.7 8.1 3.5
v 0.7 11.3 3.5
v 0.7 12 3.5
v 0.9 0.1 3.5
v 0.9 2.4 3.5
v 0.9 2.5 3.5
v 0.9 3.9 3.5
v 0.9 4 3.5
v 0.9 5.5 3.5
v 0.9 5.6 3.5
v 0.9 7 3.5
v 0.9 7.1 3.5
v 0.9 8.6 3.5
v 0.9 8.7 3.5
v 0.9 10 3.5
v 0.9 10.1 3.5
v 0.9 11.2 3.5
v 0.9 11.3 3.5
v 0.9 12.5 3.5
v 1 0.1 3.5
v 1 2.4 3.5
v 1 2.5 3.5
v 1 3.9 3.5
v 1 4 3.5
v 1 5.5 3.5
v 1 5.6 3.5
v 1 7 3.5
v 1 7.1 3.5
v 1 8.6 3.5
v 1 8.7 3.5
v 1 10 3.5
v 1 10.1 3.5
v 1 11.2 3.5
v 1 11.3 3.5
v 1 12.5 3.5
v 1.3 5.6 3.5
v 1.3 7 3.5
v 1.4 2.5 3.5
v 1.4 2.8 3.5
v 1.4 4 3.5
v 1.4 5.5 3.5
v 1.4 8.7 3.5
v 1.4 10 3.5
v 1.4 11.3 3.5
v 1.4 12.2 3.5
v 1.5 0.1 3.5
v 1.5 2.4 3.5
v 1.5 2.8 3.5
v 1.5 3.2 3.5
v 1.5 12.2 3.5
v 1.5 12.3 3.5
v 1.6 0.1 3.5
v 1.6 2.4 3.5
v 1.6 3.2 3.5
v 1.6 3.6 3.5
v 1.6 10.1 3.5
v 1.6 11.2 3.5
v 1.6 12.3 3.5
v 1.6 12.4 3.5
v 1.7 3.6 3.5
v 1.7 3.9 3.5
v 1.7 12.4 3.5
v 1.7 12.5 3.5
v 1.8 7.1 3.5
v 1.8 7.9 3.5
v 1.9 7.9 3.5
v 1.9 8.5 3.5
v 1.9 12.4 3.5
v 1.9 12.5 3.5
v 2 8.5 3.5
v 2 8.6 3.5
v 2 12.3 3.5
v 2 12.4 3.5
v 2.1 11.3 3.5
v 2.1 12.3 3.5
v 2.4 8.5 3.5
v 2.4 8.6 3.5
v 2.4 10.1 3.5
v 2.4 11.2 3.5
v 2.5 7.9 3.5
v 2.5 8.5 3.5
v 2.6 3.5 3.5
v 2.6 3.9 3.5
v 2.6 7.1 3.5
v 2.6 7.9 3.5
v 2.7 0.1 3.5
v 2.7 2.4 3.5
v 2.7 2.9 3.5
v 2.7 3.5 3.5
v 2.8 0.1 3.5
v 2.8 2.4 3.5
v 2.8 2.5 3.5
v 2.8 2.9 3.5
v 2.8 4 3.5
v 2.8 5.5 3.5
v 2.8 8.7 3.5
v 2.8 10 3.5
v 2.9 5.6 3.5
v 2.9 7 3.5
v 3.2 0.1 3.5
v 3.2 2.4 3.5
v 3.2 2.5 3.5
v 3.2 3.9 3.5
v 3.2 4 3.5
v 3.2 5.5 3.5
v 3.2 5.6 3.5
v 3.2 7 3.5
v 3.2 7.1 3.5
v 3.2 8.6 3.5
v 3.2 8.7 3.5
v 3.2 10 3.5
v 3.2 10.1 3.5
v 3.2 11.2 3.5
v 3.2 11.3 3.5
v 3.2 12.5 3.5
v 3.5 0 3.5
v 3.5 12.7 3.5
v -3.2 0.1 3.4
v -3.2 2.4 3.4
v -2.9 2.5 3.4
v -2.9 2.7 3.4
v -2.9 5.6 3.4
v -2.9 5.9 3.4
v -2.9 7.1 3.4
v -2.9 8.6 3.4
v -2.8 0.1 3.4
v -2.8 2.4 3.4
v -2.8 2.5 3.4
v -2.8 2.7 3.4
v -2.8 3 3.4
v -2.8 5.6 3.4
v -2.8 5.9 3.4
v -2.8 6.3 3.4
v -2.8 7.1 3.4
v -2.8 8.6 3.4
v -2.8 8.7 3.4
v -2.8 10 3.4
v -2.7 0.1 3.4
v -2.7 2.4 3.4
v -2.7 2.5 3.4
v -2.7 3 3.4
v -2.7 3.4 3.4
v -2.7 4 3.4
v -2.7 5.5 3.4
v -2.7 5.6 3.4
v -2.7 6.3 3.4
v -2.7 6.7 3.4
v -2.7 7.1 3.4
v -2.7 8.6 3.4
v -2.7 8.7 3.4
v -2.7 10 3.4
v -2.6 3.4 3.4
v -2.6 3.7 3.4
v -2.6 6.7 3.4
v -2.6 7 3.4
v -2.6 10.1 3.4
v -2.6 11.2 3.4
v -2.5 3.7 3.4
v -2.5 3.9 3.4
v -2.1 8.7 3.4
v -2.1 10 3.4
v -2 3.6 3.4
v -2 3.9 3.4
v -2 6.7 3.4
v -2 7 3.4
v -2 10.1 3.4
v -2 11.2 3.4
v -1.9 3.2 3.4
v -1.9 3.6 3.4
v -1.9 4 3.4
v -1.9 5.5 3.4
v -1.9 6.3 3.4
v -1.9 6.7 3.4
v -1.8 0.1 3.4
v -1.8 2.4 3.4
v -1.8 2.5 3.4
v -1.8 2.8 3.4
v -1.8 3.2 3.4
v -1.8 5.6 3.4
v -1.8 5.9 3.4
v -1.8 6.3 3.4
v -1.8 7.1 3.4
v -1.8 8.6 3.4
v -1.7 0.1 3.4
v -1.7 2.4 3.4
v -1.7 2.5 3.4
v -1.7 2.8 3.4
v -1.7 5.6 3.4
v -1.7 5.9 3.4
v -1.7 7.1 3.4
v -1.7 8.6 3.4
v -1.4 0.1 3.4
v -1.4 2.4 3.4
v -1.3 0.1 3.4
v -1.3 2.4 3.4
v -0.9 0.1 3.4
v -0.9 2.4 3.4
v -0.9 3.1 3.4
v -0.9 3.4 3.4
v -0.8 0.1 3.4
v -0.8 2.4 3.4
v -0.8 2.7 3.4
v -0.8 3.1 3.4
v -0.8 3.4 3.4
v -0.8 3.5 3.4
v -0.7 2.5 3.4
v -0.7 2.7 3.4
v -0.7 3.5 3.4
v -0.7 3.7 3.4
v -0.7 5.6 3.4
v -0.7 7 3.4
v -0.7 8.7 3.4
v -0.7 10 3.4
v -0.6 3.7 3.4
v -0.6 3.8 3.4
v -0.6 4 3.4
v -0.6 5.5 3.4
v -0.6 10.1 3.4
v -0.6 11.2 3.4
v -0.5 3.8 3.4
v -0.5 3.9 3.4
v -0.5 7.1 3.4
v -0.5 8.6 3.4
v 0.2 2.5 3.4
v 0.2 2.7 3.4
v 0.2 3.8 3.4
v 0.2 3.9 3.4
v 0.2 4 3.4
v 0.2 5.5 3.4
v 0.2 10.1 3.4
v 0.2 11.2 3.4
v 0.3 2.7 3.4
v 0.3 2.9 3.4
v 0.3 3.6 3.4
v 0.3 3.8 3.4
v 0.3 5.6 3.4
v 0.3 7 3.4
v 0.3 8.5 3.4
v 0.3 8.6 3.4
v 0.3 8.7 3.4
v 0.3 10 3.4
v 0.4 2.9 3.4
v 0.4 3.1 3.4
v 0.4 3.4 3.4
v 0.4 3.6 3.4
v 0.4 8.3 3.4
v 0.4 8.5 3.4
v 0.5 0.1 3.4
v 0.5 2.4 3.4
v 0.5 3.1 3.4
v 0.5 3.4 3.4
v 0.5 7.1 3.4
v 0.5 8.2 3.4
v 0.5 8.3 3.4
v 0.6 0.1 3.4
v 0.6 2.4 3.4
v 0.6 7.1 3.4
v 0.6 8.1 3.4
v 0.6 8.2 3.4
v 0.7 7.1 3.4
v 0.7 8.1 3.4
v 0.9 0.1 3.4
v 0.9 2.4 3.4
v 1 0.1 3.4
v 1 2.4 3.4
v 1.3 5.6 3.4
v 1.3 7 3.4
v 1.4 2.5 3.4
v 1.4 2.8 3.4
v 1.4 4 3.4
v 1.4 5.5 3.4
v 1.4 8.7 3.4
v 1.4 10 3.4
v 1.5 0.1 3.4
v 1.5 2.4 3.4
v 1.5 2.5 3.4
v 1.5 2.8 3.4
v 1.5 3.2 3.4
v 1.5 4 3.4
v 1.5 5.5 3.4
v 1.5 5.6 3.4
v 1.5 7 3.4
v 1.5 8.7 3.4
v 1.5 10 3.4
v 1.6 0.1 3.4
v 1.6 2.4 3.4
v 1.6 2.5 3.4
v 1.6 3.2 3.4
v 1.6 3.6 3.4
v 1.6 4 3.4
v 1.6 5.5 3.4
v 1.6 5.6 3.4
v 1.6 7 3.4
v 1.6 8.7 3.4
v 1.6 10 3.4
v 1.6 10.1 3.4
v 1.6 11.2 3.4
v 1.7 3.6 3.4
v 1.7 3.9 3.4
v 1.8 7.1 3.4
v 1.8 7.9 3.4
v 1.9 7.9 3.4
v 1.9 8.5 3.4
v 2 8.5 3.4
v 2 8.6 3.4
v 2.4 8.5 3.4
v 2.4 8.6 3.4
v 2.4 10.1 3.4
v 2.4 11.2 3.4
v 2.5 7.9 3.4
v 2.5 8.5 3.4
v 2.6 3.5 3.4
v 2.6 3.9 3.4
v 2.6 7.1 3.4
v 2.6 7.9 3.4
v 2.7 0.1 3.4
v 2.7 2.4 3.4
v 2.7 2.9 3.4
v 2.7 3.5 3.4
v 2.8 0.1 3.4
v 2.8 2.4 3.4
v 2.8 2.5 3.4
v 2.8 2.9 3.4
v 2.8 4 3.4
v 2.8 5.5 3.4
v 2.8 8.7 3.4
v 2.8 10 3.4
v 2.9 5.6 3.4
v 2.9 7 3.4
v 3.2 0.1 3.4
v 3.2 2.4 3.4
v -3.2 11.3 3.3
v -3.2 12.5 3.3
v 0.5 11.3 3.3
v 0.5 12.1 3.3
v 0.6 11.3 3.3
v 0.6 12.1 3.3
v 1.4 11.3 3.3
v 1.4 12.2 3.3
v 1.5 11.3 3.3
v 1.5 12.2 3.3
v 3.2 11.3 3.3
v 3.2 12.5 3.3
v 3.3 0.1 -3.2
v 3.3 2.4 -3.2
v 3.3 2.5 -3.2
v 3.3 3.9 -3.2
v 3.3 4 -3.2
v 3.3 5.5 -3.2
v 3.3 5.6 -3.2
v 3.3 7 -3.2
v 3.3 7.1 -3.2
v 3.3 8.6 -3.2
v 3.3 8.7 -3.2
v 3.3 10 -3.2
v 3.3 10.1 -3.2
v 3.3 11.2 -3.2
v 3.3 11.3 -3.2
v 3.3 12.5 -3.2
v 3.5 0.1 -3.2
v 3.5 2.4 -3.2
v 3.5 2.5 -3.2
v 3.5 3.9 -3.2
v 3.5 4 -3.2
v 3.5 5.5 -3.2
v 3.5 5.6 -3.2
v 3.5 7 -3.2
v 3.5 7.1 -3.2
v 3.5 8.6 -3.2
v 3.5 8.7 -3.2
v 3.5 10 -3.2
v 3.5 10.1 -3.2
v 3.5 11.2 -3.2
v 3.5 11.3 -3.2
v 3.5 12.5 -3.2
v -3.2 11.3 3.4
v -3.2 12.5 3.4
v -2.5 11.3 3.4
v -2.5 12.2 3.4
v -2.4 12.2 3.4
v -2.4 12.3 3.4
v -2 12.2 3.4
v -2 12.3 3.4
v -1.9 12.1 3.4
v -1.9 12.2 3.4
v -1.8 11.3 3.4
v -1.8 12.1 3.4
v -1.4 11.3 3.4
v -1.4 12.5 3.4
v -1.3 11.3 3.4
v -1.3 12.5 3.4
v -0.5 11.3 3.4
v -0.5 12.1 3.4
v -0.3 12.1 3.4
v -0.3 12.2 3.4
v -0.0999999 12.2 3.4
v -0.0999999 12.3 3.4
v 0.0999999 12.3 3.4
v 0.0999999 12.4 3.4
v 0.3 12.3 3.4
v 0.3 12.4 3.4
v 0.4 12.2 3.4
v 0.4 12.3 3.4
v 0.5 12.1 3.4
v 0.5 12.2 3.4
v 0.6 12 3.4
v 0.6 12.1 3.4
v 0.7 11.3 3.4
v 0.7 12 3.4
v 0.9 11.3 3.4
v 0.9 12.5 3.4
v 1 11.3 3.4
v 1 12.5 3.4
v 1.4 11.3 3.4
v 1.4 12.2 3.4
v 1.5 12.2 3.4
v 1.5 12.3 3.4
v 1.6 12.3 3.4
v 1.6 12.4 3.4
v 1.7 12.4 3.4
v 1.7 12.5 3.4
v 1.9 12.4 3.4
v 1.9 12.5 3.4
v 2 12.3 3.4
v 2 12.4 3.4
v 2.1 11.3 3.4
v 2.1 12.3 3.4
v 3.2 11.3 3.4
v 3.2 12.5 3.4
v 3.3 0.1 3.2
v 3.3 2.4 3.2
v 3.3 2.5 3.2
v 3.3 3.9 3.2
v 3.3 4 3.2
v 3.3 5.5 3.2
v 3.3 5.6 3.2
v 3.3 7 3.2
v 3.3 7.1 3.2
v 3.3 8.6 3.2
v 3.3 8.7 3.2
v 3.3 10 3.2
v 3.3 10.1 3.2
v 3.3 11.2 3.2
v 3.3 11.3 3.2
v 3.3 12.5 3.2
v 3.5 0.1 3.2
v 3.5 2.4 3.2
v 3.5 2.5 3.2
v 3.5 3.9 3.2
v 3.5 4 3.2
v 3.5 5.5 3.2
v 3.5 5.6 3.2
v 3.5 7 3.2
v 3.5 7.1 3.2
v 3.5 8.6 3.2
v 3.5 8.7 3.2
v 3.5 10 3.2
v 3.5 10.1 3.2
v 3.5 11.2 3.2
v 3.5 11.3 3.2
v 3.5 12.5 3.2
v -3.6 0 -3.5
v -3.6 12.7 -3.5
v 3.5 0 -3.5
v 3.5 12.7 -3.5
v -3.6 0 3.5
v 3.5 0 3.5
v -3.6 0 -3.5
v 3.5 0 -3.5
v -3.2 2.4 3.5
v -2.8 2.4 3.5
v -2.7 2.4 3.5
v -1.8 2.4 3.5
v -1.7 2.4 3.5
v -1.4 2.4 3.5
v -1.3 2.4 3.5
v -0.9 2.4 3.5
v -0.8 2.4 3.5
v 0.5 2.4 3.5
v 0.6 2.4 3.5
v 0.9 2.4 3.5
v 1 2.4 3.5
v 1.5 2.4 3.5
v 1.6 2.4 3.5
v 2.7 2.4 3.5
v 2.8 2.4 3.5
v 3.2 2.4 3.5
v -3.2 2.4 3.4
v -2.8 2.4 3.4
v -2.7 2.4 3.4
v -1.8 2.4 3.4
v -1.7 2.4 3.4
v -1.4 2.4 3.4
v -1.3 2.4 3.4
v -0.9 2.4 3.4
v -0.8 2.4 3.4
v 0.5 2.4 3.4
v 0.6 2.4 3.4
v 0.9 2.4 3.4
v 1 2.4 3.4
v 1.5 2.4 3.4
v 1.6 2.4 3.4
v 2.7 2.4 3.4
v 2.8 2.4 3.4
v 3.2 2.4 3.4
v 3.3 2.4 3.2
v 3.5 2.4 3.2
v 3.3 2.4 -3.2
v 3.5 2.4 -3.2
v -2.9 2.7 3.5
v -2.8 2.7 3.5
v -2.9 2.7 3.4
v -2.8 2.7 3.4
v -1.8 2.8 3.5
v -1.7 2.8 3.5
v 1.4 2.8 3.5
v 1.5 2.8 3.5
v -1.8 2.8 3.4
v -1.7 2.8 3.4
v 1.4 2.8 3.4
v 1.5 2.8 3.4
v 2.7 2.9 3.5
v 2.8 2.9 3.5
v 2.7 2.9 3.4
v 2.8 2.9 3.4
v -2.8 3 3.5
v -2.7 3 3.5
v -2.8 3 3.4
v -2.7 3 3.4
v -1.9 3.2 3.5
v -1.8 3.2 3.5
v 1.5 3.2 3.5
v 1.6 3.2 3.5
v -1.9 3.2 3.4
v -1.8 3.2 3.4
v 1.5 3.2 3.4
v 1.6 3.2 3.4
v -2.7 3.4 3.5
v -2.6 3.4 3.5
v -0.9 3.4 3.5
v -0.8 3.4 3.5
v 0.4 3.4 3.5
v 0.5 3.4 3.5
v -2.7 3.4 3.4
v -2.6 3.4 3.4
v -0.9 3.4 3.4
v -0.8 3.4 3.4
v 0.4 3.4 3.4
v 0.5 3.4 3.4
v -0.8 3.5 3.5
v -0.7 3.5 3.5
v 2.6 3.5 3.5
v 2.7 3.5 3.5
v -0.8 3.5 3.4
v -0.7 3.5 3.4
v 2.6 3.5 3.4
v 2.7 3.5 3.4
v -2 3.6 3.5
v -1.9 3.6 3.5
v 0.3 3.6 3.5
v 0.4 3.6 3.5
v 1.6 3.6 3.5
v 1.7 3.6 3.5
v -2 3.6 3.4
v -1.9 3.6 3.4
v 0.3 3.6 3.4
v 0.4 3.6 3.4
v 1.6 3.6 3.4
v 1.7 3.6 3.4
v -2.6 3.7 3.5
v -2.5 3.7 3.5
v -0.7 3.7 3.5
v -0.6 3.7 3.5
v -2.6 3.7 3.4
v -2.5 3.7 3.4
v -0.7 3.7 3.4
v -0.6 3.7 3.4
v -0.6 3.8 3.5
v -0.5 3.8 3.5
v 0.2 3.8 3.5
v 0.3 3.8 3.5
v -0.6 3.8 3.4
v -0.5 3.8 3.4
v 0.2 3.8 3.4
v 0.3 3.8 3.4
v -2.5 3.9 3.5
v -2 3.9 3.5
v -0.5 3.9 3.5
v 0.2 3.9 3.5
v 1.7 3.9 3.5
v 2.6 3.9 3.5
v -2.5 3.9 3.4
v -2 3.9 3.4
v -0.5 3.9 3.4
v 0.2 3.9 3.4
v 1.7 3.9 3.4
v 2.6 3.9 3.4
v 3.3 3.9 3.2
v 3.5 3.9 3.2
v 3.3 3.9 -3.2
v 3.5 3.9 -3.2
v -2.7 5.5 3.5
v -1.9 5.5 3.5
v -0.6 5.5 3.5
v 0.2 5.5 3.5
v 1.4 5.5 3.5
v 2.8 5.5 3.5
v -2.7 5.5 3.4
v -1.9 5.5 3.4
v -0.6 5.5 3.4
v 0.2 5.5 3.4
v 1.4 5.5 3.4
v 1.5 5.5 3.4
v 1.6 5.5 3.4
v 2.8 5.5 3.4
v 3.3 5.5 3.2
v 3.5 5.5 3.2
v 3.3 5.5 -3.2
v 3.5 5.5 -3.2
v -2.9 5.9 3.5
v -2.8 5.9 3.5
v -1.8 5.9 3.5
v -1.7 5.9 3.5
v -2.9 5.9 3.4
v -2.8 5.9 3.4
v -1.8 5.9 3.4
v -1.7 5.9 3.4
v -2.8 6.3 3.5
v -2.7 6.3 3.5
v -1.9 6.3 3.5
v -1.8 6.3 3.5
v -2.8 6.3 3.4
v -2.7 6.3 3.4
v -1.9 6.3 3.4
v -1.8 6.3 3.4
v -2.7 6.7 3.5
v -2.6 6.7 3.5
v -2 6.7 3.5
v -1.9 6.7 3.5
v -2.7 6.7 3.4
v -2.6 6.7 3.4
v -2 6.7 3.4
v -1.9 6.7 3.4
v -2.6 7 3.5
v -2 7 3.5
v -0.7 7 3.5
v 0.3 7 3.5
v 1.3 7 3.5
v 2.9 7 3.5
v -2.6 7 3.4
v -2 7 3.4
v -0.7 7 3.4
v 0.3 7 3.4
v 1.3 7 3.4
v 1.5 7 3.4
v 1.6 7 3.4
v 2.9 7 3.4
v 3.3 7 3.2
v 3.5 7 3.2
v 3.3 7 -3.2
v 3.5 7 -3.2
v 1.8 7.9 3.5
v 1.9 7.9 3.5
v 2.5 7.9 3.5
v 2.6 7.9 3.5
v 1.8 7.9 3.4
v 1.9 7.9 3.4
v 2.5 7.9 3.4
v 2.6 7.9 3.4
v 0.6 8.1 3.5
v 0.7 8.1 3.5
v 0.6 8.1 3.4
v 0.7 8.1 3.4
v 0.5 8.2 3.5
v 0.6 8.2 3.5
v 0.5 8.2 3.4
v 0.6 8.2 3.4
v 0.4 8.3 3.5
v 0.5 8.3 3.5
v 0.4 8.3 3.4
v 0.5 8.3 3.4
v 0.3 8.5 3.5
v 0.4 8.5 3.5
v 1.9 8.5 3.5
v 2 8.5 3.5
v 2.4 8.5 3.5
v 2.5 8.5 3.5
v 0.3 8.5 3.4
v 0.4 8.5 3.4
v 1.9 8.5 3.4
v 2 8.5 3.4
v 2.4 8.5 3.4
v 2.5 8.5 3.4
v -2.9 8.6 3.5
v -1.7 8.6 3.5
v -0.5 8.6 3.5
v 0.3 8.6 3.5
v 2 8.6 3.5
v 2.4 8.6 3.5
v -2.9 8.6 3.4
v -2.8 8.6 3.4
v -2.7 8.6 3.4
v -1.8 8.6 3.4
v -1.7 8.6 3.4
v -0.5 8.6 3.4
v 0.3 8.6 3.4
v 2 8.6 3.4
v 2.4 8.6 3.4
v 3.3 8.6 3.2
v 3.5 8.6 3.2
v 3.3 8.6 -3.2
v 3.5 8.6 -3.2
v -2.8 10 3.5
v -2.1 10 3.5
v -0.7 10 3.5
v 0.3 10 3.5
v 1.4 10 3.5
v 2.8 10 3.5
v -2.8 10 3.4
v -2.7 10 3.4
v -2.1 10 3.4
v -0.7 10 3.4
v 0.3 10 3.4
v 1.4 10 3.4
v 1.5 10 3.4
v 1.6 10 3.4
v 2.8 10 3.4
v 3.3 10 3.2
v 3.5 10 3.2
v 3.3 10 -3.2
v 3.5 10 -3.2
v -2.6 11.2 3.5
v -2 11.2 3.5
v -0.6 11.2 3.5
v 0.2 11.2 3.5
v 1.6 11.2 3.5
v 2.4 11.2 3.5
v -2.6 11.2 3.4
v -2 11.2 3.4
v -0.6 11.2 3.4
v 0.2 11.2 3.4
v 1.6 11.2 3.4
v 2.4 11.2 3.4
v 3.3 11.2 3.2
v 3.5 11.2 3.2
v 3.3 11.2 -3.2
v 3.5 11.2 -3.2
v 0.6 12 3.5
v 0.7 12 3.5
v 0.6 12 3.4
v 0.7 12 3.4
v -1.9 12.1 3.5
v -1.8 12.1 3.5
v -0.5 12.1 3.5
v -0.3 12.1 3.5
v 0.5 12.1 3.5
v 0.6 12.1 3.5
v -1.9 12.1 3.4
v -1.8 12.1 3.4
v -0.5 12.1 3.4
v -0.3 12.1 3.4
v 0.5 12.1 3.4
v 0.6 12.1 3.4
v -2.5 12.2 3.5
v -2.4 12.2 3.5
v -2 12.2 3.5
v -1.9 12.2 3.5
v -0.3 12.2 3.5
v -0.0999999 12.2 3.5
v 0.4 12.2 3.5
v 0.5 12.2 3.5
v 1.4 12.2 3.5
v 1.5 12.2 3.5
v -2.5 12.2 3.4
v -2.4 12.2 3.4
v -2 12.2 3.4
v -1.9 12.2 3.4
v -0.3 12.2 3.4
v -0.0999999 12.2 3.4
v 0.4 12.2 3.4
v 0.5 12.2 3.4
v 1.4 12.2 3.4
v 1.5 12.2 3.4
v -2.4 12.3 3.5
v -2 12.3 3.5
v -0.0999999 12.3 3.5
v 0.0999999 12.3 3.5
v 0.3 12.3 3.5
v 0.4 12.3 3.5
v 1.5 12.3 3.5
v 1.6 12.3 3.5
v 2 12.3 3.5
v 2.1 12.3 3.5
v -2.4 12.3 3.4
v -2 12.3 3.4
v -0.0999999 12.3 3.4
v 0.0999999 12.3 3.4
v 0.3 12.3 3.4
v 0.4 12.3 3.4
v 1.5 12.3 3.4
v 1.6 12.3 3.4
v 2 12.3 3.4
v 2.1 12.3 3.4
v 0.0999999 12.4 3.5
v 0.3 12.4 3.5
v 1.6 12.4 3.5
v 1.7 12.4 3.5
v 1.9 12.4 3.5
v 2 12.4 3.5
v 0.0999999 12.4 3.4
v 0.3 12.4 3.4
v 1.6 12.4 3.4
v 1.7 12.4 3.4
v 1.9 12.4 3.4
v 2 12.4 3.4
v 1.7 12.5 3.5
v 1.9 12.5 3.5
v -3.2 12.5 3.4
v -1.4 12.5 3.4
v -1.3 12.5 3.4
v 0.9 12.5 3.4
v 1 12.5 3.4
v 1.7 12.5 3.4
v 1.9 12.5 3.4
v 3.2 12.5 3.4
v -3.2 12.5 3.3
v 3.2 12.5 3.3
v 3.3 12.5 3.2
v 3.5 12.5 3.2
v 3.3 12.5 -3.2
v 3.5 12.5 -3.2
v -3.2 0.1 3.5
v -2.8 0.1 3.5
v -2.7 0.1 3.5
v -1.8 0.1 3.5
v -1.7 0.1 3.5
v -1.4 0.1 3.5
v -1.3 0.1 3.5
v -0.9 0.1 3.5
v -0.8 0.1 3.5
v 0.5 0.1 3.5
v 0.6 0.1 3.5
v 0.9 0.1 3.5
v 1 0.1 3.5
v 1.5 0.1 3.5
v 1.6 0.1 3.5
v 2.7 0.1 3.5
v 2.8 0.1 3.5
v 3.2 0.1 3.5
v -3.2 0.1 3.4
v -2.8 0.1 3.4
v -2.7 0.1 3.4
v -1.8 0.1 3.4
v -1.7 0.1 3.4
v -1.4 0.1 3.4
v -1.3 0.1 3.4
v -0.9 0.1 3.4
v -0.8 0.1 3.4
v 0.5 0.1 3.4
v 0.6 0.1 3.4
v 0.9 0.1 3.4
v 1 0.1 3.4
v 1.5 0.1 3.4
v 1.6 0.1 3.4
v 2.7 0.1 3.4
v 2.8 0.1 3.4
v 3.2 0.1 3.4
v 3.3 0.1 3.2
v 3.5 0.1 3.2
v 3.3 0.1 -3.2
v 3.5 0.1 -3.2
v -2.9 2.5 3.5
v -1.7 2.5 3.5
v -0.7 2.5 3.5
v 0.2 2.5 3.5
v 1.4 2.5 3.5
v 2.8 2.5 3.5
v -2.9 2.5 3.4
v -2.8 2.5 3.4
v -2.7 2.5 3.4
v -1.8 2.5 3.4
v -1.7 2.5 3.4
v -0.7 2.5 3.4
v 0.2 2.5 3.4
v 1.4 2.5 3.4
v 1.5 2.5 3.4
v 1.6 2.5 3.4
v 2.8 2.5 3.4
v 3.3 2.5 3.2
v 3.5 2.5 3.2
v 3.3 2.5 -3.2
v 3.5 2.5 -3.2
v -0.8 2.7 3.5
v -0.7 2.7 3.5
v 0.2 2.7 3.5
v 0.3 2.7 3.5
v -0.8 2.7 3.4
v -0.7 2.7 3.4
v 0.2 2.7 3.4
v 0.3 2.7 3.4
v 0.3 2.9 3.5
v 0.4 2.9 3.5
v 0.3 2.9 3.4
v 0.4 2.9 3.4
v -0.9 3.1 3.5
v -0.8 3.1 3.5
v 0.4 3.1 3.5
v 0.5 3.1 3.5
v -0.9 3.1 3.4
v -0.8 3.1 3.4
v 0.4 3.1 3.4
v 0.5 3.1 3.4
v -2.7 4 3.5
v -1.9 4 3.5
v -0.6 4 3.5
v 0.2 4 3.5
v 1.4 4 3.5
v 2.8 4 3.5
v -2.7 4 3.4
v -1.9 4 3.4
v -0.6 4 3.4
v 0.2 4 3.4
v 1.4 4 3.4
v 1.5 4 3.4
v 1.6 4 3.4
v 2.8 4 3.4
v 3.3 4 3.2
v 3.5 4 3.2
v 3.3 4 -3.2
v 3.5 4 -3.2
v -2.9 5.6 3.5
v -1.7 5.6 3.5
v -0.7 5.6 3.5
v 0.3 5.6 3.5
v 1.3 5.6 3.5
v 2.9 5.6 3.5
v -2.9 5.6 3.4
v -2.8 5.6 3.4
v -2.7 5.6 3.4
v -1.8 5.6 3.4
v -1.7 5.6 3.4
v -0.7 5.6 3.4
v 0.3 5.6 3.4
v 1.3 5.6 3.4
v 1.5 5.6 3.4
v 1.6 5.6 3.4
v 2.9 5.6 3.4
v 3.3 5.6 3.2
v 3.5 5.6 3.2
v 3.3 5.6 -3.2
v 3.5 5.6 -3.2
v -2.9 7.1 3.5
v -1.7 7.1 3.5
v -0.5 7.1 3.5
v 0.7 7.1 3.5
v 1.8 7.1 3.5
v 2.6 7.1 3.5
v -2.9 7.1 3.4
v -2.8 7.1 3.4
v -2.7 7.1 3.4
v -1.8 7.1 3.4
v -1.7 7.1 3.4
v -0.5 7.1 3.4
v 0.5 7.1 3.4
v 0.6 7.1 3.4
v 0.7 7.1 3.4
v 1.8 7.1 3.4
v 2.6 7.1 3.4
v 3.3 7.1 3.2
v 3.5 7.1 3.2
v 3.3 7.1 -3.2
v 3.5 7.1 -3.2
v -2.8 8.7 3.5
v -2.1 8.7 3.5
v -0.7 8.7 3.5
v 0.3 8.7 3.5
v 1.4 8.7 3.5
v 2.8 8.7 3.5
v -2.8 8.7 3.4
v -2.7 8.7 3.4
v -2.1 8.7 3.4
v -0.7 8.7 3.4
v 0.3 8.7 3.4
v 1.4 8.7 3.4
v 1.5 8.7 3.4
v 1.6 8.7 3.4
v 2.8 8.7 3.4
v 3.3 8.7 3.2
v 3.5 8.7 3.2
v 3.3 8.7 -3.2
v 3.5 8.7 -3.2
v -2.6 10.1 3.5
v -2 10.1 3.5
v -0.6 10.1 3.5
v 0.2 10.1 3.5
v 1.6 10.1 3.5
v 2.4 10.1 3.5
v -2.6 10.1 3.4
v -2 10.1 3.4
v -0.6 10.1 3.4
v 0.2 10.1 3.4
v 1.6 10.1 3.4
v 2.4 10.1 3.4
v 3.3 10.1 3.2
v 3.5 10.1 3.2
v 3.3 10.1 -3.2
v 3.5 10.1 -3.2
v -2.5 11.3 3.5
v -1.8 11.3 3.5
v -0.5 11.3 3.5
v 0.7 11.3 3.5
v 1.4 11.3 3.5
v 2.1 11.3 3.5
v -3.2 11.3 3.4
v -2.5 11.3 3.4
v -1.8 11.3 3.4
v -1.4 11.3 3.4
v -1.3 11.3 3.4
v -0.5 11.3 3.4
v 0.7 11.3 3.4
v 0.9 11.3 3.4
v 1 11.3 3.4
v 1.4 11.3 3.4
v 2.1 11.3 3.4
v 3.2 11.3 3.4
v -3.2 11.3 3.3
v 0.5 11.3 3.3
v 0.6 11.3 3.3
v 1.4 11.3 3.3
v 1.5 11.3 3.3
v 3.2 11.3 3.3
v 3.3 11.3 3.2
v 3.5 11.3 3.2
v 3.3 11.3 -3.2
v 3.5 11.3 -3.2
v -3.6 12.7 3.5
v 3.5 12.7 3.5
v -3.6 12.7 -3.5
v 3.5 12.7 -3.5

# faces
f 3/3/1 2/3/1 1/3/1
f 4/3/1 2/3/1 3/3/1
f 7/3/1 6/3/1 5/3/1
f 8/3/1 6/3/1 7/3/1
f 11/5/1 10/5/1 9/5/1
f 12/5/1 10/5/1 11/5/1
f 15/5/1 14/5/1 13/5/1
f 16/5/1 14/5/1 15/5/1
f 19/5/1 18/5/1 17/5/1
f 20/5/1 18/5/1 19/5/1
f 23/5/1 22/5/1 21/5/1
f 24/5/1 22/5/1 23/5/1
f 27/5/1 26/5/1 25/5/1
f 28/5/1 26/5/1 27/5/1
f 31/5/1 30/5/1 29/5/1
f 32/5/1 30/5/1 31/5/1
f 35/5/1 34/5/1 33/5/1
f 36/5/1 34/5/1 35/5/1
f 39/5/1 38/5/1 37/5/1
f 40/5/1 38/5/1 39/5/1
f 43/5/1 42/5/1 41/5/1
f 44/5/1 42/5/1 43/5/1
f 47/3/1 46/3/1 45/3/1
f 48/3/1 46/3/1 47/3/1
f 51/5/1 50/5/1 49/5/1
f 52/5/1 50/5/1 51/5/1
f 55/5/1 54/5/1 53/5/1
f 56/5/1 54/5/1 55/5/1
f 59/5/1 58/5/1 57/5/1
f 60/5/1 58/5/1 59/5/1
f 63/5/1 62/5/1 61/5/1
f 64/5/1 62/5/1 63/5/1
f 67/5/1 66/5/1 65/5/1
f 68/5/1 66/5/1 67/5/1
f 71/5/1 70/5/1 69/5/1
f 72/5/1 70/5/1 71/5/1
f 75/3/1 74/3/1 73/3/1
f 76/3/1 74/3/1 75/3/1
f 79/3/1 78/3/1 77/3/1
f 80/3/1 78/3/1 79/3/1
f 83/5/1 82/5/1 81/5/1
f 84/5/1 82/5/1 83/5/1
f 87/5/1 86/5/1 85/5/1
f 88/5/1 86/5/1 87/5/1
f 91/5/1 90/5/1 89/5/1
f 92/5/1 90/5/1 91/5/1
f 95/5/1 94/5/1 93/5/1
f 96/5/1 94/5/1 95/5/1
f 99/5/1 98/5/1 97/5/1
f 100/5/1 98/5/1 99/5/1
f 103/5/1 102/5/1 101/5/1
f 104/5/1 102/5/1 103/5/1
f 107/5/1 106/5/1 105/5/1
f 108/5/1 106/5/1 107/5/1
f 111/5/1 110/5/1 109/5/1
f 112/5/1 110/5/1 111/5/1
f 115/5/1 114/5/1 113/5/1
f 116/5/1 114/5/1 115/5/1
f 119/5/1 118/5/1 117/5/1
f 120/5/1 118/5/1 119/5/1
f 123/5/1 122/5/1 121/5/1
f 124/5/1 122/5/1 123/5/1
f 127/5/1 126/5/1 125/5/1
f 128/5/1 126/5/1 127/5/1
f 131/5/1 130/5/1 129/5/1
f 132/5/1 130/5/1 131/5/1
f 135/5/1 134/5/1 133/5/1
f 136/5/1 134/5/1 135/5/1
f 139/3/1 138/3/1 137/3/1
f 140/3/1 138/3/1 139/3/1
f 143/5/1 142/5/1 141/5/1
f 144/5/1 142/5/1 143/5/1
f 147/5/1 146/5/1 145/5/1
f 148/5/1 146/5/1 147/5/1
f 151/5/1 150/5/1 149/5/1
f 152/5/1 150/5/1 151/5/1
f 155/5/1 154/5/1 153/5/1
f 156/5/1 154/5/1 155/5/1
f 159/5/1 158/5/1 157/5/1
f 160/5/1 158/5/1 159/5/1
f 163/5/1 162/5/1 161/5/1
f 164/5/1 162/5/1 163/5/1
f 167/5/1 166/5/1 165/5/1
f 168/5/1 166/5/1 167/5/1
f 171/3/1 170/3/1 169/3/1
f 172/3/1 170/3/1 171/3/1
f 175/3/1 174/3/1 173/3/1
f 176/3/1 174/3/1 175/3/1
f 179/5/1 178/5/1 177/5/1
f 180/5/1 178/5/1 179/5/1
f 183/5/1 182/5/1 181/5/1
f 184/5/1 182/5/1 183/5/1
f 187/5/1 186/5/1 185/5/1
f 188/5/1 186/5/1 187/5/1
f 191/5/1 190/5/1 189/5/1
f 192/5/1 190/5/1 191/5/1
f 195/5/1 194/5/1 193/5/1
f 196/5/1 194/5/1 195/5/1
f 199/5/1 198/5/1 197/5/1
f 200/5/1 198/5/1 199/5/1
f 203/5/1 202/5/1 201/5/1
f 204/5/1 202/5/1 203/5/1
f 207/5/1 206/5/1 205/5/1
f 208/5/1 206/5/1 207/5/1
f 211/3/1 210/3/1 209/3/1
f 212/3/1 210/3/1 211/3/1
f 215/5/1 214/5/1 213/5/1
f 216/5/1 214/5/1 215/5/1
f 219/5/1 218/5/1 217/5/1
f 220/5/1 218/5/1 219/5/1
f 223/5/1 222/5/1 221/5/1
f 224/5/1 222/5/1 223/5/1
f 227/5/1 226/5/1 225/5/1
f 228/5/1 226/5/1 227/5/1
f 231/5/1 230/5/1 229/5/1
f 232/5/1 230/5/1 231/5/1
f 235/3/1 234/3/1 233/3/1
f 236/3/1 234/3/1 235/3/1
f 239/3/1 238/3/1 237/3/1
f 240/3/1 238/3/1 239/3/1
f 241/3/2 242/3/2 243/3/2
f 243/3/2 242/3/2 244/3/2
f 245/3/2 246/3/2 247/3/2
f 247/3/2 246/3/2 248/3/2
f 249/5/2 250/5/2 251/5/2
f 251/5/2 250/5/2 252/5/2
f 253/5/2 254/5/2 255/5/2
f 255/5/2 254/5/2 256/5/2
f 257/5/2 258/5/2 259/5/2
f 259/5/2 258/5/2 260/5/2
f 261/5/2 262/5/2 263/5/2
f 263/5/2 262/5/2 264/5/2
f 265/5/2 266/5/2 267/5/2
f 267/5/2 266/5/2 268/5/2
f 269/5/2 270/5/2 271/5/2
f 271/5/2 270/5/2 272/5/2
f 273/3/2 274/3/2 275/3/2
f 275/3/2 274/3/2 276/3/2
f 277/5/2 278/5/2 279/5/2
f 279/5/2 278/5/2 280/5/2
f 281/5/2 282/5/2 283/5/2
f 283/5/2 282/5/2 284/5/2
f 285/5/2 286/5/2 287/5/2
f 287/5/2 286/5/2 288/5/2
f 289/5/2 290/5/2 291/5/2
f 291/5/2 290/5/2 292/5/2
f 293/5/2 294/5/2 295/5/2
f 295/5/2 294/5/2 296/5/2
f 297/5/2 298/5/2 299/5/2
f 299/5/2 298/5/2 300/5/2
f 301/5/2 302/5/2 303/5/2
f 303/5/2 302/5/2 304/5/2
f 305/5/2 306/5/2 307/5/2
f 307/5/2 306/5/2 308/5/2
f 309/5/2 310/5/2 311/5/2
f 311/5/2 310/5/2 312/5/2
f 313/3/2 314/3/2 315/3/2
f 315/3/2 314/3/2 316/3/2
f 317/3/2 318/3/2 319/3/2
f 319/3/2 318/3/2 320/3/2
f 321/5/2 322/5/2 323/5/2
f 323/5/2 322/5/2 324/5/2
f 325/3/2 326/3/2 327/3/2
f 327/3/2 326/3/2 328/3/2
f 329/5/2 330/5/2 331/5/2
f 331/5/2 330/5/2 332/5/2
f 333/5/2 334/5/2 335/5/2
f 335/5/2 334/5/2 336/5/2
f 337/5/2 338/5/2 339/5/2
f 339/5/2 338/5/2 340/5/2
f 341/5/2 342/5/2 343/5/2
f 343/5/2 342/5/2 344/5/2
f 345/5/2 346/5/2 347/5/2
f 347/5/2 346/5/2 348/5/2
f 349/5/2 350/5/2 351/5/2
f 351/5/2 350/5/2 352/5/2
f 353/5/2 354/5/2 355/5/2
f 355/5/2 354/5/2 356/5/2
f 357/5/2 358/5/2 359/5/2
f 359/5/2 358/5/2 360/5/2
f 361/5/2 362/5/2 363/5/2
f 363/5/2 362/5/2 364/5/2
f 365/5/2 366/5/2 367/5/2
f 367/5/2 366/5/2 368/5/2
f 369/5/2 370/5/2 371/5/2
f 371/5/2 370/5/2 372/5/2
f 373/5/2 374/5/2 375/5/2
f 375/5/2 374/5/2 376/5/2
f 377/5/2 378/5/2 379/5/2
f 379/5/2 378/5/2 380/5/2
f 381/5/2 382/5/2 383/5/2
f 383/5/2 382/5/2 384/5/2
f 385/5/2 386/5/2 387/5/2
f 387/5/2 386/5/2 388/5/2
f 389/3/2 390/3/2 391/3/2
f 391/3/2 390/3/2 392/3/2
f 393/3/2 394/3/2 395/3/2
f 395/3/2 394/3/2 396/3/2
f 397/5/2 398/5/2 399/5/2
f 399/5/2 398/5/2 400/5/2
f 401/5/2 402/5/2 403/5/2
f 403/5/2 402/5/2 404/5/2
f 405/5/2 406/5/2 407/5/2
f 407/5/2 406/5/2 408/5/2
f 409/5/2 410/5/2 411/5/2
f 411/5/2 410/5/2 412/5/2
f 413/5/2 414/5/2 415/5/2
f 415/5/2 414/5/2 416/5/2
f 417/5/2 418/5/2 419/5/2
f 419/5/2 418/5/2 420/5/2
f 421/5/2 422/5/2 423/5/2
f 423/5/2 422/5/2 424/5/2
f 425/3/2 426/3/2 427/3/2
f 427/3/2 426/3/2 428/3/2
f 429/5/2 430/5/2 431/5/2
f 431/5/2 430/5/2 432/5/2
f 433/5/2 434/5/2 435/5/2
f 435/5/2 434/5/2 436/5/2
f 437/5/2 438/5/2 439/5/2
f 439/5/2 438/5/2 440/5/2
f 441/5/2 442/5/2 443/5/2
f 443/5/2 442/5/2 444/5/2
f 445/5/2 446/5/2 447/5/2
f 447/5/2 446/5/2 448/5/2
f 449/5/2 450/5/2 451/5/2
f 451/5/2 450/5/2 452/5/2
f 453/5/2 454/5/2 455/5/2
f 455/5/2 454/5/2 456/5/2
f 457/5/2 458/5/2 459/5/2
f 459/5/2 458/5/2 460/5/2
f 461/3/2 462/3/2 463/3/2
f 463/3/2 462/3/2 464/3/2
f 465/2/2 466/2/2 467/2/2
f 467/2/2 466/2/2 468/2/2
f 469/2/2 470/2/2 471/2/2
f 471/2/2 470/2/2 472/2/2
f 473/2/2 474/2/2 475/2/2
f 475/2/2 474/2/2 476/2/2
f 477/2/2 478/2/2 479/2/2
f 479/2/2 478/2/2 480/2/2
f 481/2/2 482/2/2 483/2/2
f 483/2/2 482/2/2 484/2/2
f 485/2/2 486/2/2 487/2/2
f 487/2/2 486/2/2 488/2/2
f 489/2/2 490/2/2 491/2/2
f 491/2/2 490/2/2 492/2/2
f 493/2/2 494/2/2 495/2/2
f 495/2/2 494/2/2 496/2/2
f 497/3/2 498/3/2 499/3/2
f 499/3/2 498/3/2 500/3/2
f 497/3/2 499/3/2 501/3/2
f 500/3/2 498/3/2 502/3/2
f 497/3/2 501/3/2 503/3/2
f 501/3/2 502/3/2 503/3/2
f 502/3/2 498/3/2 504/3/2
f 503/3/2 502/3/2 504/3/2
f 497/3/2 503/3/2 505/3/2
f 504/3/2 498/3/2 506/3/2
f 497/3/2 505/3/2 507/3/2
f 505/3/2 506/3/2 507/3/2
f 506/3/2 498/3/2 508/3/2
f 507/3/2 506/3/2 508/3/2
f 497/3/2 507/3/2 509/3/2
f 508/3/2 498/3/2 510/3/2
f 497/3/2 509/3/2 511/3/2
f 509/3/2 510/3/2 511/3/2
f 510/3/2 498/3/2 512/3/2
f 511/3/2 510/3/2 512/3/2
f 497/3/2 511/3/2 513/3/2
f 512/3/2 498/3/2 514/3/2
f 497/3/2 513/3/2 515/3/2
f 513/3/2 514/3/2 515/3/2
f 514/3/2 498/3/2 516/3/2
f 515/3/2 514/3/2 516/3/2
f 497/3/2 515/3/2 517/3/2
f 516/3/2 498/3/2 518/3/2
f 497/3/2 517/3/2 519/3/2
f 517/3/2 518/3/2 519/3/2
f 518/3/2 498/3/2 520/3/2
f 519/3/2 518/3/2 520/3/2
f 497/3/2 519/3/2 521/3/2
f 520/3/2 498/3/2 522/3/2
f 497/3/2 521/3/2 523/3/2
f 521/3/2 522/3/2 523/3/2
f 522/3/2 498/3/2 524/3/2
f 523/3/2 522/3/2 524/3/2
f 497/3/2 523/3/2 525/3/2
f 524/3/2 498/3/2 526/3/2
f 497/3/2 525/3/2 527/3/2
f 525/3/2 526/3/2 527/3/2
f 526/3/2 498/3/2 528/3/2
f 527/3/2 526/3/2 528/3/2
f 497/3/2 527/3/2 529/3/2
f 528/3/2 498/3/2 530/3/2
f 497/3/2 529/3/2 531/3/2
f 529/3/2 530/3/2 531/3/2
f 530/3/2 498/3/2 532/3/2
f 531/3/2 530/3/2 532/3/2
f 535/3/3 534/3/3 533/3/3
f 536/3/3 534/3/3 535/3/3
f 537/3/3 534/3/3 536/3/3
f 538/3/3 534/3/3 537/3/3
f 539/3/3 534/3/3 538/3/3
f 540/3/3 534/3/3 539/3/3
f 541/3/3 534/3/3 540/3/3
f 542/3/3 534/3/3 541/3/3
f 543/3/3 534/3/3 542/3/3
f 544/3/3 534/3/3 543/3/3
f 545/3/3 534/3/3 544/3/3
f 546/3/3 534/3/3 545/3/3
f 547/3/3 534/3/3 546/3/3
f 548/3/3 534/3/3 547/3/3
f 549/3/3 534/3/3 548/3/3
f 550/3/3 534/3/3 549/3/3
f 551/3/3 537/3/3 536/3/3
f 551/5/3 538/5/3 537/5/3
f 552/5/3 538/5/3 551/5/3
f 553/3/3 541/3/3 540/3/3
f 553/5/3 542/5/3 541/5/3
f 554/5/3 542/5/3 553/5/3
f 555/3/3 543/3/3 542/3/3
f 555/5/3 544/5/3 543/5/3
f 556/3/3 545/3/3 544/3/3
f 556/5/3 544/5/3 555/5/3
f 557/3/3 535/3/3 533/3/3
f 558/3/3 551/3/3 536/3/3
f 559/5/3 538/5/3 552/5/3
f 560/5/3 538/5/3 559/5/3
f 561/5/3 542/5/3 554/5/3
f 562/5/3 542/5/3 561/5/3
f 563/3/3 545/3/3 556/3/3
f 563/5/3 546/5/3 545/5/3
f 564/3/3 547/3/3 546/3/3
f 564/5/3 546/5/3 563/5/3
f 565/3/3 558/3/3 557/3/3
f 565/3/3 557/3/3 533/3/3
f 566/3/3 551/3/3 558/3/3
f 566/3/3 558/3/3 565/3/3
f 567/5/3 538/5/3 560/5/3
f 568/5/3 538/5/3 567/5/3
f 569/3/3 539/3/3 538/3/3
f 569/5/3 540/5/3 539/5/3
f 570/3/3 553/3/3 540/3/3
f 570/5/3 540/5/3 569/5/3
f 571/5/3 542/5/3 562/5/3
f 572/5/3 542/5/3 571/5/3
f 573/5/3 538/5/3 568/5/3
f 574/5/3 538/5/3 573/5/3
f 575/5/3 542/5/3 572/5/3
f 576/3/3 555/3/3 542/3/3
f 576/5/3 542/5/3 575/5/3
f 577/3/3 547/3/3 564/3/3
f 577/5/3 548/5/3 547/5/3
f 578/3/3 549/3/3 548/3/3
f 578/5/3 548/5/3 577/5/3
f 579/5/3 538/5/3 574/5/3
f 580/3/3 569/3/3 538/3/3
f 580/5/3 538/5/3 579/5/3
f 581/5/3 550/5/3 549/5/3
f 581/3/3 549/3/3 578/3/3
f 582/5/3 550/5/3 581/5/3
f 583/5/3 550/5/3 582/5/3
f 584/5/3 550/5/3 583/5/3
f 585/3/3 563/3/3 556/3/3
f 586/3/3 577/3/3 564/3/3
f 588/3/3 569/3/3 580/3/3
f 590/3/3 555/3/3 576/3/3
f 591/3/3 577/3/3 586/3/3
f 592/3/3 581/3/3 578/3/3
f 594/5/3 550/5/3 584/5/3
f 596/5/3 588/5/3 587/5/3
f 597/3/3 569/3/3 588/3/3
f 598/3/3 553/3/3 570/3/3
f 600/5/3 590/5/3 589/5/3
f 602/5/3 594/5/3 593/5/3
f 603/3/3 565/3/3 533/3/3
f 604/3/3 551/3/3 566/3/3
f 606/5/3 596/5/3 595/5/3
f 608/5/3 600/5/3 599/5/3
f 609/3/3 581/3/3 592/3/3
f 610/5/3 602/5/3 601/5/3
f 611/3/3 603/3/3 533/3/3
f 611/3/3 604/3/3 603/3/3
f 612/3/3 551/3/3 604/3/3
f 612/3/3 604/3/3 611/3/3
f 613/3/3 551/3/3 612/3/3
f 614/5/3 606/5/3 605/5/3
f 615/3/3 553/3/3 598/3/3
f 616/5/3 608/5/3 607/5/3
f 617/3/3 555/3/3 590/3/3
f 618/3/3 585/3/3 556/3/3
f 619/3/3 611/3/3 533/3/3
f 620/3/3 613/3/3 612/3/3
f 621/5/3 614/5/3 613/5/3
f 621/3/3 613/3/3 620/3/3
f 622/3/3 597/3/3 588/3/3
f 622/5/3 614/5/3 621/5/3
f 622/5/3 588/5/3 596/5/3
f 622/5/3 596/5/3 606/5/3
f 622/5/3 606/5/3 614/5/3
f 623/5/3 598/5/3 597/5/3
f 623/3/3 597/3/3 622/3/3
f 624/3/3 615/3/3 598/3/3
f 624/5/3 598/5/3 623/5/3
f 625/5/3 616/5/3 615/5/3
f 625/3/3 615/3/3 624/3/3
f 626/3/3 617/3/3 590/3/3
f 626/5/3 616/5/3 625/5/3
f 626/5/3 590/5/3 600/5/3
f 626/5/3 600/5/3 608/5/3
f 626/5/3 608/5/3 616/5/3
f 627/5/3 618/5/3 617/5/3
f 627/3/3 617/3/3 626/3/3
f 628/3/3 585/3/3 618/3/3
f 628/5/3 618/5/3 627/5/3
f 629/5/3 586/5/3 585/5/3
f 629/3/3 585/3/3 628/3/3
f 630/3/3 591/3/3 586/3/3
f 630/5/3 586/5/3 629/5/3
f 631/5/3 592/5/3 591/5/3
f 631/3/3 591/3/3 630/3/3
f 632/3/3 609/3/3 592/3/3
f 632/5/3 592/5/3 631/5/3
f 633/5/3 610/5/3 609/5/3
f 633/3/3 609/3/3 632/3/3
f 634/3/3 534/3/3 550/3/3
f 634/5/3 610/5/3 633/5/3
f 634/5/3 602/5/3 610/5/3
f 634/5/3 550/5/3 594/5/3
f 634/5/3 594/5/3 602/5/3
f 635/3/3 621/3/3 620/3/3
f 635/3/3 633/3/3 632/3/3
f 635/3/3 634/3/3 633/3/3
f 635/3/3 628/3/3 627/3/3
f 635/3/3 625/3/3 624/3/3
f 635/3/3 629/3/3 628/3/3
f 635/3/3 626/3/3 625/3/3
f 635/3/3 619/3/3 533/3/3
f 635/3/3 632/3/3 631/3/3
f 635/3/3 630/3/3 629/3/3
f 635/3/3 631/3/3 630/3/3
f 635/3/3 622/3/3 621/3/3
f 635/3/3 620/3/3 619/3/3
f 635/3/3 627/3/3 626/3/3
f 635/3/3 624/3/3 623/3/3
f 635/3/3 623/3/3 622/3/3
f 636/3/3 634/3/3 635/3/3
f 637/3/3 634/3/3 636/3/3
f 638/3/3 634/3/3 637/3/3
f 639/3/3 634/3/3 638/3/3
f 640/3/3 634/3/3 639/3/3
f 641/3/3 634/3/3 640/3/3
f 642/3/3 634/3/3 641/3/3
f 643/3/3 634/3/3 642/3/3
f 644/3/3 634/3/3 643/3/3
f 645/3/3 634/3/3 644/3/3
f 646/3/3 634/3/3 645/3/3
f 647/3/3 634/3/3 646/3/3
f 648/3/3 634/3/3 647/3/3
f 649/3/3 634/3/3 648/3/3
f 650/3/3 534/3/3 634/3/3
f 650/3/3 634/3/3 649/3/3
f 651/3/3 635/3/3 533/3/3
f 652/3/3 637/3/3 636/3/3
f 653/5/3 638/5/3 637/5/3
f 654/5/3 638/5/3 653/5/3
f 655/3/3 651/3/3 533/3/3
f 655/3/3 652/3/3 651/3/3
f 656/3/3 637/3/3 652/3/3
f 656/3/3 652/3/3 655/3/3
f 657/5/3 653/5/3 637/5/3
f 658/5/3 653/5/3 657/5/3
f 659/5/3 638/5/3 654/5/3
f 660/5/3 638/5/3 659/5/3
f 661/3/3 637/3/3 656/3/3
f 661/5/3 657/5/3 637/5/3
f 662/5/3 657/5/3 661/5/3
f 663/5/3 638/5/3 660/5/3
f 664/5/3 638/5/3 663/5/3
f 665/3/3 641/3/3 640/3/3
f 665/5/3 642/5/3 641/5/3
f 666/3/3 643/3/3 642/3/3
f 666/5/3 642/5/3 665/5/3
f 667/3/3 645/3/3 644/3/3
f 667/5/3 646/5/3 645/5/3
f 668/3/3 647/3/3 646/3/3
f 668/5/3 646/5/3 667/5/3
f 669/5/3 638/5/3 664/5/3
f 670/5/3 638/5/3 669/5/3
f 671/3/3 639/3/3 638/3/3
f 671/5/3 640/5/3 639/5/3
f 672/3/3 665/3/3 640/3/3
f 672/5/3 640/5/3 671/5/3
f 673/3/3 647/3/3 668/3/3
f 673/5/3 648/5/3 647/5/3
f 674/3/3 649/3/3 648/3/3
f 674/5/3 648/5/3 673/5/3
f 675/5/3 638/5/3 670/5/3
f 676/3/3 671/3/3 638/3/3
f 676/5/3 638/5/3 675/5/3
f 677/5/3 644/5/3 643/5/3
f 677/3/3 643/3/3 666/3/3
f 678/3/3 667/3/3 644/3/3
f 678/5/3 644/5/3 677/5/3
f 679/5/3 650/5/3 649/5/3
f 679/3/3 649/3/3 674/3/3
f 680/5/3 650/5/3 679/5/3
f 681/5/3 650/5/3 680/5/3
f 682/5/3 650/5/3 681/5/3
f 683/5/3 650/5/3 682/5/3
f 684/5/3 650/5/3 683/5/3
f 685/5/3 650/5/3 684/5/3
f 686/5/3 650/5/3 685/5/3
f 687/3/3 661/3/3 656/3/3
f 690/3/3 671/3/3 676/3/3
f 691/3/3 671/3/3 690/3/3
f 692/3/3 665/3/3 672/3/3
f 693/3/3 673/3/3 668/3/3
f 694/3/3 679/3/3 674/3/3
f 695/5/3 688/5/3 687/5/3
f 698/5/3 690/5/3 689/5/3
f 699/3/3 665/3/3 692/3/3
f 700/3/3 677/3/3 666/3/3
f 702/3/3 667/3/3 678/3/3
f 703/3/3 667/3/3 702/3/3
f 704/3/3 693/3/3 668/3/3
f 706/5/3 650/5/3 686/5/3
f 707/5/3 696/5/3 695/5/3
f 710/5/3 698/5/3 697/5/3
f 712/5/3 702/5/3 701/5/3
f 714/5/3 706/5/3 705/5/3
f 715/3/3 655/3/3 533/3/3
f 716/3/3 687/3/3 656/3/3
f 717/5/3 708/5/3 707/5/3
f 718/5/3 710/5/3 709/5/3
f 720/5/3 712/5/3 711/5/3
f 722/5/3 714/5/3 713/5/3
f 723/3/3 715/3/3 533/3/3
f 723/3/3 716/3/3 715/3/3
f 724/3/3 687/3/3 716/3/3
f 724/3/3 716/3/3 723/3/3
f 726/5/3 720/5/3 719/5/3
f 728/5/3 722/5/3 721/5/3
f 729/3/3 677/3/3 700/3/3
f 730/5/3 726/5/3 725/5/3
f 731/3/3 679/3/3 694/3/3
f 732/5/3 728/5/3 727/5/3
f 733/3/3 723/3/3 533/3/3
f 734/3/3 687/3/3 724/3/3
f 735/5/3 718/5/3 717/5/3
f 735/5/3 695/5/3 687/5/3
f 735/3/3 687/3/3 734/3/3
f 735/5/3 717/5/3 707/5/3
f 735/5/3 707/5/3 695/5/3
f 736/3/3 691/3/3 690/3/3
f 736/5/3 718/5/3 735/5/3
f 736/5/3 690/5/3 698/5/3
f 736/5/3 698/5/3 710/5/3
f 736/5/3 710/5/3 718/5/3
f 737/5/3 692/5/3 691/5/3
f 737/3/3 691/3/3 736/3/3
f 738/3/3 699/3/3 692/3/3
f 738/5/3 692/5/3 737/5/3
f 739/5/3 700/5/3 699/5/3
f 739/3/3 699/3/3 738/3/3
f 740/3/3 729/3/3 700/3/3
f 740/5/3 700/5/3 739/5/3
f 741/5/3 730/5/3 729/5/3
f 741/3/3 729/3/3 740/3/3
f 742/3/3 703/3/3 702/3/3
f 742/5/3 730/5/3 741/5/3
f 742/5/3 726/5/3 730/5/3
f 742/5/3 720/5/3 726/5/3
f 742/5/3 702/5/3 712/5/3
f 742/5/3 712/5/3 720/5/3
f 743/5/3 704/5/3 703/5/3
f 743/3/3 703/3/3 742/3/3
f 744/3/3 693/3/3 704/3/3
f 744/5/3 704/5/3 743/5/3
f 745/5/3 694/5/3 693/5/3
f 745/3/3 693/3/3 744/3/3
f 746/3/3 731/3/3 694/3/3
f 746/5/3 694/5/3 745/5/3
f 747/5/3 732/5/3 731/5/3
f 747/3/3 731/3/3 746/3/3
f 748/3/3 534/3/3 650/3/3
f 748/5/3 732/5/3 747/5/3
f 748/5/3 714/5/3 722/5/3
f 748/5/3 728/5/3 732/5/3
f 748/5/3 650/5/3 706/5/3
f 748/5/3 722/5/3 728/5/3
f 748/5/3 706/5/3 714/5/3
f 749/3/3 736/3/3 735/3/3
f 749/3/3 747/3/3 746/3/3
f 749/3/3 748/3/3 747/3/3
f 749/3/3 738/3/3 737/3/3
f 749/3/3 746/3/3 745/3/3
f 749/3/3 735/3/3 734/3/3
f 749/3/3 741/3/3 740/3/3
f 749/3/3 742/3/3 741/3/3
f 749/3/3 744/3/3 743/3/3
f 749/3/3 733/3/3 533/3/3
f 749/3/3 737/3/3 736/3/3
f 749/3/3 739/3/3 738/3/3
f 749/3/3 734/3/3 733/3/3
f 749/3/3 743/3/3 742/3/3
f 749/3/3 740/3/3 739/3/3
f 749/3/3 745/3/3 744/3/3
f 750/3/3 748/3/3 749/3/3
f 751/3/3 748/3/3 750/3/3
f 752/3/3 748/3/3 751/3/3
f 753/3/3 748/3/3 752/3/3
f 754/3/3 748/3/3 753/3/3
f 755/3/3 748/3/3 754/3/3
f 756/3/3 748/3/3 755/3/3
f 757/3/3 748/3/3 756/3/3
f 758/3/3 748/3/3 757/3/3
f 759/3/3 748/3/3 758/3/3
f 760/3/3 748/3/3 759/3/3
f 761/3/3 748/3/3 760/3/3
f 762/3/3 748/3/3 761/3/3
f 763/3/3 748/3/3 762/3/3
f 764/3/3 534/3/3 748/3/3
f 764/3/3 748/3/3 763/3/3
f 765/3/3 755/3/3 754/3/3
f 765/5/3 756/5/3 755/5/3
f 766/3/3 757/3/3 756/3/3
f 766/5/3 756/5/3 765/5/3
f 767/3/3 751/3/3 750/3/3
f 767/5/3 752/5/3 751/5/3
f 768/5/3 752/5/3 767/5/3
f 769/3/3 753/3/3 752/3/3
f 769/5/3 754/5/3 753/5/3
f 770/3/3 765/3/3 754/3/3
f 770/5/3 754/5/3 769/5/3
f 771/3/3 759/3/3 758/3/3
f 771/5/3 760/5/3 759/5/3
f 772/3/3 761/3/3 760/3/3
f 772/5/3 760/5/3 771/5/3
f 773/3/3 763/3/3 762/3/3
f 773/5/3 764/5/3 763/5/3
f 774/5/3 764/5/3 773/5/3
f 775/3/3 749/3/3 533/3/3
f 776/3/3 767/3/3 750/3/3
f 777/5/3 752/5/3 768/5/3
f 778/5/3 752/5/3 777/5/3
f 779/5/3 764/5/3 774/5/3
f 780/5/3 764/5/3 779/5/3
f 781/3/3 776/3/3 775/3/3
f 781/3/3 775/3/3 533/3/3
f 782/3/3 767/3/3 776/3/3
f 782/3/3 776/3/3 781/3/3
f 783/5/3 752/5/3 778/5/3
f 784/5/3 752/5/3 783/5/3
f 785/3/3 761/3/3 772/3/3
f 785/5/3 762/5/3 761/5/3
f 786/3/3 773/3/3 762/3/3
f 786/5/3 762/5/3 785/5/3
f 787/5/3 764/5/3 780/5/3
f 788/5/3 764/5/3 787/5/3
f 789/5/3 752/5/3 784/5/3
f 790/3/3 769/3/3 752/3/3
f 790/5/3 752/5/3 789/5/3
f 791/5/3 764/5/3 788/5/3
f 792/3/3 534/3/3 764/3/3
f 792/5/3 764/5/3 791/5/3
f 793/3/3 757/3/3 766/3/3
f 793/5/3 758/5/3 757/5/3
f 794/5/3 758/5/3 793/5/3
f 795/5/3 758/5/3 794/5/3
f 796/5/3 758/5/3 795/5/3
f 798/3/3 534/3/3 792/3/3
f 799/5/3 758/5/3 796/5/3
f 800/3/3 771/3/3 758/3/3
f 800/5/3 758/5/3 799/5/3
f 802/5/3 798/5/3 797/5/3
f 803/3/3 773/3/3 786/3/3
f 804/5/3 802/5/3 801/5/3
f 806/3/3 771/3/3 800/3/3
f 807/3/3 785/3/3 772/3/3
f 808/3/3 803/3/3 786/3/3
f 810/5/3 806/5/3 805/5/3
f 812/3/3 769/3/3 790/3/3
f 813/3/3 793/3/3 766/3/3
f 814/5/3 810/5/3 809/5/3
f 815/3/3 781/3/3 533/3/3
f 816/3/3 767/3/3 782/3/3
f 818/5/3 812/5/3 811/5/3
f 819/3/3 815/3/3 533/3/3
f 819/3/3 816/3/3 815/3/3
f 820/3/3 767/3/3 816/3/3
f 820/3/3 816/3/3 819/3/3
f 821/3/3 767/3/3 820/3/3
f 822/5/3 818/5/3 817/5/3
f 823/3/3 769/3/3 812/3/3
f 824/3/3 765/3/3 770/3/3
f 825/3/3 771/3/3 806/3/3
f 826/3/3 807/3/3 772/3/3
f 827/3/3 765/3/3 824/3/3
f 828/3/3 813/3/3 766/3/3
f 829/3/3 819/3/3 533/3/3
f 830/3/3 821/3/3 820/3/3
f 831/5/3 822/5/3 821/5/3
f 831/3/3 821/3/3 830/3/3
f 832/3/3 823/3/3 812/3/3
f 832/5/3 822/5/3 831/5/3
f 832/5/3 812/5/3 818/5/3
f 832/5/3 818/5/3 822/5/3
f 833/5/3 824/5/3 823/5/3
f 833/3/3 823/3/3 832/3/3
f 834/3/3 827/3/3 824/3/3
f 834/5/3 824/5/3 833/5/3
f 835/5/3 828/5/3 827/5/3
f 835/3/3 827/3/3 834/3/3
f 836/3/3 813/3/3 828/3/3
f 836/5/3 828/5/3 835/5/3
f 837/5/3 814/5/3 813/5/3
f 837/3/3 813/3/3 836/3/3
f 838/3/3 825/3/3 806/3/3
f 838/5/3 814/5/3 837/5/3
f 838/5/3 806/5/3 810/5/3
f 838/5/3 810/5/3 814/5/3
f 839/5/3 826/5/3 825/5/3
f 839/3/3 825/3/3 838/3/3
f 840/3/3 807/3/3 826/3/3
f 840/5/3 826/5/3 839/5/3
f 841/5/3 808/5/3 807/5/3
f 841/3/3 807/3/3 840/3/3
f 842/3/3 803/3/3 808/3/3
f 842/5/3 808/5/3 841/5/3
f 843/5/3 804/5/3 803/5/3
f 843/3/3 803/3/3 842/3/3
f 844/3/3 534/3/3 798/3/3
f 844/5/3 804/5/3 843/5/3
f 844/5/3 798/5/3 802/5/3
f 844/5/3 802/5/3 804/5/3
f 845/3/3 833/3/3 832/3/3
f 845/3/3 829/3/3 533/3/3
f 845/3/3 844/3/3 843/3/3
f 845/3/3 835/3/3 834/3/3
f 845/3/3 842/3/3 841/3/3
f 845/3/3 838/3/3 837/3/3
f 845/3/3 837/3/3 836/3/3
f 845/3/3 834/3/3 833/3/3
f 845/3/3 840/3/3 839/3/3
f 845/3/3 831/3/3 830/3/3
f 845/3/3 836/3/3 835/3/3
f 845/3/3 830/3/3 829/3/3
f 845/3/3 843/3/3 842/3/3
f 845/3/3 839/3/3 838/3/3
f 845/3/3 832/3/3 831/3/3
f 845/3/3 841/3/3 840/3/3
f 846/3/3 534/3/3 844/3/3
f 846/3/3 844/3/3 845/3/3
f 855/1/3 848/1/3 847/1/3
f 856/1/3 848/1/3 855/1/3
f 857/4/3 850/4/3 849/4/3
f 858/4/3 850/4/3 857/4/3
f 860/4/3 852/4/3 851/4/3
f 861/4/3 852/4/3 860/4/3
f 863/4/3 854/4/3 853/4/3
f 864/4/3 854/4/3 863/4/3
f 869/3/3 859/3/3 858/3/3
f 869/3/3 858/3/3 857/3/3
f 870/3/3 859/3/3 869/3/3
f 874/3/3 862/3/3 861/3/3
f 874/3/3 861/3/3 860/3/3
f 875/3/3 862/3/3 874/3/3
f 877/3/3 864/3/3 863/3/3
f 878/3/3 864/3/3 877/3/3
f 879/3/3 866/3/3 865/3/3
f 880/3/3 866/3/3 879/3/3
f 881/6/3 871/6/3 870/6/3
f 881/6/3 870/6/3 869/6/3
f 883/6/3 876/6/3 875/6/3
f 883/6/3 875/6/3 874/6/3
f 887/6/3 882/6/3 881/6/3
f 889/6/3 880/6/3 879/6/3
f 890/6/3 880/6/3 889/6/3
f 891/6/3 888/6/3 887/6/3
f 891/6/3 887/6/3 881/6/3
f 892/6/3 888/6/3 891/6/3
f 893/6/3 884/6/3 883/6/3
f 893/6/3 883/6/3 874/6/3
f 894/6/3 884/6/3 893/6/3
f 895/6/3 886/6/3 885/6/3
f 896/6/3 886/6/3 895/6/3
f 897/6/3 881/6/3 869/6/3
f 897/6/3 891/6/3 881/6/3
f 898/6/3 891/6/3 897/6/3
f 899/6/3 873/6/3 872/6/3
f 900/6/3 873/6/3 899/6/3
f 901/6/3 893/6/3 874/6/3
f 902/6/3 893/6/3 901/6/3
f 903/1/3 868/1/3 867/1/3
f 904/1/3 868/1/3 903/1/3
f 905/6/3 897/6/3 869/6/3
f 906/6/3 897/6/3 905/6/3
f 907/6/3 897/6/3 906/6/3
f 908/6/3 901/6/3 874/6/3
f 909/6/3 901/6/3 908/6/3
f 910/6/3 901/6/3 909/6/3
f 911/6/3 878/6/3 877/6/3
f 912/6/3 878/6/3 911/6/3
f 915/3/3 906/3/3 905/3/3
f 916/3/3 906/3/3 915/3/3
f 917/3/3 909/3/3 908/3/3
f 918/3/3 909/3/3 917/3/3
f 919/3/3 912/3/3 911/3/3
f 920/3/3 912/3/3 919/3/3
f 921/1/3 914/1/3 913/1/3
f 922/1/3 914/1/3 921/1/3
f 925/1/3 924/1/3 923/1/3
f 926/1/3 924/1/3 925/1/3
f 932/3/3 928/3/3 927/3/3
f 933/3/3 928/3/3 932/3/3
f 936/6/3 932/6/3 931/6/3
f 936/6/3 934/6/3 933/6/3
f 936/6/3 933/6/3 932/6/3
f 937/6/3 934/6/3 936/6/3
f 943/6/3 938/6/3 937/6/3
f 943/6/3 936/6/3 935/6/3
f 943/6/3 937/6/3 936/6/3
f 949/6/3 944/6/3 943/6/3
f 953/6/3 943/6/3 935/6/3
f 953/6/3 949/6/3 943/6/3
f 953/6/3 950/6/3 949/6/3
f 954/6/3 950/6/3 953/6/3
f 955/6/3 950/6/3 954/6/3
f 956/6/3 950/6/3 955/6/3
f 957/6/3 946/6/3 945/6/3
f 958/6/3 946/6/3 957/6/3
f 959/6/3 948/6/3 947/6/3
f 960/6/3 948/6/3 959/6/3
f 961/6/3 955/6/3 954/6/3
f 962/6/3 955/6/3 961/6/3
f 963/6/3 955/6/3 962/6/3
f 964/6/3 955/6/3 963/6/3
f 965/6/3 940/6/3 939/6/3
f 966/6/3 940/6/3 965/6/3
f 967/6/3 952/6/3 951/6/3
f 968/6/3 952/6/3 967/6/3
f 969/6/3 942/6/3 941/6/3
f 970/6/3 942/6/3 969/6/3
f 971/6/3 963/6/3 962/6/3
f 972/6/3 963/6/3 971/6/3
f 973/6/3 963/6/3 972/6/3
f 974/6/3 963/6/3 973/6/3
f 975/6/3 967/6/3 951/6/3
f 976/6/3 967/6/3 975/6/3
f 977/1/3 930/1/3 929/1/3
f 978/1/3 930/1/3 977/1/3
f 979/6/3 973/6/3 972/6/3
f 980/6/3 973/6/3 979/6/3
f 981/6/3 975/6/3 951/6/3
f 982/6/3 975/6/3 981/6/3
f 983/6/3 975/6/3 982/6/3
f 986/3/3 982/3/3 981/3/3
f 987/3/3 982/3/3 986/3/3
f 988/3/3 982/3/3 987/3/3
f 989/4/3 987/4/3 986/4/3
f 990/4/3 987/4/3 989/4/3
f 991/1/3 985/1/3 984/1/3
f 992/1/3 985/1/3 991/1/3
f 1003/1/3 994/1/3 993/1/3
f 1004/1/3 994/1/3 1003/1/3
f 1005/4/3 998/4/3 997/4/3
f 1006/4/3 998/4/3 1005/4/3
f 1008/4/3 1000/4/3 999/4/3
f 1009/4/3 1000/4/3 1008/4/3
f 1010/4/3 996/4/3 995/4/3
f 1011/4/3 996/4/3 1010/4/3
f 1012/4/3 1002/4/3 1001/4/3
f 1013/4/3 1002/4/3 1012/4/3
f 1016/3/3 1007/3/3 1006/3/3
f 1016/3/3 1006/3/3 1005/3/3
f 1017/3/3 1007/3/3 1016/3/3
f 1019/3/3 1009/3/3 1008/3/3
f 1020/3/3 1009/3/3 1019/3/3
f 1021/3/3 1011/3/3 1010/3/3
f 1022/3/3 1011/3/3 1021/3/3
f 1023/3/3 1013/3/3 1012/3/3
f 1024/3/3 1013/3/3 1023/3/3
f 1027/6/3 1018/6/3 1017/6/3
f 1027/6/3 1017/6/3 1016/6/3
f 1031/6/3 1030/6/3 1029/6/3
f 1033/6/3 1032/6/3 1031/6/3
f 1035/6/3 1033/6/3 1031/6/3
f 1035/6/3 1034/6/3 1033/6/3
f 1036/6/3 1034/6/3 1035/6/3
f 1037/6/3 1026/6/3 1025/6/3
f 1038/6/3 1026/6/3 1037/6/3
f 1039/6/3 1031/6/3 1029/6/3
f 1039/6/3 1035/6/3 1031/6/3
f 1040/6/3 1035/6/3 1039/6/3
f 1041/6/3 1027/6/3 1016/6/3
f 1041/6/3 1028/6/3 1027/6/3
f 1042/6/3 1028/6/3 1041/6/3
f 1043/6/3 1039/6/3 1029/6/3
f 1044/6/3 1039/6/3 1043/6/3
f 1045/1/3 1015/1/3 1014/1/3
f 1046/1/3 1015/1/3 1045/1/3
f 1047/6/3 1041/6/3 1016/6/3
f 1048/6/3 1041/6/3 1047/6/3
f 1051/6/3 1047/6/3 1016/6/3
f 1052/6/3 1047/6/3 1051/6/3
f 1053/6/3 1020/6/3 1019/6/3
f 1054/6/3 1020/6/3 1053/6/3
f 1055/6/3 1024/6/3 1023/6/3
f 1056/6/3 1024/6/3 1055/6/3
f 1057/6/3 1022/6/3 1021/6/3
f 1058/6/3 1022/6/3 1057/6/3
f 1059/1/3 1050/1/3 1049/1/3
f 1060/1/3 1050/1/3 1059/1/3
f 1063/6/3 1062/6/3 1061/6/3
f 1064/6/3 1062/6/3 1063/6/3
f 1065/3/3 1064/3/3 1063/3/3
f 1066/6/3 1062/6/3 1064/6/3
f 1066/3/3 1064/3/3 1065/3/3
f 1067/6/3 1066/6/3 1065/6/3
f 1068/6/3 1062/6/3 1066/6/3
f 1068/6/3 1066/6/3 1067/6/3
f 1069/3/3 1068/3/3 1067/3/3
f 1070/6/3 1062/6/3 1068/6/3
f 1070/3/3 1068/3/3 1069/3/3
f 1071/6/3 1070/6/3 1069/6/3
f 1072/6/3 1062/6/3 1070/6/3
f 1072/6/3 1070/6/3 1071/6/3
f 1089/3/3 1074/3/3 1073/3/3
f 1090/3/3 1074/3/3 1089/3/3
f 1091/3/3 1076/3/3 1075/3/3
f 1092/3/3 1076/3/3 1091/3/3
f 1093/3/3 1078/3/3 1077/3/3
f 1094/3/3 1078/3/3 1093/3/3
f 1095/3/3 1080/3/3 1079/3/3
f 1096/3/3 1080/3/3 1095/3/3
f 1097/3/3 1082/3/3 1081/3/3
f 1098/3/3 1082/3/3 1097/3/3
f 1099/3/3 1084/3/3 1083/3/3
f 1100/3/3 1084/3/3 1099/3/3
f 1101/3/3 1086/3/3 1085/3/3
f 1102/3/3 1086/3/3 1101/3/3
f 1103/3/3 1088/3/3 1087/3/3
f 1104/3/3 1088/3/3 1103/3/3
f 1105/5/4 1106/5/4 1107/5/4
f 1107/5/4 1106/5/4 1108/5/4
f 1108/5/4 1106/5/4 1109/5/4
f 1109/5/4 1106/5/4 1110/5/4
f 1110/5/4 1106/5/4 1112/5/4
f 1111/5/4 1112/5/4 1114/5/4
f 1113/5/4 1114/5/4 1116/5/4
f 1115/5/4 1116/5/4 1117/5/4
f 1112/5/4 1106/5/4 1118/5/4
f 1117/5/4 1116/5/4 1118/5/4
f 1114/5/4 1112/5/4 1118/5/4
f 1116/5/4 1114/5/4 1118/5/4
f 1117/3/4 1118/3/4 1119/3/4
f 1119/3/4 1118/3/4 1120/3/4
f 1119/5/4 1120/5/4 1121/5/4
f 1121/5/4 1120/5/4 1122/5/4
f 1122/5/4 1120/5/4 1123/5/4
f 1123/5/4 1120/5/4 1124/5/4
f 1124/5/4 1120/5/4 1125/5/4
f 1125/5/4 1120/5/4 1126/5/4
f 1126/5/4 1120/5/4 1127/5/4
f 1127/5/4 1120/5/4 1128/5/4
f 1128/5/4 1120/5/4 1130/5/4
f 1129/5/4 1130/5/4 1132/5/4
f 1131/5/4 1132/5/4 1134/5/4
f 1133/5/4 1134/5/4 1136/5/4
f 1135/5/4 1136/5/4 1138/5/4
f 1137/5/4 1138/5/4 1139/5/4
f 1130/5/4 1120/5/4 1140/5/4
f 1139/5/4 1138/5/4 1140/5/4
f 1132/5/4 1130/5/4 1140/5/4
f 1138/5/4 1136/5/4 1140/5/4
f 1134/5/4 1132/5/4 1140/5/4
f 1136/5/4 1134/5/4 1140/5/4
f 1139/3/4 1140/3/4 1141/3/4
f 1141/3/4 1140/3/4 1142/3/4
f 1141/5/4 1142/5/4 1143/5/4
f 1143/5/4 1142/5/4 1144/5/4
f 1144/5/4 1142/5/4 1145/5/4
f 1145/5/4 1142/5/4 1146/5/4
f 1146/5/4 1142/5/4 1147/5/4
f 1147/5/4 1142/5/4 1148/5/4
f 1148/5/4 1142/5/4 1149/5/4
f 1149/5/4 1142/5/4 1150/5/4
f 1151/5/4 1152/5/4 1154/5/4
f 1153/5/4 1154/5/4 1156/5/4
f 1155/5/4 1156/5/4 1157/5/4
f 1154/5/4 1152/5/4 1158/5/4
f 1157/5/4 1156/5/4 1158/5/4
f 1156/5/4 1154/5/4 1158/5/4
f 1159/3/4 1160/3/4 1175/3/4
f 1175/3/4 1160/3/4 1176/3/4
f 1161/3/4 1162/3/4 1177/3/4
f 1177/3/4 1162/3/4 1178/3/4
f 1163/3/4 1164/3/4 1179/3/4
f 1179/3/4 1164/3/4 1180/3/4
f 1165/3/4 1166/3/4 1181/3/4
f 1181/3/4 1166/3/4 1182/3/4
f 1167/3/4 1168/3/4 1183/3/4
f 1183/3/4 1168/3/4 1184/3/4
f 1169/3/4 1170/3/4 1185/3/4
f 1185/3/4 1170/3/4 1186/3/4
f 1171/3/4 1172/3/4 1187/3/4
f 1187/3/4 1172/3/4 1188/3/4
f 1173/3/4 1174/3/4 1189/3/4
f 1189/3/4 1174/3/4 1190/3/4
f 1191/3/4 1192/3/4 1193/3/4
f 1193/3/4 1192/3/4 1194/3/4
f 1197/3/5 1196/3/5 1195/3/5
f 1198/3/5 1196/3/5 1197/3/5
f 1217/3/5 1200/3/5 1199/3/5
f 1218/3/5 1200/3/5 1217/3/5
f 1219/3/5 1202/3/5 1201/3/5
f 1220/3/5 1202/3/5 1219/3/5
f 1221/3/5 1204/3/5 1203/3/5
f 1222/3/5 1204/3/5 1221/3/5
f 1223/3/5 1206/3/5 1205/3/5
f 1224/3/5 1206/3/5 1223/3/5
f 1225/3/5 1208/3/5 1207/3/5
f 1226/3/5 1208/3/5 1225/3/5
f 1227/3/5 1210/3/5 1209/3/5
f 1228/3/5 1210/3/5 1227/3/5
f 1229/3/5 1212/3/5 1211/3/5
f 1230/3/5 1212/3/5 1229/3/5
f 1231/3/5 1214/3/5 1213/3/5
f 1232/3/5 1214/3/5 1231/3/5
f 1233/3/5 1216/3/5 1215/3/5
f 1234/3/5 1216/3/5 1233/3/5
f 1237/3/5 1236/3/5 1235/3/5
f 1238/3/5 1236/3/5 1237/3/5
f 1241/5/5 1240/5/5 1239/5/5
f 1242/5/5 1240/5/5 1241/5/5
f 1247/5/5 1244/5/5 1243/5/5
f 1248/5/5 1244/5/5 1247/5/5
f 1249/5/5 1246/5/5 1245/5/5
f 1250/5/5 1246/5/5 1249/5/5
f 1253/5/5 1252/5/5 1251/5/5
f 1254/5/5 1252/5/5 1253/5/5
f 1257/5/5 1256/5/5 1255/5/5
f 1258/5/5 1256/5/5 1257/5/5
f 1263/5/5 1260/5/5 1259/5/5
f 1264/5/5 1260/5/5 1263/5/5
f 1265/5/5 1262/5/5 1261/5/5
f 1266/5/5 1262/5/5 1265/5/5
f 1273/5/5 1268/5/5 1267/5/5
f 1274/5/5 1268/5/5 1273/5/5
f 1275/5/5 1270/5/5 1269/5/5
f 1276/5/5 1270/5/5 1275/5/5
f 1277/5/5 1272/5/5 1271/5/5
f 1278/5/5 1272/5/5 1277/5/5
f 1283/5/5 1280/5/5 1279/5/5
f 1284/5/5 1280/5/5 1283/5/5
f 1285/5/5 1282/5/5 1281/5/5
f 1286/5/5 1282/5/5 1285/5/5
f 1293/5/5 1288/5/5 1287/5/5
f 1294/5/5 1288/5/5 1293/5/5
f 1295/5/5 1290/5/5 1289/5/5
f 1296/5/5 1290/5/5 1295/5/5
f 1297/5/5 1292/5/5 1291/5/5
f 1298/5/5 1292/5/5 1297/5/5
f 1303/5/5 1300/5/5 1299/5/5
f 1304/5/5 1300/5/5 1303/5/5
f 1305/5/5 1302/5/5 1301/5/5
f 1306/5/5 1302/5/5 1305/5/5
f 1311/5/5 1308/5/5 1307/5/5
f 1312/5/5 1308/5/5 1311/5/5
f 1313/5/5 1310/5/5 1309/5/5
f 1314/5/5 1310/5/5 1313/5/5
f 1321/3/5 1316/3/5 1315/3/5
f 1322/3/5 1316/3/5 1321/3/5
f 1323/3/5 1318/3/5 1317/3/5
f 1324/3/5 1318/3/5 1323/3/5
f 1325/3/5 1320/3/5 1319/3/5
f 1326/3/5 1320/3/5 1325/3/5
f 1329/3/5 1328/3/5 1327/3/5
f 1330/3/5 1328/3/5 1329/3/5
f 1337/3/5 1332/3/5 1331/3/5
f 1338/3/5 1332/3/5 1337/3/5
f 1339/3/5 1334/3/5 1333/3/5
f 1340/3/5 1334/3/5 1339/3/5
f 1341/3/5 1336/3/5 1335/3/5
f 1342/3/5 1336/3/5 1341/3/5
f 1343/3/5 1336/3/5 1342/3/5
f 1344/3/5 1336/3/5 1343/3/5
f 1347/3/5 1346/3/5 1345/3/5
f 1348/3/5 1346/3/5 1347/3/5
f 1353/5/5 1350/5/5 1349/5/5
f 1354/5/5 1350/5/5 1353/5/5
f 1355/5/5 1352/5/5 1351/5/5
f 1356/5/5 1352/5/5 1355/5/5
f 1361/5/5 1358/5/5 1357/5/5
f 1362/5/5 1358/5/5 1361/5/5
f 1363/5/5 1360/5/5 1359/5/5
f 1364/5/5 1360/5/5 1363/5/5
f 1369/5/5 1366/5/5 1365/5/5
f 1370/5/5 1366/5/5 1369/5/5
f 1371/5/5 1368/5/5 1367/5/5
f 1372/5/5 1368/5/5 1371/5/5
f 1379/3/5 1374/3/5 1373/3/5
f 1380/3/5 1374/3/5 1379/3/5
f 1381/3/5 1376/3/5 1375/3/5
f 1382/3/5 1376/3/5 1381/3/5
f 1383/3/5 1378/3/5 1377/3/5
f 1384/3/5 1378/3/5 1383/3/5
f 1385/3/5 1378/3/5 1384/3/5
f 1386/3/5 1378/3/5 1385/3/5
f 1389/3/5 1388/3/5 1387/3/5
f 1390/3/5 1388/3/5 1389/3/5
f 1395/5/5 1392/5/5 1391/5/5
f 1396/5/5 1392/5/5 1395/5/5
f 1397/5/5 1394/5/5 1393/5/5
f 1398/5/5 1394/5/5 1397/5/5
f 1401/5/5 1400/5/5 1399/5/5
f 1402/5/5 1400/5/5 1401/5/5
f 1405/5/5 1404/5/5 1403/5/5
f 1406/5/5 1404/5/5 1405/5/5
f 1409/5/5 1408/5/5 1407/5/5
f 1410/5/5 1408/5/5 1409/5/5
f 1417/5/5 1412/5/5 1411/5/5
f 1418/5/5 1412/5/5 1417/5/5
f 1419/5/5 1414/5/5 1413/5/5
f 1420/5/5 1414/5/5 1419/5/5
f 1421/5/5 1416/5/5 1415/5/5
f 1422/5/5 1416/5/5 1421/5/5
f 1429/3/5 1424/3/5 1423/3/5
f 1430/3/5 1424/3/5 1429/3/5
f 1431/3/5 1424/3/5 1430/3/5
f 1432/3/5 1424/3/5 1431/3/5
f 1433/3/5 1424/3/5 1432/3/5
f 1434/3/5 1426/3/5 1425/3/5
f 1435/3/5 1426/3/5 1434/3/5
f 1436/3/5 1428/3/5 1427/3/5
f 1437/3/5 1428/3/5 1436/3/5
f 1440/3/5 1439/3/5 1438/3/5
f 1441/3/5 1439/3/5 1440/3/5
f 1448/3/5 1443/3/5 1442/3/5
f 1449/3/5 1443/3/5 1448/3/5
f 1450/3/5 1443/3/5 1449/3/5
f 1451/3/5 1445/3/5 1444/3/5
f 1452/3/5 1445/3/5 1451/3/5
f 1453/3/5 1447/3/5 1446/3/5
f 1454/3/5 1447/3/5 1453/3/5
f 1455/3/5 1447/3/5 1454/3/5
f 1456/3/5 1447/3/5 1455/3/5
f 1459/3/5 1458/3/5 1457/3/5
f 1460/3/5 1458/3/5 1459/3/5
f 1467/3/5 1462/3/5 1461/3/5
f 1468/3/5 1462/3/5 1467/3/5
f 1469/3/5 1464/3/5 1463/3/5
f 1470/3/5 1464/3/5 1469/3/5
f 1471/3/5 1466/3/5 1465/3/5
f 1472/3/5 1466/3/5 1471/3/5
f 1475/3/5 1474/3/5 1473/3/5
f 1476/3/5 1474/3/5 1475/3/5
f 1479/5/5 1478/5/5 1477/5/5
f 1480/5/5 1478/5/5 1479/5/5
f 1487/5/5 1482/5/5 1481/5/5
f 1488/5/5 1482/5/5 1487/5/5
f 1489/5/5 1484/5/5 1483/5/5
f 1490/5/5 1484/5/5 1489/5/5
f 1491/5/5 1486/5/5 1485/5/5
f 1492/5/5 1486/5/5 1491/5/5
f 1503/5/5 1494/5/5 1493/5/5
f 1504/5/5 1494/5/5 1503/5/5
f 1505/5/5 1496/5/5 1495/5/5
f 1506/5/5 1496/5/5 1505/5/5
f 1507/5/5 1498/5/5 1497/5/5
f 1508/5/5 1498/5/5 1507/5/5
f 1509/5/5 1500/5/5 1499/5/5
f 1510/5/5 1500/5/5 1509/5/5
f 1511/5/5 1502/5/5 1501/5/5
f 1512/5/5 1502/5/5 1511/5/5
f 1523/5/5 1514/5/5 1513/5/5
f 1524/5/5 1514/5/5 1523/5/5
f 1525/5/5 1516/5/5 1515/5/5
f 1526/5/5 1516/5/5 1525/5/5
f 1527/5/5 1518/5/5 1517/5/5
f 1528/5/5 1518/5/5 1527/5/5
f 1529/5/5 1520/5/5 1519/5/5
f 1530/5/5 1520/5/5 1529/5/5
f 1531/5/5 1522/5/5 1521/5/5
f 1532/5/5 1522/5/5 1531/5/5
f 1539/5/5 1534/5/5 1533/5/5
f 1540/5/5 1534/5/5 1539/5/5
f 1541/5/5 1536/5/5 1535/5/5
f 1542/5/5 1536/5/5 1541/5/5
f 1543/5/5 1538/5/5 1537/5/5
f 1544/5/5 1538/5/5 1543/5/5
f 1552/3/5 1546/3/5 1545/3/5
f 1553/3/5 1546/3/5 1552/3/5
f 1555/3/5 1551/3/5 1550/3/5
f 1555/3/5 1554/3/5 1553/3/5
f 1555/3/5 1553/3/5 1552/3/5
f 1555/3/5 1552/3/5 1551/3/5
f 1555/3/5 1548/3/5 1547/3/5
f 1555/3/5 1550/3/5 1549/3/5
f 1555/3/5 1549/3/5 1548/3/5
f 1556/3/5 1554/3/5 1555/3/5
f 1559/3/5 1558/3/5 1557/3/5
f 1560/3/5 1558/3/5 1559/3/5
f 1561/3/6 1562/3/6 1579/3/6
f 1579/3/6 1562/3/6 1580/3/6
f 1563/3/6 1564/3/6 1581/3/6
f 1581/3/6 1564/3/6 1582/3/6
f 1565/3/6 1566/3/6 1583/3/6
f 1583/3/6 1566/3/6 1584/3/6
f 1567/3/6 1568/3/6 1585/3/6
f 1585/3/6 1568/3/6 1586/3/6
f 1569/3/6 1570/3/6 1587/3/6
f 1587/3/6 1570/3/6 1588/3/6
f 1571/3/6 1572/3/6 1589/3/6
f 1589/3/6 1572/3/6 1590/3/6
f 1573/3/6 1574/3/6 1591/3/6
f 1591/3/6 1574/3/6 1592/3/6
f 1575/3/6 1576/3/6 1593/3/6
f 1593/3/6 1576/3/6 1594/3/6
f 1577/3/6 1578/3/6 1595/3/6
f 1595/3/6 1578/3/6 1596/3/6
f 1597/3/6 1598/3/6 1599/3/6
f 1599/3/6 1598/3/6 1600/3/6
f 1601/3/6 1602/3/6 1607/3/6
f 1607/3/6 1602/3/6 1608/3/6
f 1608/3/6 1602/3/6 1609/3/6
f 1609/3/6 1602/3/6 1610/3/6
f 1610/3/6 1602/3/6 1611/3/6
f 1603/3/6 1604/3/6 1612/3/6
f 1612/3/6 1604/3/6 1613/3/6
f 1605/3/6 1606/3/6 1614/3/6
f 1614/3/6 1606/3/6 1615/3/6
f 1615/3/6 1606/3/6 1616/3/6
f 1616/3/6 1606/3/6 1617/3/6
f 1618/3/6 1619/3/6 1620/3/6
f 1620/3/6 1619/3/6 1621/3/6
f 1622/5/6 1623/5/6 1626/5/6
f 1626/5/6 1623/5/6 1627/5/6
f 1624/5/6 1625/5/6 1628/5/6
f 1628/5/6 1625/5/6 1629/5/6
f 1630/5/6 1631/5/6 1632/5/6
f 1632/5/6 1631/5/6 1633/5/6
f 1634/5/6 1635/5/6 1638/5/6
f 1638/5/6 1635/5/6 1639/5/6
f 1636/5/6 1637/5/6 1640/5/6
f 1640/5/6 1637/5/6 1641/5/6
f 1642/3/6 1643/3/6 1648/3/6
f 1648/3/6 1643/3/6 1649/3/6
f 1644/3/6 1645/3/6 1650/3/6
f 1650/3/6 1645/3/6 1651/3/6
f 1646/3/6 1647/3/6 1652/3/6
f 1652/3/6 1647/3/6 1653/3/6
f 1653/3/6 1647/3/6 1654/3/6
f 1654/3/6 1647/3/6 1655/3/6
f 1656/3/6 1657/3/6 1658/3/6
f 1658/3/6 1657/3/6 1659/3/6
f 1660/3/6 1661/3/6 1666/3/6
f 1666/3/6 1661/3/6 1667/3/6
f 1667/3/6 1661/3/6 1668/3/6
f 1668/3/6 1661/3/6 1669/3/6
f 1669/3/6 1661/3/6 1670/3/6
f 1662/3/6 1663/3/6 1671/3/6
f 1671/3/6 1663/3/6 1672/3/6
f 1664/3/6 1665/3/6 1673/3/6
f 1673/3/6 1665/3/6 1674/3/6
f 1674/3/6 1665/3/6 1675/3/6
f 1675/3/6 1665/3/6 1676/3/6
f 1677/3/6 1678/3/6 1679/3/6
f 1679/3/6 1678/3/6 1680/3/6
f 1681/3/6 1682/3/6 1687/3/6
f 1687/3/6 1682/3/6 1688/3/6
f 1688/3/6 1682/3/6 1689/3/6
f 1689/3/6 1682/3/6 1690/3/6
f 1690/3/6 1682/3/6 1691/3/6
f 1683/3/6 1684/3/6 1692/3/6
f 1692/3/6 1684/3/6 1693/3/6
f 1693/3/6 1684/3/6 1694/3/6
f 1694/3/6 1684/3/6 1695/3/6
f 1685/3/6 1686/3/6 1696/3/6
f 1696/3/6 1686/3/6 1697/3/6
f 1698/3/6 1699/3/6 1700/3/6
f 1700/3/6 1699/3/6 1701/3/6
f 1702/3/6 1703/3/6 1708/3/6
f 1708/3/6 1703/3/6 1709/3/6
f 1709/3/6 1703/3/6 1710/3/6
f 1704/3/6 1705/3/6 1711/3/6
f 1711/3/6 1705/3/6 1712/3/6
f 1706/3/6 1707/3/6 1713/3/6
f 1713/3/6 1707/3/6 1714/3/6
f 1714/3/6 1707/3/6 1715/3/6
f 1715/3/6 1707/3/6 1716/3/6
f 1717/3/6 1718/3/6 1719/3/6
f 1719/3/6 1718/3/6 1720/3/6
f 1721/3/6 1722/3/6 1727/3/6
f 1727/3/6 1722/3/6 1728/3/6
f 1723/3/6 1724/3/6 1729/3/6
f 1729/3/6 1724/3/6 1730/3/6
f 1725/3/6 1726/3/6 1731/3/6
f 1731/3/6 1726/3/6 1732/3/6
f 1733/3/6 1734/3/6 1735/3/6
f 1735/3/6 1734/3/6 1736/3/6
f 1737/3/6 1738/3/6 1744/3/6
f 1744/3/6 1738/3/6 1745/3/6
f 1739/3/6 1740/3/6 1748/3/6
f 1748/3/6 1740/3/6 1749/3/6
f 1741/3/6 1742/3/6 1752/3/6
f 1752/3/6 1742/3/6 1753/3/6
f 1750/3/6 1751/3/6 1755/3/6
f 1753/3/6 1754/3/6 1755/3/6
f 1752/3/6 1753/3/6 1755/3/6
f 1751/3/6 1752/3/6 1755/3/6
f 1746/3/6 1747/3/6 1755/3/6
f 1749/3/6 1750/3/6 1755/3/6
f 1748/3/6 1749/3/6 1755/3/6
f 1747/3/6 1748/3/6 1755/3/6
f 1743/3/6 1744/3/6 1755/3/6
f 1745/3/6 1746/3/6 1755/3/6
f 1744/3/6 1745/3/6 1755/3/6
f 1755/3/6 1754/3/6 1756/3/6
f 1756/3/6 1754/3/6 1757/3/6
f 1757/3/6 1754/3/6 1758/3/6
f 1758/3/6 1754/3/6 1759/3/6
f 1759/3/6 1754/3/6 1760/3/6
f 1761/3/6 1762/3/6 1763/3/6
f 1763/3/6 1762/3/6 1764/3/6
f 1765/3/6 1766/3/6 1767/3/6
f 1767/3/6 1766/3/6 1768/3/6
