# MagicaVoxel @ Ephtracy

# group
o 

# material
mtllib Car2.mtl
usemtl palette

# normals
vn -1 0 0
vn 1 0 0
vn 0 0 1
vn 0 0 -1
vn 0 -1 0
vn 0 1 0

# texcoords
vt 0.908203 0.5
vt 0.912109 0.5
vt 0.916016 0.5
vt 0.923828 0.5
vt 0.947266 0.5
vt 0.962891 0.5
vt 0.982422 0.5

# verts
v -2.9 1.2 2.5
v -2.9 1.2 0.9
v -2.9 1.2 0
v -2.9 1.5 0.9
v -2.9 1.5 0
v -2.9 1.9 1.7
v -2.9 1.9 0
v -2.9 2.1 2.5
v -2.9 2.1 2.1
v -2.9 2.1 1.7
v -2.9 2.1 1.5
v -2.9 2.1 0.0999999
v -2.9 2.1 0
v -2.9 2.2 1.5
v -2.9 2.2 0.0999999
v -2.9 2.4 2.5
v -2.9 2.4 2.1
v -2.9 2.4 0.0999999
v -2.7 1.2 0
v -2.7 1.2 -0.0999999
v -2.7 1.3 0
v -2.7 1.3 -0.0999999
v -2.7 2.3 0.0999999
v -2.7 2.3 0
v -2.7 2.4 0.0999999
v -2.7 2.4 0
v -2.5 1.2 -0.0999999
v -2.5 1.2 -0.3
v -2.5 1.3 -0.0999999
v -2.5 1.3 -0.3
v -2.5 2.3 0
v -2.5 2.3 -0.0999999
v -2.5 2.4 0
v -2.5 2.4 -0.0999999
v -2.4 1.2 -0.3
v -2.4 1.2 -0.8
v -2.4 1.3 -0.3
v -2.4 1.3 -0.8
v -2.4 2.3 -0.0999999
v -2.4 2.3 -0.3
v -2.4 2.4 -0.0999999
v -2.4 2.4 -0.3
v -2.3 1.2 -0.8
v -2.3 1.2 -0.9
v -2.3 1.3 -0.8
v -2.3 1.3 -0.9
v -2.3 2.3 -0.3
v -2.3 2.3 -0.9
v -2.3 2.4 -0.3
v -2.3 2.4 -0.9
v -2 2.3 -0.9
v -2 2.3 -1
v -2 2.4 -0.9
v -2 2.4 -1
v -1.8 1 2.6
v -1.8 1 2.5
v -1.8 1.2 2.5
v -1.8 1.5 2.6
v -1.8 1.5 2.5
v -1.8 2.3 -1
v -1.8 2.3 -1.2
v -1.8 2.4 -1
v -1.8 2.4 -1.2
v -1.7 0.8 2.6
v -1.7 0.8 2.5
v -1.7 1 2.6
v -1.7 1 2.5
v -1.7 1.5 2.6
v -1.7 1.5 2.5
v -1.7 1.7 2.6
v -1.7 1.7 2.5
v -1.7 2.4 2.5
v -1.7 2.4 2.3
v -1.7 2.4 -0.2
v -1.7 2.4 -0.3
v -1.7 2.4 -1.2
v -1.7 2.5 2.1
v -1.7 2.5 2
v -1.7 2.5 0.8
v -1.7 2.5 0.7
v -1.7 2.5 0.3
v -1.7 2.5 0.2
v -1.7 2.6 2.1
v -1.7 2.6 2
v -1.7 2.6 1.8
v -1.7 2.6 0.8
v -1.7 2.6 0.7
v -1.7 2.6 0.6
v -1.7 2.6 -1.2
v -1.7 2.6 -1.3
v -1.7 2.7 2
v -1.7 2.7 1.8
v -1.7 2.7 1.7
v -1.7 2.7 0.7
v -1.7 2.7 0.6
v -1.7 2.7 0.5
v -1.7 2.7 0.3
v -1.7 2.7 0.2
v -1.7 2.7 0.0999999
v -1.7 2.7 -0.5
v -1.7 2.7 -0.6
v -1.7 2.8 1.8
v -1.7 2.8 1.7
v -1.7 2.8 1.5
v -1.7 2.8 0.6
v -1.7 2.8 0.5
v -1.7 2.8 0.2
v -1.7 2.8 0.0999999
v -1.7 2.8 -1.3
v -1.7 2.8 -1.4
v -1.7 2.9 1.7
v -1.7 2.9 1.5
v -1.7 2.9 1.3
v -1.7 2.9 -0.6
v -1.7 2.9 -0.7
v -1.7 2.9 -1.4
v -1.7 2.9 -1.6
v -1.7 3 1.5
v -1.7 3 1.3
v -1.7 3 1.2
v -1.7 3 -0.0999999
v -1.7 3 -0.2
v -1.7 3 -0.3
v -1.7 3 -0.5
v -1.7 3 -0.6
v -1.7 3.1 1.3
v -1.7 3.1 1.2
v -1.7 3.1 1
v -1.7 3.1 0
v -1.7 3.1 -0.0999999
v -1.7 3.1 -0.2
v -1.7 3.2 1.2
v -1.7 3.2 1
v -1.7 3.2 0.9
v -1.7 3.2 -0.6
v -1.7 3.2 -0.7
v -1.7 3.2 -0.8
v -1.7 3.2 -1.6
v -1.7 3.2 -1.7
v -1.7 3.3 1
v -1.7 3.3 0.9
v -1.7 3.3 0.7
v -1.7 3.3 0
v -1.7 3.3 -0.0999999
v -1.7 3.3 -0.7
v -1.7 3.3 -0.8
v -1.7 3.3 -1.3
v -1.7 3.3 -1.4
v -1.7 3.4 2.5
v -1.7 3.4 2.3
v -1.7 3.4 1.9
v -1.7 3.4 1.8
v -1.7 3.4 0.9
v -1.7 3.4 0.7
v -1.7 3.4 0.6
v -1.7 3.4 -1.1
v -1.7 3.4 -1.3
v -1.7 3.4 -1.4
v -1.7 3.5 2.3
v -1.7 3.5 2.1
v -1.7 3.5 1.9
v -1.7 3.5 1.8
v -1.7 3.5 1.6
v -1.7 3.5 0.7
v -1.7 3.5 0.6
v -1.7 3.5 -0.9
v -1.7 3.5 -1.1
v -1.7 3.5 -1.3
v -1.7 3.6 1.8
v -1.7 3.6 1.6
v -1.7 3.6 1.5
v -1.7 3.6 -0.9
v -1.7 3.6 -1.1
v -1.7 3.7 2.1
v -1.7 3.7 2
v -1.7 3.7 1.6
v -1.7 3.7 1.5
v -1.7 3.7 0.4
v -1.7 3.7 0.3
v -1.7 3.7 -1.5
v -1.7 3.7 -1.7
v -1.7 3.8 0.5
v -1.7 3.8 0.4
v -1.7 3.8 0.3
v -1.7 3.8 -1.4
v -1.7 3.8 -1.5
v -1.7 3.9 2
v -1.7 3.9 0.5
v -1.7 3.9 0.4
v -1.7 3.9 -1.4
v -1.7 4 -1.3
v -1.7 4 -1.4
v -1.7 4.1 2
v -1.7 4.1 -1.3
v -1.6 0.7 2.6
v -1.6 0.7 2.5
v -1.6 0.8 2.6
v -1.6 0.8 2.5
v -1.6 1.7 2.6
v -1.6 1.7 2.5
v -1.6 1.8 2.6
v -1.6 1.8 2.5
v -1.5 2.4 1.8
v -1.5 2.4 1.7
v -1.5 2.5 1.8
v -1.5 2.5 1.7
v -1.5 3.4 2.5
v -1.5 3.4 2.4
v -1.5 3.5 2.5
v -1.5 3.5 2.4
v -1.5 4 2.1
v -1.5 4 2
v -1.5 4.1 2.1
v -1.5 4.1 2
v -1.4 0.6 2.6
v -1.4 0.6 2.5
v -1.4 0.7 2.6
v -1.4 0.7 2.5
v -1.4 1.8 2.6
v -1.4 1.8 2.5
v -1.4 1.9 2.6
v -1.4 1.9 2.5
v -1.4 2.4 1.9
v -1.4 2.4 1.8
v -1.4 2.4 1.7
v -1.4 2.4 1.6
v -1.4 2.5 1.8
v -1.4 2.5 1.7
v -1.4 2.6 1.9
v -1.4 2.6 1.8
v -1.4 2.6 1.7
v -1.4 2.6 1.6
v -1.4 4 2.2
v -1.4 4 2.1
v -1.4 4.1 2.2
v -1.4 4.1 2.1
v -1.3 4 2.3
v -1.3 4 2.2
v -1.3 4.1 2.3
v -1.3 4.1 2.2
v -1.2 4 2.5
v -1.2 4 2.3
v -1.2 4.1 2.5
v -1.2 4.1 2.3
v -0.5 1.3 2.2
v -0.5 1.3 1.3
v -0.5 1.5 2.2
v -0.5 1.5 1.3
v -0.0999999 3.1 2.5
v -0.0999999 3.1 2.4
v -0.0999999 3.2 2.5
v -0.0999999 3.2 2.4
v 0 3.2 2.5
v 0 3.2 2.4
v 0 3.4 2.5
v 0 3.4 2.4
v 0.1 3.4 2.5
v 0.1 3.4 2.4
v 0.1 3.5 2.5
v 0.1 3.5 2.4
v 0.2 3 2.5
v 0.2 3 2.4
v 0.2 3.1 2.5
v 0.2 3.1 2.4
v 0.2 3.5 2.5
v 0.2 3.5 2.4
v 0.2 3.6 2.5
v 0.2 3.6 2.4
v 0.3 2.5 2.5
v 0.3 2.5 2.4
v 0.3 3 2.5
v 0.3 3 2.4
v 0.3 3.6 2.5
v 0.3 3.6 2.4
v 0.3 4 2.5
v 0.3 4 2.4
v 0.4 1.5 2.2
v 0.4 1.5 1.3
v 0.4 2.4 2.2
v 0.4 2.4 1.3
v 0.4 4 0
v 0.4 4 -0.0999999
v 0.4 4.1 0
v 0.4 4.1 -0.0999999
v 0.8 1.2 0.4
v 0.8 1.2 0.3
v 0.8 1.3 0.4
v 0.8 1.3 0.3
v 1 1.2 0.3
v 1 1.2 0.0999999
v 1 1.3 0.3
v 1 1.3 0.0999999
v 1.1 1 2.6
v 1.1 1 2.5
v 1.1 1.2 2.5
v 1.1 1.5 2.6
v 1.1 1.5 2.5
v 1.2 0.8 2.6
v 1.2 0.8 2.5
v 1.2 1 2.6
v 1.2 1 2.5
v 1.2 1.5 2.6
v 1.2 1.5 2.5
v 1.2 1.7 2.6
v 1.2 1.7 2.5
v 1.3 0.7 2.6
v 1.3 0.7 2.5
v 1.3 0.8 2.6
v 1.3 0.8 2.5
v 1.3 1.7 2.6
v 1.3 1.7 2.5
v 1.3 1.8 2.6
v 1.3 1.8 2.5
v 1.4 1.3 2.2
v 1.4 1.3 0.9
v 1.4 1.5 2.2
v 1.4 1.5 1.3
v 1.4 2 1.3
v 1.4 2 0.9
v 1.4 4 0.2
v 1.4 4 0.0999999
v 1.4 4.1 0.2
v 1.4 4.1 0.0999999
v 1.5 0.6 2.6
v 1.5 0.6 2.5
v 1.5 0.7 2.6
v 1.5 0.7 2.5
v 1.5 1.8 2.6
v 1.5 1.8 2.5
v 1.5 1.9 2.6
v 1.5 1.9 2.5
v 1.6 2.7 2.5
v 1.6 2.7 2.4
v 1.6 2.9 2.5
v 1.6 2.9 2.4
v 1.6 4 0.0999999
v 1.6 4 0
v 1.6 4.1 0.0999999
v 1.6 4.1 0
v 1.7 4 0
v 1.7 4 -0.0999999
v 1.7 4.1 0
v 1.7 4.1 -0.0999999
v 1.8 2.5 2.5
v 1.8 2.5 2.4
v 1.8 2.6 2.5
v 1.8 2.6 2.4
v 1.8 4 -0.0999999
v 1.8 4 -0.3
v 1.8 4.1 -0.0999999
v 1.8 4.1 -0.3
v 1.9 4 -0.3
v 1.9 4 -0.9
v 1.9 4.1 -0.3
v 1.9 4.1 -0.9
v 2 2.6 2.5
v 2 2.6 2.4
v 2 2.7 2.5
v 2 2.7 2.4
v 2.1 1.2 0.2
v 2.1 1.2 0.0999999
v 2.1 1.3 0.2
v 2.1 1.3 0.0999999
v 2.1 3.7 2.5
v 2.1 3.7 2.4
v 2.1 3.8 2.5
v 2.1 3.8 2.4
v 2.1 4 2.5
v 2.1 4 2.4
v 2.2 3.4 2.5
v 2.2 3.4 2.4
v 2.2 3.5 2.5
v 2.2 3.5 2.4
v 2.3 2.5 2.5
v 2.3 2.5 2.4
v 2.3 2.7 2.5
v 2.3 2.7 2.4
v 2.3 3.3 2.5
v 2.3 3.3 2.4
v 2.3 3.4 2.5
v 2.3 3.4 2.4
v 2.3 3.6 2.5
v 2.3 3.6 2.4
v 2.3 3.7 2.5
v 2.3 3.7 2.4
v 2.4 2.7 2.5
v 2.4 2.7 2.4
v 2.4 2.7 -0.9
v 2.4 3.3 2.5
v 2.4 3.3 2.4
v 2.4 3.4 2.4
v 2.4 3.5 2.5
v 2.4 3.5 2.4
v 2.4 3.5 -0.9
v 2.4 3.5 -1
v 2.4 3.6 2.5
v 2.4 3.6 2.4
v 2.4 3.7 2.5
v 2.4 3.7 2.4
v 2.4 3.9 2.5
v 2.4 3.9 2.4
v 2.4 3.9 -0.9
v 2.4 3.9 -1
v 2.4 4 2.4
v 2.4 4 -0.9
v 2.6 2.7 -0.9
v 2.6 2.7 -1
v 2.6 2.8 -0.9
v 2.6 2.8 -1
v 2.7 2.7 -1
v 2.7 2.7 -1.1
v 2.7 2.8 -1
v 2.7 2.8 -1.1
v 3.1 1.3 2.4
v 3.1 1.3 0.0999999
v 3.1 1.5 0.0999999
v 3.1 1.5 0
v 3.1 1.7 0
v 3.1 1.7 -0.2
v 3.1 1.7 -0.6
v 3.1 1.7 -0.8
v 3.1 1.8 -0.2
v 3.1 1.8 -0.6
v 3.1 1.9 -0.8
v 3.1 1.9 -1
v 3.1 2.3 -1
v 3.1 2.3 -1.1
v 3.1 2.6 -1
v 3.1 2.6 -1.1
v 3.1 2.7 2.4
v 3.1 2.7 -1
v 3.2 1.6 0
v 3.2 1.6 -0.0999999
v 3.2 1.7 0
v 3.2 1.7 -0.0999999
v 3.2 1.8 -0.8
v 3.2 1.8 -0.9
v 3.2 1.9 -0.8
v 3.2 1.9 -0.9
v -2.8 1.3 2.4
v -2.8 1.3 0.9
v -2.8 1.3 0
v -2.8 1.5 0.9
v -2.8 1.5 0
v -2.8 1.9 1.7
v -2.8 1.9 0
v -2.8 2.1 2.4
v -2.8 2.1 2.1
v -2.8 2.1 1.7
v -2.8 2.1 1.5
v -2.8 2.1 0.0999999
v -2.8 2.1 0
v -2.8 2.2 1.5
v -2.8 2.2 0.0999999
v -2.8 2.3 2.4
v -2.8 2.3 2.1
v -2.8 2.3 0.0999999
v -2.2 1.2 -0.8
v -2.2 1.2 -0.9
v -2.2 1.3 -0.8
v -2.2 1.3 -0.9
v -2 1.2 0
v -2 1.2 -0.4
v -2 1.3 0
v -2 1.3 -0.4
v -1.9 1.2 0.2
v -1.9 1.2 0
v -1.9 1.2 -0.4
v -1.9 1.2 -0.8
v -1.9 1.3 0.2
v -1.9 1.3 0
v -1.9 1.3 -0.4
v -1.9 1.3 -0.8
v -1.7 1.2 0.3
v -1.7 1.2 0.2
v -1.7 1.3 0.3
v -1.7 1.3 0.2
v -1.6 2.3 2.4
v -1.6 2.3 1.8
v -1.6 2.3 1.7
v -1.6 2.3 -1.2
v -1.6 2.4 2.3
v -1.6 2.4 1.8
v -1.6 2.4 1.7
v -1.6 2.4 -0.2
v -1.6 2.4 -0.3
v -1.6 2.4 -1.2
v -1.6 2.5 2.1
v -1.6 2.5 2
v -1.6 2.5 0.8
v -1.6 2.5 0.7
v -1.6 2.5 0.3
v -1.6 2.5 0.2
v -1.6 2.6 2.1
v -1.6 2.6 2
v -1.6 2.6 1.8
v -1.6 2.6 0.8
v -1.6 2.6 0.7
v -1.6 2.6 0.6
v -1.6 2.6 -1.2
v -1.6 2.6 -1.3
v -1.6 2.7 2
v -1.6 2.7 1.8
v -1.6 2.7 1.7
v -1.6 2.7 0.7
v -1.6 2.7 0.6
v -1.6 2.7 0.5
v -1.6 2.7 0.3
v -1.6 2.7 0.2
v -1.6 2.7 0.0999999
v -1.6 2.7 -0.5
v -1.6 2.7 -0.6
v -1.6 2.8 1.8
v -1.6 2.8 1.7
v -1.6 2.8 1.5
v -1.6 2.8 0.6
v -1.6 2.8 0.5
v -1.6 2.8 0.2
v -1.6 2.8 0.0999999
v -1.6 2.8 -1.3
v -1.6 2.8 -1.4
v -1.6 2.9 1.7
v -1.6 2.9 1.5
v -1.6 2.9 1.3
v -1.6 2.9 -0.6
v -1.6 2.9 -0.7
v -1.6 2.9 -1.4
v -1.6 2.9 -1.6
v -1.6 3 1.5
v -1.6 3 1.3
v -1.6 3 1.2
v -1.6 3 -0.0999999
v -1.6 3 -0.2
v -1.6 3 -0.3
v -1.6 3 -0.5
v -1.6 3 -0.6
v -1.6 3.1 1.3
v -1.6 3.1 1.2
v -1.6 3.1 1
v -1.6 3.1 0
v -1.6 3.1 -0.0999999
v -1.6 3.1 -0.2
v -1.6 3.2 1.2
v -1.6 3.2 1
v -1.6 3.2 0.9
v -1.6 3.2 -0.6
v -1.6 3.2 -0.7
v -1.6 3.2 -0.8
v -1.6 3.2 -1.6
v -1.6 3.2 -1.7
v -1.6 3.3 1
v -1.6 3.3 0.9
v -1.6 3.3 0.7
v -1.6 3.3 0
v -1.6 3.3 -0.0999999
v -1.6 3.3 -0.7
v -1.6 3.3 -0.8
v -1.6 3.3 -1.3
v -1.6 3.3 -1.4
v -1.6 3.4 2.4
v -1.6 3.4 2.3
v -1.6 3.4 1.9
v -1.6 3.4 1.8
v -1.6 3.4 0.9
v -1.6 3.4 0.7
v -1.6 3.4 0.6
v -1.6 3.4 -1.1
v -1.6 3.4 -1.3
v -1.6 3.4 -1.4
v -1.6 3.5 2.3
v -1.6 3.5 2.1
v -1.6 3.5 1.9
v -1.6 3.5 1.8
v -1.6 3.5 1.6
v -1.6 3.5 0.7
v -1.6 3.5 0.6
v -1.6 3.5 -0.9
v -1.6 3.5 -1.1
v -1.6 3.5 -1.3
v -1.6 3.6 1.8
v -1.6 3.6 1.6
v -1.6 3.6 1.5
v -1.6 3.6 -0.9
v -1.6 3.6 -1.1
v -1.6 3.7 2.1
v -1.6 3.7 2
v -1.6 3.7 1.6
v -1.6 3.7 1.5
v -1.6 3.7 0.4
v -1.6 3.7 0.3
v -1.6 3.7 -1.5
v -1.6 3.7 -1.7
v -1.6 3.8 0.5
v -1.6 3.8 0.4
v -1.6 3.8 0.3
v -1.6 3.8 -1.4
v -1.6 3.8 -1.5
v -1.6 3.9 2
v -1.6 3.9 0.5
v -1.6 3.9 0.4
v -1.6 3.9 -1.4
v -1.6 4 2
v -1.6 4 -1.2
v -1.6 4 -1.3
v -1.6 4 -1.4
v -1.6 4.1 -1.2
v -1.6 4.1 -1.3
v -1.5 2.3 1.8
v -1.5 2.3 1.7
v -1.5 2.4 1.8
v -1.5 2.4 1.7
v -1.4 4 -1.1
v -1.4 4 -1.2
v -1.4 4.1 -1.1
v -1.4 4.1 -1.2
v -1.3 2.4 1.9
v -1.3 2.4 1.6
v -1.3 2.5 1.8
v -1.3 2.5 1.7
v -1.3 2.6 1.9
v -1.3 2.6 1.8
v -1.3 2.6 1.7
v -1.3 2.6 1.6
v -1.3 2.9 2.5
v -1.3 2.9 2.4
v -1.3 3.5 2.5
v -1.3 3.5 2.4
v -1.2 2.7 2.5
v -1.2 2.7 2.4
v -1.2 2.8 2.5
v -1.2 2.8 2.4
v -1.2 2.9 2.5
v -1.2 2.9 2.4
v -1.1 2.6 2.5
v -1.1 2.6 2.4
v -1.1 2.7 2.5
v -1.1 2.7 2.4
v -1.1 4 -1
v -1.1 4 -1.1
v -1.1 4.1 -1
v -1.1 4.1 -1.1
v -1 2.5 2.5
v -1 2.5 2.4
v -1 2.6 2.5
v -1 2.6 2.4
v -1 4 -0.7
v -1 4 -1
v -1 4.1 -0.7
v -1 4.1 -1
v -0.9 0.6 2.6
v -0.9 0.6 2.5
v -0.9 0.7 2.6
v -0.9 0.7 2.5
v -0.9 1.8 2.6
v -0.9 1.8 2.5
v -0.9 1.9 2.6
v -0.9 1.9 2.5
v -0.9 4 -0.5
v -0.9 4 -0.7
v -0.9 4.1 -0.5
v -0.9 4.1 -0.7
v -0.8 4 -0.3
v -0.8 4 -0.5
v -0.8 4.1 -0.3
v -0.8 4.1 -0.5
v -0.7 0.7 2.6
v -0.7 0.7 2.5
v -0.7 0.8 2.6
v -0.7 0.8 2.5
v -0.7 1.7 2.6
v -0.7 1.7 2.5
v -0.7 1.8 2.6
v -0.7 1.8 2.5
v -0.7 4 -0.2
v -0.7 4 -0.3
v -0.7 4.1 -0.2
v -0.7 4.1 -0.3
v -0.6 0.8 2.6
v -0.6 0.8 2.5
v -0.6 1 2.6
v -0.6 1 2.5
v -0.6 1.5 2.6
v -0.6 1.5 2.5
v -0.6 1.7 2.6
v -0.6 1.7 2.5
v -0.6 4 -0.0999999
v -0.6 4 -0.2
v -0.6 4.1 -0.0999999
v -0.6 4.1 -0.2
v -0.5 1 2.6
v -0.5 1 2.5
v -0.5 1.2 2.5
v -0.5 1.5 2.6
v -0.5 1.5 2.5
v -0.4 4 0
v -0.4 4 -0.0999999
v -0.4 4.1 0
v -0.4 4.1 -0.0999999
v -0.3 1.2 0.4
v -0.3 1.2 0.3
v -0.3 1.3 0.4
v -0.3 1.3 0.3
v 0.6 1.3 2.2
v 0.6 1.3 1.3
v 0.6 2.4 2.2
v 0.6 2.4 1.3
v 0.6 4 0.0999999
v 0.6 4 -0.0999999
v 0.6 4.1 0.0999999
v 0.6 4.1 -0.0999999
v 0.8 4 0.2
v 0.8 4 0.0999999
v 0.8 4.1 0.2
v 0.8 4.1 0.0999999
v 1.2 1.2 0.2
v 1.2 1.2 0.0999999
v 1.2 1.3 0.2
v 1.2 1.3 0.0999999
v 1.5 2.7 2.5
v 1.5 2.7 2.4
v 1.5 3.6 2.5
v 1.5 3.6 2.4
v 1.6 3.6 2.5
v 1.6 3.6 2.4
v 1.6 3.7 2.5
v 1.6 3.7 2.4
v 1.7 2.5 2.5
v 1.7 2.5 2.4
v 1.7 2.7 2.5
v 1.7 2.7 2.4
v 1.7 2.9 2.5
v 1.7 2.9 2.4
v 1.7 3.7 2.5
v 1.7 3.7 2.4
v 1.7 3.9 2.5
v 1.7 3.9 2.4
v 1.9 3.9 2.5
v 1.9 3.9 2.4
v 1.9 4 2.5
v 1.9 4 2.4
v 2 0.6 2.6
v 2 0.6 2.5
v 2 0.7 2.6
v 2 0.7 2.5
v 2 1.8 2.6
v 2 1.8 2.5
v 2 1.9 2.6
v 2 1.9 2.5
v 2.2 0.7 2.6
v 2.2 0.7 2.5
v 2.2 0.8 2.6
v 2.2 0.8 2.5
v 2.2 1.7 2.6
v 2.2 1.7 2.5
v 2.2 1.8 2.6
v 2.2 1.8 2.5
v 2.2 2.5 2.5
v 2.2 2.5 2.4
v 2.2 2.7 2.5
v 2.2 2.7 2.4
v 2.2 3.7 2.5
v 2.2 3.7 2.4
v 2.2 3.8 2.5
v 2.2 3.8 2.4
v 2.2 3.9 2.5
v 2.2 3.9 2.4
v 2.3 0.8 2.6
v 2.3 0.8 2.5
v 2.3 1 2.6
v 2.3 1 2.5
v 2.3 1.5 2.6
v 2.3 1.5 2.5
v 2.3 1.7 2.6
v 2.3 1.7 2.5
v 2.4 1 2.6
v 2.4 1 2.5
v 2.4 1.2 2.5
v 2.4 1.5 2.6
v 2.4 1.5 2.5
v 2.5 1.3 2.2
v 2.5 1.3 0.9
v 2.5 1.5 2.2
v 2.5 1.5 1.3
v 2.5 2 1.3
v 2.5 2 0.9
v 2.5 2.8 2.5
v 2.5 2.8 2.4
v 2.5 2.8 -0.9
v 2.5 3.5 -0.9
v 2.5 3.5 -1
v 2.5 3.9 -0.9
v 2.5 3.9 -1
v 2.5 4.1 2.5
v 2.5 4.1 -0.9
v 3 2.7 -1
v 3 2.7 -1.1
v 3 2.8 -1
v 3 2.8 -1.1
v 3.3 1.2 2.5
v 3.3 1.2 0.0999999
v 3.3 1.5 2.1
v 3.3 1.5 0.0999999
v 3.3 1.5 0
v 3.3 1.6 2.4
v 3.3 1.6 2.1
v 3.3 1.6 0
v 3.3 1.6 -0.0999999
v 3.3 1.7 -0.0999999
v 3.3 1.7 -0.2
v 3.3 1.7 -0.6
v 3.3 1.7 -0.8
v 3.3 1.8 -0.2
v 3.3 1.8 -0.6
v 3.3 1.8 -0.8
v 3.3 1.8 -0.9
v 3.3 1.9 -0.9
v 3.3 1.9 -1
v 3.3 2.3 -1
v 3.3 2.3 -1.1
v 3.3 2.6 -1
v 3.3 2.6 -1.1
v 3.3 2.8 2.5
v 3.3 2.8 2.4
v 3.3 2.8 -1
v -1.8 1 2.6
v -1.8 1.5 2.6
v -1.7 0.8 2.6
v -1.7 1 2.6
v -1.7 1.5 2.6
v -1.7 1.7 2.6
v -1.6 0.7 2.6
v -1.6 0.8 2.6
v -1.6 1.7 2.6
v -1.6 1.8 2.6
v -1.4 0.6 2.6
v -1.4 0.7 2.6
v -1.4 1.8 2.6
v -1.4 1.9 2.6
v -0.9 0.6 2.6
v -0.9 0.7 2.6
v -0.9 1.8 2.6
v -0.9 1.9 2.6
v -0.7 0.7 2.6
v -0.7 0.8 2.6
v -0.7 1.7 2.6
v -0.7 1.8 2.6
v -0.6 0.8 2.6
v -0.6 1 2.6
v -0.6 1.5 2.6
v -0.6 1.7 2.6
v -0.5 1 2.6
v -0.5 1.5 2.6
v 1.1 1 2.6
v 1.1 1.5 2.6
v 1.2 0.8 2.6
v 1.2 1 2.6
v 1.2 1.5 2.6
v 1.2 1.7 2.6
v 1.3 0.7 2.6
v 1.3 0.8 2.6
v 1.3 1.7 2.6
v 1.3 1.8 2.6
v 1.5 0.6 2.6
v 1.5 0.7 2.6
v 1.5 1.8 2.6
v 1.5 1.9 2.6
v 2 0.6 2.6
v 2 0.7 2.6
v 2 1.8 2.6
v 2 1.9 2.6
v 2.2 0.7 2.6
v 2.2 0.8 2.6
v 2.2 1.7 2.6
v 2.2 1.8 2.6
v 2.3 0.8 2.6
v 2.3 1 2.6
v 2.3 1.5 2.6
v 2.3 1.7 2.6
v 2.4 1 2.6
v 2.4 1.5 2.6
v -2.9 1.2 2.5
v -2.9 2.1 2.5
v -2.9 2.4 2.5
v -2.8 2.1 2.5
v -2.8 2.4 2.5
v -1.8 1.2 2.5
v -1.8 1.5 2.5
v -1.7 1.5 2.5
v -1.7 1.7 2.5
v -1.7 2.4 2.5
v -1.7 3.4 2.5
v -1.6 1.7 2.5
v -1.6 1.8 2.5
v -1.5 3.4 2.5
v -1.5 3.5 2.5
v -1.4 1.8 2.5
v -1.4 1.9 2.5
v -1.3 2.5 2.5
v -1.3 2.8 2.5
v -1.3 2.9 2.5
v -1.3 3.5 2.5
v -1.2 2.5 2.5
v -1.2 2.7 2.5
v -1.2 2.8 2.5
v -1.2 2.9 2.5
v -1.2 4 2.5
v -1.2 4.1 2.5
v -1.1 2.5 2.5
v -1.1 2.6 2.5
v -1.1 2.7 2.5
v -1 2.5 2.5
v -1 2.6 2.5
v -0.9 1.8 2.5
v -0.9 1.9 2.5
v -0.7 1.7 2.5
v -0.7 1.8 2.5
v -0.6 1.5 2.5
v -0.6 1.7 2.5
v -0.5 1.2 2.5
v -0.5 1.5 2.5
v -0.0999999 3.1 2.5
v -0.0999999 3.2 2.5
v 0 3.1 2.5
v 0 3.2 2.5
v 0 3.4 2.5
v 0.1 3.1 2.5
v 0.1 3.4 2.5
v 0.1 3.5 2.5
v 0.2 3 2.5
v 0.2 3.1 2.5
v 0.2 3.2 2.5
v 0.2 3.5 2.5
v 0.2 3.6 2.5
v 0.3 2.5 2.5
v 0.3 3 2.5
v 0.3 3.2 2.5
v 0.3 3.6 2.5
v 0.3 4 2.5
v 1.1 1.2 2.5
v 1.1 1.5 2.5
v 1.2 1.5 2.5
v 1.2 1.7 2.5
v 1.3 1.7 2.5
v 1.3 1.8 2.5
v 1.5 1.8 2.5
v 1.5 1.9 2.5
v 1.5 2.5 2.5
v 1.5 2.6 2.5
v 1.5 2.7 2.5
v 1.5 3.6 2.5
v 1.5 3.8 2.5
v 1.5 4 2.5
v 1.6 2.5 2.5
v 1.6 2.6 2.5
v 1.6 2.7 2.5
v 1.6 2.9 2.5
v 1.6 3.6 2.5
v 1.6 3.7 2.5
v 1.6 3.8 2.5
v 1.6 4 2.5
v 1.7 2.5 2.5
v 1.7 2.7 2.5
v 1.7 2.9 2.5
v 1.7 3.7 2.5
v 1.7 3.9 2.5
v 1.7 4 2.5
v 1.8 2.5 2.5
v 1.8 2.6 2.5
v 1.8 3.9 2.5
v 1.8 4 2.5
v 1.9 2.5 2.5
v 1.9 2.6 2.5
v 1.9 3.9 2.5
v 1.9 4 2.5
v 2 1.8 2.5
v 2 1.9 2.5
v 2 2.6 2.5
v 2 2.7 2.5
v 2.1 2.5 2.5
v 2.1 2.7 2.5
v 2.1 3.7 2.5
v 2.1 3.8 2.5
v 2.1 4 2.5
v 2.2 1.7 2.5
v 2.2 1.8 2.5
v 2.2 2.5 2.5
v 2.2 2.7 2.5
v 2.2 3.4 2.5
v 2.2 3.5 2.5
v 2.2 3.7 2.5
v 2.2 3.8 2.5
v 2.2 3.9 2.5
v 2.2 4 2.5
v 2.3 1.5 2.5
v 2.3 1.7 2.5
v 2.3 2.5 2.5
v 2.3 2.7 2.5
v 2.3 3.3 2.5
v 2.3 3.4 2.5
v 2.3 3.5 2.5
v 2.3 3.6 2.5
v 2.3 3.7 2.5
v 2.4 1.2 2.5
v 2.4 1.5 2.5
v 2.4 2.5 2.5
v 2.4 2.7 2.5
v 2.4 3.3 2.5
v 2.4 3.4 2.5
v 2.4 3.5 2.5
v 2.4 3.6 2.5
v 2.4 3.7 2.5
v 2.4 3.9 2.5
v 2.4 4 2.5
v 2.5 2.8 2.5
v 2.5 4.1 2.5
v 3.3 1.2 2.5
v 3.3 2.8 2.5
v -1.7 3.4 2.3
v -1.7 3.5 2.3
v -1.6 3.4 2.3
v -1.6 3.5 2.3
v -1.3 4 2.3
v -1.3 4.1 2.3
v -1.2 4 2.3
v -1.2 4.1 2.3
v -1.4 4 2.2
v -1.4 4.1 2.2
v -1.3 4 2.2
v -1.3 4.1 2.2
v -0.5 1.3 2.2
v -0.5 1.5 2.2
v 0.4 1.5 2.2
v 0.4 2.4 2.2
v 0.6 1.3 2.2
v 0.6 2.4 2.2
v 1.4 1.3 2.2
v 1.4 1.5 2.2
v 2.5 1.3 2.2
v 2.5 1.5 2.2
v -1.7 3.5 2.1
v -1.7 3.7 2.1
v -1.6 3.5 2.1
v -1.6 3.7 2.1
v -1.5 4 2.1
v -1.5 4.1 2.1
v -1.4 4 2.1
v -1.4 4.1 2.1
v -1.7 3.7 2
v -1.7 3.9 2
v -1.7 4.1 2
v -1.6 3.7 2
v -1.6 3.9 2
v -1.6 4 2
v -1.5 4 2
v -1.5 4.1 2
v -1.4 2.4 1.9
v -1.4 2.6 1.9
v -1.3 2.4 1.9
v -1.3 2.6 1.9
v -1.6 2.3 1.8
v -1.6 2.4 1.8
v -1.5 2.3 1.8
v -1.5 2.4 1.8
v -1.5 2.5 1.8
v -1.4 2.4 1.8
v -1.4 2.5 1.8
v -1.4 2.5 1.7
v -1.4 2.6 1.7
v -1.3 2.5 1.7
v -1.3 2.6 1.7
v 1.4 1.5 1.3
v 1.4 2 1.3
v 2.5 1.5 1.3
v 2.5 2 1.3
v -2 1.2 -0.4
v -2 1.3 -0.4
v -1.9 1.2 -0.4
v -1.9 1.3 -0.4
v 3.1 1.7 -0.6
v 3.1 1.8 -0.6
v 3.2 1.7 -0.6
v 3.2 1.8 -0.6
v 3.3 1.7 -0.6
v 3.3 1.8 -0.6
v -1.8 1 2.5
v -1.8 1.2 2.5
v -1.7 0.8 2.5
v -1.7 1 2.5
v -1.6 0.7 2.5
v -1.6 0.8 2.5
v -1.4 0.6 2.5
v -1.4 0.7 2.5
v -0.9 0.6 2.5
v -0.9 0.7 2.5
v -0.7 0.7 2.5
v -0.7 0.8 2.5
v -0.6 0.8 2.5
v -0.6 1 2.5
v -0.5 1 2.5
v -0.5 1.2 2.5
v 1.1 1 2.5
v 1.1 1.2 2.5
v 1.2 0.8 2.5
v 1.2 1 2.5
v 1.3 0.7 2.5
v 1.3 0.8 2.5
v 1.5 0.6 2.5
v 1.5 0.7 2.5
v 2 0.6 2.5
v 2 0.7 2.5
v 2.2 0.7 2.5
v 2.2 0.8 2.5
v 2.3 0.8 2.5
v 2.3 1 2.5
v 2.4 1 2.5
v 2.4 1.2 2.5
v -2.8 1.3 2.4
v -2.8 2.1 2.4
v -2.8 2.3 2.4
v -1.6 2.3 2.4
v -1.6 3.4 2.4
v -1.5 3.4 2.4
v -1.5 3.5 2.4
v -1.3 2.5 2.4
v -1.3 2.8 2.4
v -1.3 2.9 2.4
v -1.3 3.5 2.4
v -1.2 2.5 2.4
v -1.2 2.7 2.4
v -1.2 2.8 2.4
v -1.2 2.9 2.4
v -1.1 2.5 2.4
v -1.1 2.6 2.4
v -1.1 2.7 2.4
v -1 2.5 2.4
v -1 2.6 2.4
v -0.0999999 3.1 2.4
v -0.0999999 3.2 2.4
v 0 3.1 2.4
v 0 3.2 2.4
v 0 3.4 2.4
v 0.1 3.1 2.4
v 0.1 3.4 2.4
v 0.1 3.5 2.4
v 0.2 3 2.4
v 0.2 3.1 2.4
v 0.2 3.2 2.4
v 0.2 3.5 2.4
v 0.2 3.6 2.4
v 0.3 2.5 2.4
v 0.3 3 2.4
v 0.3 3.2 2.4
v 0.3 3.6 2.4
v 0.3 4 2.4
v 1.5 2.5 2.4
v 1.5 2.6 2.4
v 1.5 2.7 2.4
v 1.5 3.6 2.4
v 1.5 3.8 2.4
v 1.5 4 2.4
v 1.6 2.5 2.4
v 1.6 2.6 2.4
v 1.6 2.7 2.4
v 1.6 2.9 2.4
v 1.6 3.6 2.4
v 1.6 3.7 2.4
v 1.6 3.8 2.4
v 1.6 4 2.4
v 1.7 2.5 2.4
v 1.7 2.7 2.4
v 1.7 2.9 2.4
v 1.7 3.7 2.4
v 1.7 3.9 2.4
v 1.7 4 2.4
v 1.8 2.5 2.4
v 1.8 2.6 2.4
v 1.8 3.9 2.4
v 1.8 4 2.4
v 1.9 2.5 2.4
v 1.9 2.6 2.4
v 1.9 3.9 2.4
v 1.9 4 2.4
v 2 2.6 2.4
v 2 2.7 2.4
v 2.1 2.5 2.4
v 2.1 2.7 2.4
v 2.1 3.7 2.4
v 2.1 3.8 2.4
v 2.1 4 2.4
v 2.2 2.5 2.4
v 2.2 2.7 2.4
v 2.2 3.4 2.4
v 2.2 3.5 2.4
v 2.2 3.7 2.4
v 2.2 3.8 2.4
v 2.2 3.9 2.4
v 2.2 4 2.4
v 2.3 2.5 2.4
v 2.3 2.7 2.4
v 2.3 3.3 2.4
v 2.3 3.4 2.4
v 2.3 3.5 2.4
v 2.3 3.6 2.4
v 2.3 3.7 2.4
v 2.4 2.5 2.4
v 2.4 2.7 2.4
v 2.4 3.3 2.4
v 2.4 3.4 2.4
v 2.4 3.5 2.4
v 2.4 3.6 2.4
v 2.4 3.7 2.4
v 2.4 3.9 2.4
v 2.4 4 2.4
v 2.5 2.7 2.4
v 3.1 1.3 2.4
v 3.1 2.7 2.4
v -1.4 2.5 1.8
v -1.4 2.6 1.8
v -1.3 2.5 1.8
v -1.3 2.6 1.8
v -1.6 2.3 1.7
v -1.6 2.4 1.7
v -1.5 2.3 1.7
v -1.5 2.4 1.7
v -1.5 2.5 1.7
v -1.4 2.4 1.7
v -1.4 2.5 1.7
v -1.4 2.4 1.6
v -1.4 2.6 1.6
v -1.3 2.4 1.6
v -1.3 2.6 1.6
v -0.5 1.3 1.3
v -0.5 1.5 1.3
v 0.4 1.5 1.3
v 0.4 2.4 1.3
v 0.6 1.3 1.3
v 0.6 2.4 1.3
v 1.4 1.3 0.9
v 1.4 2 0.9
v 2.5 1.3 0.9
v 2.5 2 0.9
v -0.3 1.2 0.4
v -0.3 1.3 0.4
v 0.8 1.2 0.4
v 0.8 1.3 0.4
v -1.7 1.2 0.3
v -1.7 1.3 0.3
v -0.3 1.2 0.3
v -0.3 1.3 0.3
v 0.8 1.2 0.3
v 0.8 1.3 0.3
v 1 1.2 0.3
v 1 1.3 0.3
v -1.9 1.2 0.2
v -1.9 1.3 0.2
v -1.7 1.2 0.2
v -1.7 1.3 0.2
v 0.8 4 0.2
v 0.8 4.1 0.2
v 1.2 1.2 0.2
v 1.2 1.3 0.2
v 1.4 4 0.2
v 1.4 4.1 0.2
v 2.1 1.2 0.2
v 2.1 1.3 0.2
v -2.9 2.1 0.0999999
v -2.9 2.2 0.0999999
v -2.9 2.4 0.0999999
v -2.8 2.1 0.0999999
v -2.8 2.2 0.0999999
v -2.8 2.3 0.0999999
v -2.7 2.3 0.0999999
v -2.7 2.4 0.0999999
v 0.6 4 0.0999999
v 0.6 4.1 0.0999999
v 0.8 4 0.0999999
v 0.8 4.1 0.0999999
v 1 1.2 0.0999999
v 1 1.3 0.0999999
v 1.2 1.2 0.0999999
v 1.2 1.3 0.0999999
v 1.4 4 0.0999999
v 1.4 4.1 0.0999999
v 1.6 4 0.0999999
v 1.6 4.1 0.0999999
v 2.1 1.2 0.0999999
v 2.1 1.3 0.0999999
v 3.1 1.3 0.0999999
v 3.1 1.5 0.0999999
v 3.2 1.5 0.0999999
v 3.3 1.2 0.0999999
v 3.3 1.5 0.0999999
v -2.9 1.2 0
v -2.9 1.5 0
v -2.9 1.9 0
v -2.9 2.1 0
v -2.8 1.2 0
v -2.8 1.3 0
v -2.8 1.5 0
v -2.8 1.9 0
v -2.8 2.1 0
v -2.7 1.2 0
v -2.7 1.3 0
v -2.7 2.3 0
v -2.7 2.4 0
v -2.5 2.3 0
v -2.5 2.4 0
v -2 1.2 0
v -2 1.3 0
v -1.9 1.2 0
v -1.9 1.3 0
v -0.4 4 0
v -0.4 4.1 0
v 0.4 4 0
v 0.4 4.1 0
v 1.6 4 0
v 1.6 4.1 0
v 1.7 4 0
v 1.7 4.1 0
v 3.1 1.5 0
v 3.1 1.7 0
v 3.2 1.5 0
v 3.2 1.6 0
v 3.2 1.7 0
v 3.3 1.5 0
v 3.3 1.6 0
v -2.7 1.2 -0.0999999
v -2.7 1.3 -0.0999999
v -2.5 1.2 -0.0999999
v -2.5 1.3 -0.0999999
v -2.5 2.3 -0.0999999
v -2.5 2.4 -0.0999999
v -2.4 2.3 -0.0999999
v -2.4 2.4 -0.0999999
v -0.6 4 -0.0999999
v -0.6 4.1 -0.0999999
v -0.4 4 -0.0999999
v -0.4 4.1 -0.0999999
v 0.4 4 -0.0999999
v 0.4 4.1 -0.0999999
v 0.6 4 -0.0999999
v 0.6 4.1 -0.0999999
v 1.7 4 -0.0999999
v 1.7 4.1 -0.0999999
v 1.8 4 -0.0999999
v 1.8 4.1 -0.0999999
v 3.2 1.6 -0.0999999
v 3.2 1.7 -0.0999999
v 3.3 1.6 -0.0999999
v 3.3 1.7 -0.0999999
v -0.7 4 -0.2
v -0.7 4.1 -0.2
v -0.6 4 -0.2
v -0.6 4.1 -0.2
v 3.1 1.7 -0.2
v 3.1 1.8 -0.2
v 3.2 1.7 -0.2
v 3.2 1.8 -0.2
v 3.3 1.7 -0.2
v 3.3 1.8 -0.2
v -2.5 1.2 -0.3
v -2.5 1.3 -0.3
v -2.4 1.2 -0.3
v -2.4 1.3 -0.3
v -2.4 2.3 -0.3
v -2.4 2.4 -0.3
v -2.3 2.3 -0.3
v -2.3 2.4 -0.3
v -0.8 4 -0.3
v -0.8 4.1 -0.3
v -0.7 4 -0.3
v -0.7 4.1 -0.3
v 1.8 4 -0.3
v 1.8 4.1 -0.3
v 1.9 4 -0.3
v 1.9 4.1 -0.3
v -0.9 4 -0.5
v -0.9 4.1 -0.5
v -0.8 4 -0.5
v -0.8 4.1 -0.5
v -1 4 -0.7
v -1 4.1 -0.7
v -0.9 4 -0.7
v -0.9 4.1 -0.7
v -2.4 1.2 -0.8
v -2.4 1.3 -0.8
v -2.3 1.2 -0.8
v -2.3 1.3 -0.8
v -2.2 1.2 -0.8
v -2.2 1.3 -0.8
v -1.9 1.2 -0.8
v -1.9 1.3 -0.8
v 3.1 1.7 -0.8
v 3.1 1.9 -0.8
v 3.2 1.7 -0.8
v 3.2 1.8 -0.8
v 3.2 1.9 -0.8
v 3.3 1.7 -0.8
v 3.3 1.8 -0.8
v -2.3 1.2 -0.9
v -2.3 1.3 -0.9
v -2.3 2.3 -0.9
v -2.3 2.4 -0.9
v -2.2 1.2 -0.9
v -2.2 1.3 -0.9
v -2 2.3 -0.9
v -2 2.4 -0.9
v 1.9 4 -0.9
v 1.9 4.1 -0.9
v 2.4 2.7 -0.9
v 2.4 3.5 -0.9
v 2.4 3.9 -0.9
v 2.4 4 -0.9
v 2.5 2.7 -0.9
v 2.5 2.8 -0.9
v 2.5 3.5 -0.9
v 2.5 3.9 -0.9
v 2.5 4.1 -0.9
v 2.6 2.7 -0.9
v 2.6 2.8 -0.9
v 3.2 1.8 -0.9
v 3.2 1.9 -0.9
v 3.3 1.8 -0.9
v 3.3 1.9 -0.9
v -2 2.3 -1
v -2 2.4 -1
v -1.8 2.3 -1
v -1.8 2.4 -1
v -1.1 4 -1
v -1.1 4.1 -1
v -1 4 -1
v -1 4.1 -1
v 2.4 3.5 -1
v 2.4 3.9 -1
v 2.5 3.5 -1
v 2.5 3.9 -1
v 2.6 2.7 -1
v 2.6 2.8 -1
v 2.7 2.7 -1
v 2.7 2.8 -1
v 3 2.7 -1
v 3 2.8 -1
v 3.1 1.9 -1
v 3.1 2.3 -1
v 3.1 2.6 -1
v 3.1 2.7 -1
v 3.2 1.9 -1
v 3.2 2.3 -1
v 3.2 2.6 -1
v 3.2 2.7 -1
v 3.3 1.9 -1
v 3.3 2.3 -1
v 3.3 2.6 -1
v 3.3 2.8 -1
v -1.4 4 -1.1
v -1.4 4.1 -1.1
v -1.1 4 -1.1
v -1.1 4.1 -1.1
v 2.7 2.7 -1.1
v 2.7 2.8 -1.1
v 3 2.7 -1.1
v 3 2.8 -1.1
v 3.1 2.3 -1.1
v 3.1 2.6 -1.1
v 3.2 2.3 -1.1
v 3.2 2.6 -1.1
v 3.3 2.3 -1.1
v 3.3 2.6 -1.1
v -1.8 2.3 -1.2
v -1.8 2.4 -1.2
v -1.7 2.4 -1.2
v -1.7 2.6 -1.2
v -1.6 2.3 -1.2
v -1.6 2.4 -1.2
v -1.6 2.6 -1.2
v -1.6 4 -1.2
v -1.6 4.1 -1.2
v -1.4 4 -1.2
v -1.4 4.1 -1.2
v -1.7 2.6 -1.3
v -1.7 2.8 -1.3
v -1.7 4 -1.3
v -1.7 4.1 -1.3
v -1.6 2.6 -1.3
v -1.6 2.8 -1.3
v -1.6 4 -1.3
v -1.6 4.1 -1.3
v -1.7 2.8 -1.4
v -1.7 2.9 -1.4
v -1.7 3.8 -1.4
v -1.7 3.9 -1.4
v -1.7 4 -1.4
v -1.6 2.8 -1.4
v -1.6 2.9 -1.4
v -1.6 3.8 -1.4
v -1.6 3.9 -1.4
v -1.6 4 -1.4
v -1.7 3.7 -1.5
v -1.7 3.8 -1.5
v -1.6 3.7 -1.5
v -1.6 3.8 -1.5
v -1.7 2.9 -1.6
v -1.7 3.2 -1.6
v -1.6 2.9 -1.6
v -1.6 3.2 -1.6
v -1.7 3.2 -1.7
v -1.7 3.7 -1.7
v -1.6 3.2 -1.7
v -1.6 3.7 -1.7
v -1.4 0.6 2.6
v -0.9 0.6 2.6
v 1.5 0.6 2.6
v 2 0.6 2.6
v -1.4 0.6 2.5
v -0.9 0.6 2.5
v 1.5 0.6 2.5
v 2 0.6 2.5
v -1.6 0.7 2.6
v -1.4 0.7 2.6
v -0.9 0.7 2.6
v -0.7 0.7 2.6
v 1.3 0.7 2.6
v 1.5 0.7 2.6
v 2 0.7 2.6
v 2.2 0.7 2.6
v -1.6 0.7 2.5
v -1.4 0.7 2.5
v -0.9 0.7 2.5
v -0.7 0.7 2.5
v 1.3 0.7 2.5
v 1.5 0.7 2.5
v 2 0.7 2.5
v 2.2 0.7 2.5
v -1.7 0.8 2.6
v -1.6 0.8 2.6
v -0.7 0.8 2.6
v -0.6 0.8 2.6
v 1.2 0.8 2.6
v 1.3 0.8 2.6
v 2.2 0.8 2.6
v 2.3 0.8 2.6
v -1.7 0.8 2.5
v -1.6 0.8 2.5
v -0.7 0.8 2.5
v -0.6 0.8 2.5
v 1.2 0.8 2.5
v 1.3 0.8 2.5
v 2.2 0.8 2.5
v 2.3 0.8 2.5
v -1.8 1 2.6
v -1.7 1 2.6
v -0.6 1 2.6
v -0.5 1 2.6
v 1.1 1 2.6
v 1.2 1 2.6
v 2.3 1 2.6
v 2.4 1 2.6
v -1.8 1 2.5
v -1.7 1 2.5
v -0.6 1 2.5
v -0.5 1 2.5
v 1.1 1 2.5
v 1.2 1 2.5
v 2.3 1 2.5
v 2.4 1 2.5
v -2.9 1.2 2.5
v -1.8 1.2 2.5
v -0.5 1.2 2.5
v 1.1 1.2 2.5
v 2.4 1.2 2.5
v 3.3 1.2 2.5
v 0.4 1.2 2.2
v 0.5 1.2 2.2
v 0.4 1.2 1.3
v 0.5 1.2 1.3
v -2.9 1.2 0.9
v -2.8 1.2 0.9
v -0.3 1.2 0.4
v 0.8 1.2 0.4
v -1.7 1.2 0.3
v -0.3 1.2 0.3
v 0.8 1.2 0.3
v 1 1.2 0.3
v -1.9 1.2 0.2
v -1.7 1.2 0.2
v 1.2 1.2 0.2
v 2.1 1.2 0.2
v 1 1.2 0.0999999
v 1.2 1.2 0.0999999
v 2.1 1.2 0.0999999
v 3.3 1.2 0.0999999
v -2.9 1.2 0
v -2.8 1.2 0
v -2.7 1.2 0
v -2 1.2 0
v -1.9 1.2 0
v -2.7 1.2 -0.0999999
v -2.5 1.2 -0.0999999
v -2.5 1.2 -0.3
v -2.4 1.2 -0.3
v -2 1.2 -0.4
v -1.9 1.2 -0.4
v -2.4 1.2 -0.8
v -2.3 1.2 -0.8
v -2.2 1.2 -0.8
v -1.9 1.2 -0.8
v -2.3 1.2 -0.9
v -2.2 1.2 -0.9
v 3.1 1.5 0.0999999
v 3.2 1.5 0.0999999
v 3.3 1.5 0.0999999
v 3.1 1.5 0
v 3.2 1.5 0
v 3.3 1.5 0
v 3.2 1.6 0
v 3.3 1.6 0
v 3.2 1.6 -0.0999999
v 3.3 1.6 -0.0999999
v 3.1 1.7 0
v 3.2 1.7 0
v 3.2 1.7 -0.0999999
v 3.3 1.7 -0.0999999
v 3.1 1.7 -0.2
v 3.2 1.7 -0.2
v 3.3 1.7 -0.2
v 3.1 1.7 -0.6
v 3.2 1.7 -0.6
v 3.3 1.7 -0.6
v 3.1 1.7 -0.8
v 3.2 1.7 -0.8
v 3.3 1.7 -0.8
v 3.1 1.8 -0.2
v 3.2 1.8 -0.2
v 3.3 1.8 -0.2
v 3.1 1.8 -0.6
v 3.2 1.8 -0.6
v 3.3 1.8 -0.6
v 3.2 1.8 -0.8
v 3.3 1.8 -0.8
v 3.2 1.8 -0.9
v 3.3 1.8 -0.9
v 3.1 1.9 -0.8
v 3.2 1.9 -0.8
v 3.2 1.9 -0.9
v 3.3 1.9 -0.9
v 3.1 1.9 -1
v 3.2 1.9 -1
v 3.3 1.9 -1
v -2.8 2.3 2.4
v -1.6 2.3 2.4
v -2.8 2.3 2.1
v -1.6 2.3 1.8
v -1.5 2.3 1.8
v -1.6 2.3 1.7
v -1.5 2.3 1.7
v -2.8 2.3 0.0999999
v -2.7 2.3 0.0999999
v -2.7 2.3 0
v -2.5 2.3 0
v -2.5 2.3 -0.0999999
v -2.4 2.3 -0.0999999
v -2.4 2.3 -0.3
v -2.3 2.3 -0.3
v -2.3 2.3 -0.9
v -2 2.3 -0.9
v -2 2.3 -1
v -1.8 2.3 -1
v 3.1 2.3 -1
v 3.2 2.3 -1
v 3.3 2.3 -1
v 3.1 2.3 -1.1
v 3.2 2.3 -1.1
v 3.3 2.3 -1.1
v -1.8 2.3 -1.2
v -1.6 2.3 -1.2
v -1.4 2.4 1.9
v -1.3 2.4 1.9
v -1.5 2.4 1.8
v -1.4 2.4 1.8
v -1.5 2.4 1.7
v -1.4 2.4 1.7
v -1.4 2.4 1.6
v -1.3 2.4 1.6
v -1.7 2.6 -1.2
v -1.6 2.6 -1.2
v -1.7 2.6 -1.3
v -1.6 2.6 -1.3
v 2.4 2.7 2.4
v 2.5 2.7 2.4
v 3.1 2.7 2.4
v 2.4 2.7 -0.9
v 2.5 2.7 -0.9
v 2.6 2.7 -0.9
v 2.6 2.7 -1
v 2.7 2.7 -1
v 3 2.7 -1
v 3.1 2.7 -1
v 2.7 2.7 -1.1
v 3 2.7 -1.1
v -1.7 2.8 -1.3
v -1.6 2.8 -1.3
v -1.7 2.8 -1.4
v -1.6 2.8 -1.4
v -1.7 2.9 -1.4
v -1.6 2.9 -1.4
v -1.7 2.9 -1.6
v -1.6 2.9 -1.6
v 0.2 3 2.5
v 0.3 3 2.5
v 0.2 3 2.4
v 0.3 3 2.4
v -0.0999999 3.1 2.5
v 0 3.1 2.5
v 0.1 3.1 2.5
v 0.2 3.1 2.5
v -0.0999999 3.1 2.4
v 0 3.1 2.4
v 0.1 3.1 2.4
v 0.2 3.1 2.4
v -1.7 3.2 -1.6
v -1.6 3.2 -1.6
v -1.7 3.2 -1.7
v -1.6 3.2 -1.7
v 2.3 3.3 2.5
v 2.4 3.3 2.5
v 2.3 3.3 2.4
v 2.4 3.3 2.4
v 2.2 3.4 2.5
v 2.3 3.4 2.5
v 2.2 3.4 2.4
v 2.3 3.4 2.4
v 2.4 3.5 -0.9
v 2.5 3.5 -0.9
v 2.4 3.5 -1
v 2.5 3.5 -1
v 1.5 3.6 2.5
v 1.6 3.6 2.5
v 2.3 3.6 2.5
v 2.4 3.6 2.5
v 1.5 3.6 2.4
v 1.6 3.6 2.4
v 2.3 3.6 2.4
v 2.4 3.6 2.4
v 1.6 3.7 2.5
v 1.7 3.7 2.5
v 2.1 3.7 2.5
v 2.2 3.7 2.5
v 1.6 3.7 2.4
v 1.7 3.7 2.4
v 2.1 3.7 2.4
v 2.2 3.7 2.4
v 1.7 3.9 2.5
v 1.8 3.9 2.5
v 1.9 3.9 2.5
v 2.2 3.9 2.5
v 2.4 3.9 2.5
v 1.7 3.9 2.4
v 1.8 3.9 2.4
v 1.9 3.9 2.4
v 2.2 3.9 2.4
v 2.4 3.9 2.4
v -1.2 4 2.5
v 0.3 4 2.5
v 1.9 4 2.5
v 2.1 4 2.5
v 0.3 4 2.4
v 1.5 4 2.4
v 1.6 4 2.4
v 1.7 4 2.4
v 1.8 4 2.4
v 1.9 4 2.4
v 2.1 4 2.4
v 2.2 4 2.4
v 2.4 4 2.4
v -1.3 4 2.3
v -1.2 4 2.3
v -1.4 4 2.2
v -1.3 4 2.2
v -1.5 4 2.1
v -1.4 4 2.1
v -1.6 4 2
v -1.5 4 2
v 0.8 4 0.2
v 1.4 4 0.2
v 0.6 4 0.0999999
v 0.8 4 0.0999999
v 1.4 4 0.0999999
v 1.6 4 0.0999999
v -0.4 4 0
v 0.4 4 0
v 1.6 4 0
v 1.7 4 0
v -0.6 4 -0.0999999
v -0.4 4 -0.0999999
v 0.4 4 -0.0999999
v 0.6 4 -0.0999999
v 1.7 4 -0.0999999
v 1.8 4 -0.0999999
v -0.7 4 -0.2
v -0.6 4 -0.2
v -0.8 4 -0.3
v -0.7 4 -0.3
v 1.8 4 -0.3
v 1.9 4 -0.3
v -0.9 4 -0.5
v -0.8 4 -0.5
v -1 4 -0.7
v -0.9 4 -0.7
v 1.9 4 -0.9
v 2.4 4 -0.9
v -1.1 4 -1
v -1 4 -1
v -1.4 4 -1.1
v -1.1 4 -1.1
v -1.6 4 -1.2
v -1.4 4 -1.2
v -2.8 1.3 2.4
v 3.1 1.3 2.4
v -0.5 1.3 2.2
v 0.6 1.3 2.2
v 1.4 1.3 2.2
v 2.5 1.3 2.2
v -0.5 1.3 1.3
v 0.6 1.3 1.3
v -2.8 1.3 0.9
v 1.4 1.3 0.9
v 2.5 1.3 0.9
v -0.3 1.3 0.4
v 0.8 1.3 0.4
v -1.7 1.3 0.3
v -0.3 1.3 0.3
v 0.8 1.3 0.3
v 1 1.3 0.3
v -1.9 1.3 0.2
v -1.7 1.3 0.2
v 1.2 1.3 0.2
v 2.1 1.3 0.2
v 1 1.3 0.0999999
v 1.2 1.3 0.0999999
v 2.1 1.3 0.0999999
v 3.1 1.3 0.0999999
v -2.8 1.3 0
v -2.7 1.3 0
v -2 1.3 0
v -1.9 1.3 0
v -2.7 1.3 -0.0999999
v -2.5 1.3 -0.0999999
v -2.5 1.3 -0.3
v -2.4 1.3 -0.3
v -2 1.3 -0.4
v -1.9 1.3 -0.4
v -2.4 1.3 -0.8
v -2.3 1.3 -0.8
v -2.2 1.3 -0.8
v -1.9 1.3 -0.8
v -2.3 1.3 -0.9
v -2.2 1.3 -0.9
v -1.8 1.5 2.6
v -1.7 1.5 2.6
v -0.6 1.5 2.6
v -0.5 1.5 2.6
v 1.1 1.5 2.6
v 1.2 1.5 2.6
v 2.3 1.5 2.6
v 2.4 1.5 2.6
v -1.8 1.5 2.5
v -1.7 1.5 2.5
v -0.6 1.5 2.5
v -0.5 1.5 2.5
v 1.1 1.5 2.5
v 1.2 1.5 2.5
v 2.3 1.5 2.5
v 2.4 1.5 2.5
v -0.5 1.5 2.2
v 0.4 1.5 2.2
v 1.4 1.5 2.2
v 2.5 1.5 2.2
v -0.5 1.5 1.3
v 0.4 1.5 1.3
v 1.4 1.5 1.3
v 2.5 1.5 1.3
v -1.7 1.7 2.6
v -1.6 1.7 2.6
v -0.7 1.7 2.6
v -0.6 1.7 2.6
v 1.2 1.7 2.6
v 1.3 1.7 2.6
v 2.2 1.7 2.6
v 2.3 1.7 2.6
v -1.7 1.7 2.5
v -1.6 1.7 2.5
v -0.7 1.7 2.5
v -0.6 1.7 2.5
v 1.2 1.7 2.5
v 1.3 1.7 2.5
v 2.2 1.7 2.5
v 2.3 1.7 2.5
v -1.6 1.8 2.6
v -1.4 1.8 2.6
v -0.9 1.8 2.6
v -0.7 1.8 2.6
v 1.3 1.8 2.6
v 1.5 1.8 2.6
v 2 1.8 2.6
v 2.2 1.8 2.6
v -1.6 1.8 2.5
v -1.4 1.8 2.5
v -0.9 1.8 2.5
v -0.7 1.8 2.5
v 1.3 1.8 2.5
v 1.5 1.8 2.5
v 2 1.8 2.5
v 2.2 1.8 2.5
v -1.4 1.9 2.6
v -0.9 1.9 2.6
v 1.5 1.9 2.6
v 2 1.9 2.6
v -1.4 1.9 2.5
v -0.9 1.9 2.5
v 1.5 1.9 2.5
v 2 1.9 2.5
v 1.4 2 1.3
v 2.5 2 1.3
v 1.4 2 0.9
v 2.5 2 0.9
v -2.9 2.1 0.0999999
v -2.8 2.1 0.0999999
v -2.9 2.1 0
v -2.8 2.1 0
v -2.9 2.4 2.5
v -2.8 2.4 2.5
v -1.7 2.4 2.5
v -1.7 2.4 2.3
v 0.4 2.4 2.2
v 0.6 2.4 2.2
v -2.9 2.4 2.1
v -2.8 2.4 2.1
v -1.6 2.4 1.8
v -1.5 2.4 1.8
v -1.6 2.4 1.7
v -1.5 2.4 1.7
v 0.4 2.4 1.3
v 0.6 2.4 1.3
v -2.9 2.4 0.0999999
v -2.7 2.4 0.0999999
v -2.7 2.4 0
v -2.5 2.4 0
v -2.5 2.4 -0.0999999
v -2.4 2.4 -0.0999999
v -1.7 2.4 -0.2
v -2.4 2.4 -0.3
v -2.3 2.4 -0.3
v -1.7 2.4 -0.3
v -2.3 2.4 -0.9
v -2 2.4 -0.9
v -2 2.4 -1
v -1.8 2.4 -1
v -1.8 2.4 -1.2
v -1.7 2.4 -1.2
v -1 2.5 2.5
v 0.3 2.5 2.5
v 1.7 2.5 2.5
v 1.8 2.5 2.5
v 2.2 2.5 2.5
v 2.3 2.5 2.5
v -1 2.5 2.4
v 0.3 2.5 2.4
v 1.7 2.5 2.4
v 1.8 2.5 2.4
v 2.2 2.5 2.4
v 2.3 2.5 2.4
v -1.5 2.5 1.8
v -1.4 2.5 1.8
v -1.3 2.5 1.8
v -1.5 2.5 1.7
v -1.4 2.5 1.7
v -1.3 2.5 1.7
v -1.1 2.6 2.5
v -1 2.6 2.5
v 1.8 2.6 2.5
v 1.9 2.6 2.5
v 2 2.6 2.5
v -1.1 2.6 2.4
v -1 2.6 2.4
v 1.8 2.6 2.4
v 1.9 2.6 2.4
v 2 2.6 2.4
v -1.4 2.6 1.9
v -1.3 2.6 1.9
v -1.4 2.6 1.8
v -1.3 2.6 1.8
v -1.4 2.6 1.7
v -1.3 2.6 1.7
v -1.4 2.6 1.6
v -1.3 2.6 1.6
v 3.1 2.6 -1
v 3.2 2.6 -1
v 3.3 2.6 -1
v 3.1 2.6 -1.1
v 3.2 2.6 -1.1
v 3.3 2.6 -1.1
v -1.2 2.7 2.5
v -1.1 2.7 2.5
v 1.5 2.7 2.5
v 1.6 2.7 2.5
v 2 2.7 2.5
v 2.1 2.7 2.5
v 2.2 2.7 2.5
v 2.3 2.7 2.5
v 2.4 2.7 2.5
v -1.2 2.7 2.4
v -1.1 2.7 2.4
v 1.5 2.7 2.4
v 1.6 2.7 2.4
v 2 2.7 2.4
v 2.1 2.7 2.4
v 2.2 2.7 2.4
v 2.3 2.7 2.4
v 2.4 2.7 2.4
v 2.5 2.8 2.5
v 3.3 2.8 2.5
v 2.5 2.8 2.4
v 3.3 2.8 2.4
v 2.5 2.8 -0.9
v 2.6 2.8 -0.9
v 2.6 2.8 -1
v 2.7 2.8 -1
v 3 2.8 -1
v 3.3 2.8 -1
v 2.7 2.8 -1.1
v 3 2.8 -1.1
v -1.3 2.9 2.5
v -1.2 2.9 2.5
v 1.6 2.9 2.5
v 1.7 2.9 2.5
v -1.3 2.9 2.4
v -1.2 2.9 2.4
v 1.6 2.9 2.4
v 1.7 2.9 2.4
v -0.0999999 3.2 2.5
v 0 3.2 2.5
v -0.0999999 3.2 2.4
v 0 3.2 2.4
v -1.7 3.4 2.5
v -1.5 3.4 2.5
v 0 3.4 2.5
v 0.1 3.4 2.5
v -1.6 3.4 2.4
v -1.5 3.4 2.4
v 0 3.4 2.4
v 0.1 3.4 2.4
v -1.7 3.4 2.3
v -1.6 3.4 2.3
v -1.5 3.5 2.5
v -1.3 3.5 2.5
v 0.1 3.5 2.5
v 0.2 3.5 2.5
v 2.2 3.5 2.5
v 2.3 3.5 2.5
v 2.4 3.5 2.5
v -1.5 3.5 2.4
v -1.3 3.5 2.4
v 0.1 3.5 2.4
v 0.2 3.5 2.4
v 2.2 3.5 2.4
v 2.3 3.5 2.4
v 2.4 3.5 2.4
v -1.7 3.5 2.3
v -1.6 3.5 2.3
v -1.7 3.5 2.1
v -1.6 3.5 2.1
v 0.2 3.6 2.5
v 0.3 3.6 2.5
v 0.2 3.6 2.4
v 0.3 3.6 2.4
v 2.3 3.7 2.5
v 2.4 3.7 2.5
v 2.3 3.7 2.4
v 2.4 3.7 2.4
v -1.7 3.7 2.1
v -1.6 3.7 2.1
v -1.7 3.7 2
v -1.6 3.7 2
v -1.7 3.7 -1.5
v -1.6 3.7 -1.5
v -1.7 3.7 -1.7
v -1.6 3.7 -1.7
v -1.7 3.8 -1.4
v -1.6 3.8 -1.4
v -1.7 3.8 -1.5
v -1.6 3.8 -1.5
v 2.4 3.9 -0.9
v 2.5 3.9 -0.9
v 2.4 3.9 -1
v 2.5 3.9 -1
v -1.7 4 -1.3
v -1.6 4 -1.3
v -1.7 4 -1.4
v -1.6 4 -1.4
v -1.2 4.1 2.5
v 2.5 4.1 2.5
v -1.3 4.1 2.3
v -1.2 4.1 2.3
v -1.4 4.1 2.2
v -1.3 4.1 2.2
v -1.5 4.1 2.1
v -1.4 4.1 2.1
v -1.7 4.1 2
v -1.5 4.1 2
v 0.8 4.1 0.2
v 1.4 4.1 0.2
v 0.6 4.1 0.0999999
v 0.8 4.1 0.0999999
v 1.4 4.1 0.0999999
v 1.6 4.1 0.0999999
v -0.4 4.1 0
v 0.4 4.1 0
v 1.6 4.1 0
v 1.7 4.1 0
v -0.6 4.1 -0.0999999
v -0.4 4.1 -0.0999999
v 0.4 4.1 -0.0999999
v 0.6 4.1 -0.0999999
v 1.7 4.1 -0.0999999
v 1.8 4.1 -0.0999999
v -0.7 4.1 -0.2
v -0.6 4.1 -0.2
v -0.8 4.1 -0.3
v -0.7 4.1 -0.3
v 1.8 4.1 -0.3
v 1.9 4.1 -0.3
v -0.9 4.1 -0.5
v -0.8 4.1 -0.5
v -1 4.1 -0.7
v -0.9 4.1 -0.7
v 1.9 4.1 -0.9
v 2.5 4.1 -0.9
v -1.1 4.1 -1
v -1 4.1 -1
v -1.4 4.1 -1.1
v -1.1 4.1 -1.1
v -1.6 4.1 -1.2
v -1.4 4.1 -1.2
v -1.7 4.1 -1.3
v -1.6 4.1 -1.3

# faces
f 4/1/1 2/1/1 1/1/1
f 4/4/1 3/4/1 2/4/1
f 5/4/1 3/4/1 4/4/1
f 6/1/1 4/1/1 1/1/1
f 6/1/1 5/1/1 4/1/1
f 7/1/1 5/1/1 6/1/1
f 8/1/1 6/1/1 1/1/1
f 9/1/1 6/1/1 8/1/1
f 10/5/1 7/5/1 6/5/1
f 10/1/1 6/1/1 9/1/1
f 11/5/1 7/5/1 10/5/1
f 12/5/1 7/5/1 11/5/1
f 13/5/1 7/5/1 12/5/1
f 14/1/1 10/1/1 9/1/1
f 14/1/1 11/1/1 10/1/1
f 14/5/1 12/5/1 11/5/1
f 15/5/1 12/5/1 14/5/1
f 16/3/1 9/3/1 8/3/1
f 17/1/1 14/1/1 9/1/1
f 17/3/1 9/3/1 16/3/1
f 17/1/1 15/1/1 14/1/1
f 18/1/1 15/1/1 17/1/1
f 21/1/1 20/1/1 19/1/1
f 22/1/1 20/1/1 21/1/1
f 25/1/1 24/1/1 23/1/1
f 26/1/1 24/1/1 25/1/1
f 29/1/1 28/1/1 27/1/1
f 30/1/1 28/1/1 29/1/1
f 33/1/1 32/1/1 31/1/1
f 34/1/1 32/1/1 33/1/1
f 37/1/1 36/1/1 35/1/1
f 38/1/1 36/1/1 37/1/1
f 41/1/1 40/1/1 39/1/1
f 42/1/1 40/1/1 41/1/1
f 45/1/1 44/1/1 43/1/1
f 46/1/1 44/1/1 45/1/1
f 49/1/1 48/1/1 47/1/1
f 50/1/1 48/1/1 49/1/1
f 53/1/1 52/1/1 51/1/1
f 54/1/1 52/1/1 53/1/1
f 57/5/1 56/5/1 55/5/1
f 58/5/1 57/5/1 55/5/1
f 59/5/1 57/5/1 58/5/1
f 62/1/1 61/1/1 60/1/1
f 63/1/1 61/1/1 62/1/1
f 66/5/1 65/5/1 64/5/1
f 67/5/1 65/5/1 66/5/1
f 70/5/1 69/5/1 68/5/1
f 71/5/1 69/5/1 70/5/1
f 77/7/1 74/7/1 73/7/1
f 78/7/1 74/7/1 77/7/1
f 79/7/1 74/7/1 78/7/1
f 80/7/1 74/7/1 79/7/1
f 81/7/1 74/7/1 80/7/1
f 82/7/1 74/7/1 81/7/1
f 83/7/1 77/7/1 73/7/1
f 83/6/1 78/6/1 77/6/1
f 84/7/1 79/7/1 78/7/1
f 84/6/1 78/6/1 83/6/1
f 85/7/1 79/7/1 84/7/1
f 86/6/1 80/6/1 79/6/1
f 86/7/1 79/7/1 85/7/1
f 87/7/1 81/7/1 80/7/1
f 87/6/1 80/6/1 86/6/1
f 88/7/1 81/7/1 87/7/1
f 89/7/1 76/7/1 75/7/1
f 91/6/1 85/6/1 84/6/1
f 91/7/1 84/7/1 83/7/1
f 92/7/1 86/7/1 85/7/1
f 92/6/1 85/6/1 91/6/1
f 92/7/1 87/7/1 86/7/1
f 93/7/1 87/7/1 92/7/1
f 94/6/1 88/6/1 87/6/1
f 94/7/1 87/7/1 93/7/1
f 95/7/1 81/7/1 88/7/1
f 95/6/1 88/6/1 94/6/1
f 96/7/1 81/7/1 95/7/1
f 97/6/1 82/6/1 81/6/1
f 97/7/1 81/7/1 96/7/1
f 98/7/1 74/7/1 82/7/1
f 98/6/1 82/6/1 97/6/1
f 99/7/1 74/7/1 98/7/1
f 100/7/1 90/7/1 89/7/1
f 100/7/1 89/7/1 75/7/1
f 101/7/1 90/7/1 100/7/1
f 102/6/1 93/6/1 92/6/1
f 102/7/1 92/7/1 91/7/1
f 103/7/1 94/7/1 93/7/1
f 103/6/1 93/6/1 102/6/1
f 103/7/1 95/7/1 94/7/1
f 104/7/1 95/7/1 103/7/1
f 105/6/1 96/6/1 95/6/1
f 105/7/1 95/7/1 104/7/1
f 106/7/1 97/7/1 96/7/1
f 106/6/1 96/6/1 105/6/1
f 106/7/1 98/7/1 97/7/1
f 107/6/1 99/6/1 98/6/1
f 107/7/1 98/7/1 106/7/1
f 108/7/1 74/7/1 99/7/1
f 108/6/1 99/6/1 107/6/1
f 109/7/1 90/7/1 101/7/1
f 111/6/1 104/6/1 103/6/1
f 111/7/1 103/7/1 102/7/1
f 112/7/1 105/7/1 104/7/1
f 112/6/1 104/6/1 111/6/1
f 112/7/1 107/7/1 106/7/1
f 112/7/1 108/7/1 107/7/1
f 112/7/1 106/7/1 105/7/1
f 113/7/1 108/7/1 112/7/1
f 114/7/1 110/7/1 109/7/1
f 114/7/1 109/7/1 101/7/1
f 114/6/1 101/6/1 100/6/1
f 115/7/1 110/7/1 114/7/1
f 116/7/1 110/7/1 115/7/1
f 118/6/1 113/6/1 112/6/1
f 118/7/1 112/7/1 111/7/1
f 119/7/1 108/7/1 113/7/1
f 119/6/1 113/6/1 118/6/1
f 120/7/1 108/7/1 119/7/1
f 121/7/1 74/7/1 108/7/1
f 121/7/1 108/7/1 120/7/1
f 122/6/1 75/6/1 74/6/1
f 122/7/1 74/7/1 121/7/1
f 123/7/1 100/7/1 75/7/1
f 123/6/1 75/6/1 122/6/1
f 124/6/1 114/6/1 100/6/1
f 124/7/1 100/7/1 123/7/1
f 124/6/1 115/6/1 114/6/1
f 125/6/1 115/6/1 124/6/1
f 126/6/1 120/6/1 119/6/1
f 126/7/1 119/7/1 118/7/1
f 127/7/1 121/7/1 120/7/1
f 127/6/1 120/6/1 126/6/1
f 128/7/1 121/7/1 127/7/1
f 129/7/1 121/7/1 128/7/1
f 130/6/1 122/6/1 121/6/1
f 130/7/1 121/7/1 129/7/1
f 131/7/1 123/7/1 122/7/1
f 131/6/1 122/6/1 130/6/1
f 131/7/1 125/7/1 124/7/1
f 131/7/1 124/7/1 123/7/1
f 132/6/1 128/6/1 127/6/1
f 132/7/1 127/7/1 126/7/1
f 133/7/1 129/7/1 128/7/1
f 133/6/1 128/6/1 132/6/1
f 134/7/1 129/7/1 133/7/1
f 135/6/1 115/6/1 125/6/1
f 135/7/1 125/7/1 131/7/1
f 135/7/1 131/7/1 130/7/1
f 136/7/1 117/7/1 116/7/1
f 136/6/1 115/6/1 135/6/1
f 136/7/1 116/7/1 115/7/1
f 137/7/1 117/7/1 136/7/1
f 138/7/1 117/7/1 137/7/1
f 140/7/1 133/7/1 132/7/1
f 140/6/1 134/6/1 133/6/1
f 141/7/1 129/7/1 134/7/1
f 141/6/1 134/6/1 140/6/1
f 142/7/1 129/7/1 141/7/1
f 143/6/1 130/6/1 129/6/1
f 143/7/1 129/7/1 142/7/1
f 144/7/1 135/7/1 130/7/1
f 144/6/1 130/6/1 143/6/1
f 144/7/1 136/7/1 135/7/1
f 145/6/1 137/6/1 136/6/1
f 145/7/1 136/7/1 144/7/1
f 146/7/1 139/7/1 138/7/1
f 146/6/1 137/6/1 145/6/1
f 146/7/1 138/7/1 137/7/1
f 147/7/1 139/7/1 146/7/1
f 148/7/1 139/7/1 147/7/1
f 149/1/1 73/1/1 72/1/1
f 150/7/1 102/7/1 91/7/1
f 150/1/1 73/1/1 149/1/1
f 150/7/1 126/7/1 118/7/1
f 150/7/1 111/7/1 102/7/1
f 150/7/1 118/7/1 111/7/1
f 150/7/1 83/7/1 73/7/1
f 150/7/1 141/7/1 140/7/1
f 150/7/1 91/7/1 83/7/1
f 150/7/1 132/7/1 126/7/1
f 150/7/1 140/7/1 132/7/1
f 151/7/1 141/7/1 150/7/1
f 152/7/1 141/7/1 151/7/1
f 153/6/1 142/6/1 141/6/1
f 153/7/1 141/7/1 152/7/1
f 154/7/1 147/7/1 146/7/1
f 154/6/1 142/6/1 153/6/1
f 154/7/1 146/7/1 145/7/1
f 154/7/1 144/7/1 143/7/1
f 154/7/1 143/7/1 142/7/1
f 154/7/1 145/7/1 144/7/1
f 155/7/1 147/7/1 154/7/1
f 156/7/1 147/7/1 155/7/1
f 157/6/1 148/6/1 147/6/1
f 157/7/1 147/7/1 156/7/1
f 158/7/1 139/7/1 148/7/1
f 158/6/1 148/6/1 157/6/1
f 159/7/1 151/7/1 150/7/1
f 160/7/1 151/7/1 159/7/1
f 161/6/1 152/6/1 151/6/1
f 161/7/1 151/7/1 160/7/1
f 162/7/1 153/7/1 152/7/1
f 162/6/1 152/6/1 161/6/1
f 162/7/1 154/7/1 153/7/1
f 163/7/1 154/7/1 162/7/1
f 164/6/1 155/6/1 154/6/1
f 164/7/1 154/7/1 163/7/1
f 165/7/1 156/7/1 155/7/1
f 165/6/1 155/6/1 164/6/1
f 166/7/1 156/7/1 165/7/1
f 167/6/1 157/6/1 156/6/1
f 167/7/1 156/7/1 166/7/1
f 168/7/1 158/7/1 157/7/1
f 168/6/1 157/6/1 167/6/1
f 169/7/1 161/7/1 160/7/1
f 169/6/1 163/6/1 162/6/1
f 169/7/1 162/7/1 161/7/1
f 170/7/1 166/7/1 165/7/1
f 170/6/1 163/6/1 169/6/1
f 170/7/1 164/7/1 163/7/1
f 170/7/1 165/7/1 164/7/1
f 171/7/1 166/7/1 170/7/1
f 172/6/1 167/6/1 166/6/1
f 172/7/1 166/7/1 171/7/1
f 173/7/1 168/7/1 167/7/1
f 173/6/1 167/6/1 172/6/1
f 174/7/1 169/7/1 160/7/1
f 174/7/1 170/7/1 169/7/1
f 175/7/1 170/7/1 174/7/1
f 176/6/1 171/6/1 170/6/1
f 176/7/1 170/7/1 175/7/1
f 177/7/1 172/7/1 171/7/1
f 177/6/1 171/6/1 176/6/1
f 177/7/1 173/7/1 172/7/1
f 178/7/1 173/7/1 177/7/1
f 179/7/1 173/7/1 178/7/1
f 180/7/1 168/7/1 173/7/1
f 180/7/1 173/7/1 179/7/1
f 180/7/1 158/7/1 168/7/1
f 180/7/1 139/7/1 158/7/1
f 181/7/1 139/7/1 180/7/1
f 182/7/1 178/7/1 177/7/1
f 182/7/1 177/7/1 176/7/1
f 182/7/1 176/7/1 175/7/1
f 183/6/1 179/6/1 178/6/1
f 183/7/1 178/7/1 182/7/1
f 184/7/1 180/7/1 179/7/1
f 184/6/1 179/6/1 183/6/1
f 185/7/1 180/7/1 184/7/1
f 186/7/1 180/7/1 185/7/1
f 187/7/1 182/7/1 175/7/1
f 188/6/1 183/6/1 182/6/1
f 188/7/1 182/7/1 187/7/1
f 189/7/1 184/7/1 183/7/1
f 189/6/1 183/6/1 188/6/1
f 189/7/1 185/7/1 184/7/1
f 190/7/1 185/7/1 189/7/1
f 191/1/1 188/1/1 187/1/1
f 191/1/1 189/1/1 188/1/1
f 191/1/1 190/1/1 189/1/1
f 192/1/1 190/1/1 191/1/1
f 193/1/1 191/1/1 187/1/1
f 194/1/1 191/1/1 193/1/1
f 197/5/1 196/5/1 195/5/1
f 198/5/1 196/5/1 197/5/1
f 201/5/1 200/5/1 199/5/1
f 202/5/1 200/5/1 201/5/1
f 205/5/1 204/5/1 203/5/1
f 206/5/1 204/5/1 205/5/1
f 209/1/1 208/1/1 207/1/1
f 210/1/1 208/1/1 209/1/1
f 213/1/1 212/1/1 211/1/1
f 214/1/1 212/1/1 213/1/1
f 217/5/1 216/5/1 215/5/1
f 218/5/1 216/5/1 217/5/1
f 221/5/1 220/5/1 219/5/1
f 222/5/1 220/5/1 221/5/1
f 227/5/1 224/5/1 223/5/1
f 228/5/1 226/5/1 225/5/1
f 229/5/1 227/5/1 223/5/1
f 230/5/1 227/5/1 229/5/1
f 231/5/1 226/5/1 228/5/1
f 232/5/1 226/5/1 231/5/1
f 235/1/1 234/1/1 233/1/1
f 236/1/1 234/1/1 235/1/1
f 239/1/1 238/1/1 237/1/1
f 240/1/1 238/1/1 239/1/1
f 243/1/1 242/1/1 241/1/1
f 244/1/1 242/1/1 243/1/1
f 247/5/1 246/5/1 245/5/1
f 248/5/1 246/5/1 247/5/1
f 251/7/1 250/7/1 249/7/1
f 252/7/1 250/7/1 251/7/1
f 255/6/1 254/6/1 253/6/1
f 256/6/1 254/6/1 255/6/1
f 259/7/1 258/7/1 257/7/1
f 260/7/1 258/7/1 259/7/1
f 263/7/1 262/7/1 261/7/1
f 264/7/1 262/7/1 263/7/1
f 267/6/1 266/6/1 265/6/1
f 268/6/1 266/6/1 267/6/1
f 271/1/1 270/1/1 269/1/1
f 272/1/1 270/1/1 271/1/1
f 275/1/1 274/1/1 273/1/1
f 276/1/1 274/1/1 275/1/1
f 279/5/1 278/5/1 277/5/1
f 280/5/1 278/5/1 279/5/1
f 283/1/1 282/1/1 281/1/1
f 284/1/1 282/1/1 283/1/1
f 287/1/1 286/1/1 285/1/1
f 288/1/1 286/1/1 287/1/1
f 291/1/1 290/1/1 289/1/1
f 292/1/1 290/1/1 291/1/1
f 295/5/1 294/5/1 293/5/1
f 296/5/1 295/5/1 293/5/1
f 297/5/1 295/5/1 296/5/1
f 300/5/1 299/5/1 298/5/1
f 301/5/1 299/5/1 300/5/1
f 304/5/1 303/5/1 302/5/1
f 305/5/1 303/5/1 304/5/1
f 308/5/1 307/5/1 306/5/1
f 309/5/1 307/5/1 308/5/1
f 312/5/1 311/5/1 310/5/1
f 313/5/1 311/5/1 312/5/1
f 316/5/1 315/5/1 314/5/1
f 317/5/1 315/5/1 316/5/1
f 318/5/1 315/5/1 317/5/1
f 319/5/1 315/5/1 318/5/1
f 322/1/1 321/1/1 320/1/1
f 323/1/1 321/1/1 322/1/1
f 326/5/1 325/5/1 324/5/1
f 327/5/1 325/5/1 326/5/1
f 330/5/1 329/5/1 328/5/1
f 331/5/1 329/5/1 330/5/1
f 334/7/1 333/7/1 332/7/1
f 335/7/1 333/7/1 334/7/1
f 338/1/1 337/1/1 336/1/1
f 339/1/1 337/1/1 338/1/1
f 342/1/1 341/1/1 340/1/1
f 343/1/1 341/1/1 342/1/1
f 346/6/1 345/6/1 344/6/1
f 347/6/1 345/6/1 346/6/1
f 350/1/1 349/1/1 348/1/1
f 351/1/1 349/1/1 350/1/1
f 354/1/1 353/1/1 352/1/1
f 355/1/1 353/1/1 354/1/1
f 358/7/1 357/7/1 356/7/1
f 359/7/1 357/7/1 358/7/1
f 362/1/1 361/1/1 360/1/1
f 363/1/1 361/1/1 362/1/1
f 366/7/1 365/7/1 364/7/1
f 367/7/1 365/7/1 366/7/1
f 368/6/1 367/6/1 366/6/1
f 369/6/1 367/6/1 368/6/1
f 372/7/1 371/7/1 370/7/1
f 373/7/1 371/7/1 372/7/1
f 376/7/1 375/7/1 374/7/1
f 377/7/1 375/7/1 376/7/1
f 380/7/1 379/7/1 378/7/1
f 381/7/1 379/7/1 380/7/1
f 384/7/1 383/7/1 382/7/1
f 385/7/1 383/7/1 384/7/1
f 389/1/1 387/1/1 386/1/1
f 389/1/1 388/1/1 387/1/1
f 390/1/1 388/1/1 389/1/1
f 391/1/1 388/1/1 390/1/1
f 393/1/1 388/1/1 391/1/1
f 394/1/1 388/1/1 393/1/1
f 396/1/1 393/1/1 392/1/1
f 396/1/1 395/1/1 394/1/1
f 396/1/1 394/1/1 393/1/1
f 397/1/1 395/1/1 396/1/1
f 399/1/1 395/1/1 397/1/1
f 400/1/1 399/1/1 398/1/1
f 401/1/1 395/1/1 399/1/1
f 401/1/1 399/1/1 400/1/1
f 402/1/1 395/1/1 401/1/1
f 403/1/1 395/1/1 402/1/1
f 404/1/1 402/1/1 401/1/1
f 405/1/1 402/1/1 404/1/1
f 408/2/1 407/2/1 406/2/1
f 409/2/1 407/2/1 408/2/1
f 412/2/1 411/2/1 410/2/1
f 413/2/1 411/2/1 412/2/1
f 416/1/1 415/1/1 414/1/1
f 418/1/1 417/1/1 416/1/1
f 422/1/1 419/1/1 418/1/1
f 423/1/1 421/1/1 420/1/1
f 424/1/1 421/1/1 423/1/1
f 424/1/1 423/1/1 422/1/1
f 426/1/1 425/1/1 424/1/1
f 428/1/1 426/1/1 424/1/1
f 428/1/1 427/1/1 426/1/1
f 429/1/1 427/1/1 428/1/1
f 430/1/1 416/1/1 414/1/1
f 430/1/1 418/1/1 416/1/1
f 430/1/1 428/1/1 424/1/1
f 430/1/1 424/1/1 422/1/1
f 430/1/1 422/1/1 418/1/1
f 431/1/1 428/1/1 430/1/1
f 434/2/1 433/2/1 432/2/1
f 435/2/1 433/2/1 434/2/1
f 438/2/1 437/2/1 436/2/1
f 439/2/1 437/2/1 438/2/1
f 440/1/2 441/1/2 443/1/2
f 441/4/2 442/4/2 443/4/2
f 443/4/2 442/4/2 444/4/2
f 440/1/2 443/1/2 445/1/2
f 443/1/2 444/1/2 445/1/2
f 445/1/2 444/1/2 446/1/2
f 440/1/2 445/1/2 447/1/2
f 447/1/2 445/1/2 448/1/2
f 445/5/2 446/5/2 449/5/2
f 448/1/2 445/1/2 449/1/2
f 449/5/2 446/5/2 450/5/2
f 450/5/2 446/5/2 451/5/2
f 451/5/2 446/5/2 452/5/2
f 448/1/2 449/1/2 453/1/2
f 449/1/2 450/1/2 453/1/2
f 450/5/2 451/5/2 453/5/2
f 453/5/2 451/5/2 454/5/2
f 447/3/2 448/3/2 455/3/2
f 448/1/2 453/1/2 456/1/2
f 455/3/2 448/3/2 456/3/2
f 453/1/2 454/1/2 456/1/2
f 456/1/2 454/1/2 457/1/2
f 458/1/2 459/1/2 460/1/2
f 460/1/2 459/1/2 461/1/2
f 462/1/2 463/1/2 464/1/2
f 464/1/2 463/1/2 465/1/2
f 466/1/2 467/1/2 470/1/2
f 470/1/2 467/1/2 471/1/2
f 468/1/2 469/1/2 472/1/2
f 472/1/2 469/1/2 473/1/2
f 474/1/2 475/1/2 476/1/2
f 476/1/2 475/1/2 477/1/2
f 478/1/2 479/1/2 482/1/2
f 482/1/2 479/1/2 483/1/2
f 480/1/2 481/1/2 484/1/2
f 484/1/2 481/1/2 485/1/2
f 485/1/2 481/1/2 486/1/2
f 486/1/2 481/1/2 487/1/2
f 482/7/2 483/7/2 488/7/2
f 483/7/2 484/7/2 488/7/2
f 484/7/2 485/7/2 488/7/2
f 488/7/2 485/7/2 489/7/2
f 489/7/2 485/7/2 490/7/2
f 490/7/2 485/7/2 491/7/2
f 491/7/2 485/7/2 492/7/2
f 492/7/2 485/7/2 493/7/2
f 482/7/2 488/7/2 494/7/2
f 488/6/2 489/6/2 494/6/2
f 489/7/2 490/7/2 495/7/2
f 494/6/2 489/6/2 495/6/2
f 495/7/2 490/7/2 496/7/2
f 490/6/2 491/6/2 497/6/2
f 496/7/2 490/7/2 497/7/2
f 491/7/2 492/7/2 498/7/2
f 497/6/2 491/6/2 498/6/2
f 498/7/2 492/7/2 499/7/2
f 486/7/2 487/7/2 500/7/2
f 495/6/2 496/6/2 502/6/2
f 494/7/2 495/7/2 502/7/2
f 496/7/2 497/7/2 503/7/2
f 502/6/2 496/6/2 503/6/2
f 497/7/2 498/7/2 503/7/2
f 503/7/2 498/7/2 504/7/2
f 498/6/2 499/6/2 505/6/2
f 504/7/2 498/7/2 505/7/2
f 499/7/2 492/7/2 506/7/2
f 505/6/2 499/6/2 506/6/2
f 506/7/2 492/7/2 507/7/2
f 492/6/2 493/6/2 508/6/2
f 507/7/2 492/7/2 508/7/2
f 493/7/2 485/7/2 509/7/2
f 508/6/2 493/6/2 509/6/2
f 509/7/2 485/7/2 510/7/2
f 486/7/2 500/7/2 511/7/2
f 500/7/2 501/7/2 511/7/2
f 511/7/2 501/7/2 512/7/2
f 503/6/2 504/6/2 513/6/2
f 502/7/2 503/7/2 513/7/2
f 504/7/2 505/7/2 514/7/2
f 513/6/2 504/6/2 514/6/2
f 505/7/2 506/7/2 514/7/2
f 514/7/2 506/7/2 515/7/2
f 506/6/2 507/6/2 516/6/2
f 515/7/2 506/7/2 516/7/2
f 507/7/2 508/7/2 517/7/2
f 516/6/2 507/6/2 517/6/2
f 508/7/2 509/7/2 517/7/2
f 509/6/2 510/6/2 518/6/2
f 517/7/2 509/7/2 518/7/2
f 510/7/2 485/7/2 519/7/2
f 518/6/2 510/6/2 519/6/2
f 512/7/2 501/7/2 520/7/2
f 514/6/2 515/6/2 522/6/2
f 513/7/2 514/7/2 522/7/2
f 517/7/2 518/7/2 523/7/2
f 522/6/2 515/6/2 523/6/2
f 515/7/2 516/7/2 523/7/2
f 518/7/2 519/7/2 523/7/2
f 516/7/2 517/7/2 523/7/2
f 523/7/2 519/7/2 524/7/2
f 512/7/2 520/7/2 525/7/2
f 520/7/2 521/7/2 525/7/2
f 511/6/2 512/6/2 525/6/2
f 525/7/2 521/7/2 526/7/2
f 526/7/2 521/7/2 527/7/2
f 523/6/2 524/6/2 529/6/2
f 522/7/2 523/7/2 529/7/2
f 524/7/2 519/7/2 530/7/2
f 529/6/2 524/6/2 530/6/2
f 530/7/2 519/7/2 531/7/2
f 519/7/2 485/7/2 532/7/2
f 531/7/2 519/7/2 532/7/2
f 485/6/2 486/6/2 533/6/2
f 532/7/2 485/7/2 533/7/2
f 486/7/2 511/7/2 534/7/2
f 533/6/2 486/6/2 534/6/2
f 511/6/2 525/6/2 535/6/2
f 534/7/2 511/7/2 535/7/2
f 525/6/2 526/6/2 535/6/2
f 535/6/2 526/6/2 536/6/2
f 530/6/2 531/6/2 537/6/2
f 529/7/2 530/7/2 537/7/2
f 531/7/2 532/7/2 538/7/2
f 537/6/2 531/6/2 538/6/2
f 538/7/2 532/7/2 539/7/2
f 539/7/2 532/7/2 540/7/2
f 532/6/2 533/6/2 541/6/2
f 540/7/2 532/7/2 541/7/2
f 533/7/2 534/7/2 542/7/2
f 541/6/2 533/6/2 542/6/2
f 535/7/2 536/7/2 542/7/2
f 534/7/2 535/7/2 542/7/2
f 538/6/2 539/6/2 543/6/2
f 537/7/2 538/7/2 543/7/2
f 539/7/2 540/7/2 544/7/2
f 543/6/2 539/6/2 544/6/2
f 544/7/2 540/7/2 545/7/2
f 536/6/2 526/6/2 546/6/2
f 542/7/2 536/7/2 546/7/2
f 541/7/2 542/7/2 546/7/2
f 527/7/2 528/7/2 547/7/2
f 546/6/2 526/6/2 547/6/2
f 526/7/2 527/7/2 547/7/2
f 547/7/2 528/7/2 548/7/2
f 548/7/2 528/7/2 549/7/2
f 543/7/2 544/7/2 551/7/2
f 544/6/2 545/6/2 551/6/2
f 545/7/2 540/7/2 552/7/2
f 551/6/2 545/6/2 552/6/2
f 552/7/2 540/7/2 553/7/2
f 540/6/2 541/6/2 554/6/2
f 553/7/2 540/7/2 554/7/2
f 541/7/2 546/7/2 555/7/2
f 554/6/2 541/6/2 555/6/2
f 546/7/2 547/7/2 555/7/2
f 547/6/2 548/6/2 556/6/2
f 555/7/2 547/7/2 556/7/2
f 549/7/2 550/7/2 557/7/2
f 556/6/2 548/6/2 557/6/2
f 548/7/2 549/7/2 557/7/2
f 557/7/2 550/7/2 558/7/2
f 558/7/2 550/7/2 559/7/2
f 478/1/2 482/1/2 560/1/2
f 513/7/2 522/7/2 561/7/2
f 560/1/2 482/1/2 561/1/2
f 502/7/2 513/7/2 561/7/2
f 529/7/2 537/7/2 561/7/2
f 522/7/2 529/7/2 561/7/2
f 482/7/2 494/7/2 561/7/2
f 551/7/2 552/7/2 561/7/2
f 537/7/2 543/7/2 561/7/2
f 494/7/2 502/7/2 561/7/2
f 543/7/2 551/7/2 561/7/2
f 561/7/2 552/7/2 562/7/2
f 562/7/2 552/7/2 563/7/2
f 552/6/2 553/6/2 564/6/2
f 563/7/2 552/7/2 564/7/2
f 557/7/2 558/7/2 565/7/2
f 564/6/2 553/6/2 565/6/2
f 556/7/2 557/7/2 565/7/2
f 553/7/2 554/7/2 565/7/2
f 554/7/2 555/7/2 565/7/2
f 555/7/2 556/7/2 565/7/2
f 565/7/2 558/7/2 566/7/2
f 566/7/2 558/7/2 567/7/2
f 558/6/2 559/6/2 568/6/2
f 567/7/2 558/7/2 568/7/2
f 559/7/2 550/7/2 569/7/2
f 568/6/2 559/6/2 569/6/2
f 561/7/2 562/7/2 570/7/2
f 570/7/2 562/7/2 571/7/2
f 562/6/2 563/6/2 572/6/2
f 571/7/2 562/7/2 572/7/2
f 563/7/2 564/7/2 573/7/2
f 572/6/2 563/6/2 573/6/2
f 564/7/2 565/7/2 573/7/2
f 573/7/2 565/7/2 574/7/2
f 565/6/2 566/6/2 575/6/2
f 574/7/2 565/7/2 575/7/2
f 566/7/2 567/7/2 576/7/2
f 575/6/2 566/6/2 576/6/2
f 576/7/2 567/7/2 577/7/2
f 567/6/2 568/6/2 578/6/2
f 577/7/2 567/7/2 578/7/2
f 568/7/2 569/7/2 579/7/2
f 578/6/2 568/6/2 579/6/2
f 571/7/2 572/7/2 580/7/2
f 573/6/2 574/6/2 580/6/2
f 572/7/2 573/7/2 580/7/2
f 576/7/2 577/7/2 581/7/2
f 580/6/2 574/6/2 581/6/2
f 574/7/2 575/7/2 581/7/2
f 575/7/2 576/7/2 581/7/2
f 581/7/2 577/7/2 582/7/2
f 577/6/2 578/6/2 583/6/2
f 582/7/2 577/7/2 583/7/2
f 578/7/2 579/7/2 584/7/2
f 583/6/2 578/6/2 584/6/2
f 571/7/2 580/7/2 585/7/2
f 580/7/2 581/7/2 585/7/2
f 585/7/2 581/7/2 586/7/2
f 581/6/2 582/6/2 587/6/2
f 586/7/2 581/7/2 587/7/2
f 582/7/2 583/7/2 588/7/2
f 587/6/2 582/6/2 588/6/2
f 583/7/2 584/7/2 588/7/2
f 588/7/2 584/7/2 589/7/2
f 589/7/2 584/7/2 590/7/2
f 584/7/2 579/7/2 591/7/2
f 590/7/2 584/7/2 591/7/2
f 579/7/2 569/7/2 591/7/2
f 569/7/2 550/7/2 591/7/2
f 591/7/2 550/7/2 592/7/2
f 588/7/2 589/7/2 593/7/2
f 587/7/2 588/7/2 593/7/2
f 586/7/2 587/7/2 593/7/2
f 589/6/2 590/6/2 594/6/2
f 593/7/2 589/7/2 594/7/2
f 590/7/2 591/7/2 595/7/2
f 594/6/2 590/6/2 595/6/2
f 595/7/2 591/7/2 596/7/2
f 596/7/2 591/7/2 597/7/2
f 586/7/2 593/7/2 598/7/2
f 593/6/2 594/6/2 599/6/2
f 598/7/2 593/7/2 599/7/2
f 594/7/2 595/7/2 600/7/2
f 599/6/2 594/6/2 600/6/2
f 595/7/2 596/7/2 600/7/2
f 600/7/2 596/7/2 601/7/2
f 598/1/2 599/1/2 602/1/2
f 599/1/2 600/1/2 602/1/2
f 600/1/2 601/1/2 602/1/2
f 602/1/2 601/1/2 603/1/2
f 603/1/2 601/1/2 604/1/2
f 604/1/2 601/1/2 605/1/2
f 603/1/2 604/1/2 606/1/2
f 606/1/2 604/1/2 607/1/2
f 608/5/2 609/5/2 610/5/2
f 610/5/2 609/5/2 611/5/2
f 612/1/2 613/1/2 614/1/2
f 614/1/2 613/1/2 615/1/2
f 616/5/2 617/5/2 618/5/2
f 618/5/2 617/5/2 619/5/2
f 616/5/2 618/5/2 620/5/2
f 620/5/2 618/5/2 621/5/2
f 619/5/2 617/5/2 622/5/2
f 622/5/2 617/5/2 623/5/2
f 624/1/2 625/1/2 626/1/2
f 626/1/2 625/1/2 627/1/2
f 628/6/2 629/6/2 630/6/2
f 630/6/2 629/6/2 631/6/2
f 630/7/2 631/7/2 632/7/2
f 632/7/2 631/7/2 633/7/2
f 634/7/2 635/7/2 636/7/2
f 636/7/2 635/7/2 637/7/2
f 638/1/2 639/1/2 640/1/2
f 640/1/2 639/1/2 641/1/2
f 642/6/2 643/6/2 644/6/2
f 644/6/2 643/6/2 645/6/2
f 646/1/2 647/1/2 648/1/2
f 648/1/2 647/1/2 649/1/2
f 650/5/2 651/5/2 652/5/2
f 652/5/2 651/5/2 653/5/2
f 654/5/2 655/5/2 656/5/2
f 656/5/2 655/5/2 657/5/2
f 658/1/2 659/1/2 660/1/2
f 660/1/2 659/1/2 661/1/2
f 662/1/2 663/1/2 664/1/2
f 664/1/2 663/1/2 665/1/2
f 666/5/2 667/5/2 668/5/2
f 668/5/2 667/5/2 669/5/2
f 670/5/2 671/5/2 672/5/2
f 672/5/2 671/5/2 673/5/2
f 674/1/2 675/1/2 676/1/2
f 676/1/2 675/1/2 677/1/2
f 678/5/2 679/5/2 680/5/2
f 680/5/2 679/5/2 681/5/2
f 682/5/2 683/5/2 684/5/2
f 684/5/2 683/5/2 685/5/2
f 686/1/2 687/1/2 688/1/2
f 688/1/2 687/1/2 689/1/2
f 690/5/2 691/5/2 692/5/2
f 690/5/2 692/5/2 693/5/2
f 693/5/2 692/5/2 694/5/2
f 695/1/2 696/1/2 697/1/2
f 697/1/2 696/1/2 698/1/2
f 699/1/2 700/1/2 701/1/2
f 701/1/2 700/1/2 702/1/2
f 703/5/2 704/5/2 705/5/2
f 705/5/2 704/5/2 706/5/2
f 707/1/2 708/1/2 709/1/2
f 709/1/2 708/1/2 710/1/2
f 711/1/2 712/1/2 713/1/2
f 713/1/2 712/1/2 714/1/2
f 715/1/2 716/1/2 717/1/2
f 717/1/2 716/1/2 718/1/2
f 719/1/2 720/1/2 721/1/2
f 721/1/2 720/1/2 722/1/2
f 723/7/2 724/7/2 725/7/2
f 725/7/2 724/7/2 726/7/2
f 727/6/2 728/6/2 729/6/2
f 729/6/2 728/6/2 730/6/2
f 729/7/2 730/7/2 731/7/2
f 731/7/2 730/7/2 732/7/2
f 733/7/2 734/7/2 735/7/2
f 735/7/2 734/7/2 736/7/2
f 737/7/2 738/7/2 739/7/2
f 739/7/2 738/7/2 740/7/2
f 741/5/2 742/5/2 743/5/2
f 743/5/2 742/5/2 744/5/2
f 745/5/2 746/5/2 747/5/2
f 747/5/2 746/5/2 748/5/2
f 749/5/2 750/5/2 751/5/2
f 751/5/2 750/5/2 752/5/2
f 753/5/2 754/5/2 755/5/2
f 755/5/2 754/5/2 756/5/2
f 757/6/2 758/6/2 759/6/2
f 759/6/2 758/6/2 760/6/2
f 761/7/2 762/7/2 763/7/2
f 763/7/2 762/7/2 764/7/2
f 763/6/2 764/6/2 765/6/2
f 765/6/2 764/6/2 766/6/2
f 767/5/2 768/5/2 769/5/2
f 769/5/2 768/5/2 770/5/2
f 771/5/2 772/5/2 773/5/2
f 773/5/2 772/5/2 774/5/2
f 775/5/2 776/5/2 777/5/2
f 775/5/2 777/5/2 778/5/2
f 778/5/2 777/5/2 779/5/2
f 780/5/2 781/5/2 782/5/2
f 782/5/2 781/5/2 783/5/2
f 783/5/2 781/5/2 784/5/2
f 784/5/2 781/5/2 785/5/2
f 786/1/2 787/1/2 789/1/2
f 787/1/2 788/1/2 789/1/2
f 786/1/2 789/1/2 791/1/2
f 789/1/2 790/1/2 791/1/2
f 791/1/2 790/1/2 792/1/2
f 786/1/2 791/1/2 793/1/2
f 793/1/2 791/1/2 794/1/2
f 795/2/2 796/2/2 797/2/2
f 797/2/2 796/2/2 798/2/2
f 799/1/2 800/1/2 801/1/2
f 801/1/2 800/1/2 802/1/2
f 799/1/2 801/1/2 804/1/2
f 802/2/2 803/2/2 805/2/2
f 804/1/2 801/1/2 805/1/2
f 801/2/2 802/2/2 805/2/2
f 805/2/2 803/2/2 806/2/2
f 804/2/2 805/2/2 808/2/2
f 806/2/2 807/2/2 808/2/2
f 805/2/2 806/2/2 808/2/2
f 808/2/2 809/2/2 812/2/2
f 810/2/2 811/2/2 813/2/2
f 813/2/2 811/2/2 814/2/2
f 812/2/2 813/2/2 816/2/2
f 814/2/2 815/2/2 816/2/2
f 813/2/2 814/2/2 816/2/2
f 816/2/2 817/2/2 818/2/2
f 816/2/2 818/2/2 820/2/2
f 818/2/2 819/2/2 820/2/2
f 820/2/2 819/2/2 821/2/2
f 799/1/2 804/1/2 822/1/2
f 804/2/2 808/2/2 823/2/2
f 822/1/2 804/1/2 823/1/2
f 808/2/2 812/2/2 823/2/2
f 816/2/2 820/2/2 823/2/2
f 812/2/2 816/2/2 823/2/2
f 823/2/2 820/2/2 824/2/2
f 828/5/3 826/5/3 825/5/3
f 829/5/3 826/5/3 828/5/3
f 832/5/3 828/5/3 827/5/3
f 832/5/3 830/5/3 829/5/3
f 832/5/3 829/5/3 828/5/3
f 833/5/3 830/5/3 832/5/3
f 836/5/3 832/5/3 831/5/3
f 836/5/3 834/5/3 833/5/3
f 836/5/3 833/5/3 832/5/3
f 837/5/3 834/5/3 836/5/3
f 839/5/3 836/5/3 835/5/3
f 839/5/3 838/5/3 837/5/3
f 839/5/3 837/5/3 836/5/3
f 840/5/3 838/5/3 839/5/3
f 841/5/3 838/5/3 840/5/3
f 842/5/3 838/5/3 841/5/3
f 843/5/3 841/5/3 840/5/3
f 844/5/3 841/5/3 843/5/3
f 845/5/3 841/5/3 844/5/3
f 846/5/3 841/5/3 845/5/3
f 847/5/3 845/5/3 844/5/3
f 848/5/3 845/5/3 847/5/3
f 849/5/3 845/5/3 848/5/3
f 850/5/3 845/5/3 849/5/3
f 851/5/3 849/5/3 848/5/3
f 852/5/3 849/5/3 851/5/3
f 856/5/3 854/5/3 853/5/3
f 857/5/3 854/5/3 856/5/3
f 860/5/3 857/5/3 856/5/3
f 860/5/3 858/5/3 857/5/3
f 860/5/3 856/5/3 855/5/3
f 861/5/3 858/5/3 860/5/3
f 864/5/3 861/5/3 860/5/3
f 864/5/3 862/5/3 861/5/3
f 864/5/3 860/5/3 859/5/3
f 865/5/3 862/5/3 864/5/3
f 867/5/3 865/5/3 864/5/3
f 867/5/3 866/5/3 865/5/3
f 867/5/3 864/5/3 863/5/3
f 868/5/3 866/5/3 867/5/3
f 869/5/3 866/5/3 868/5/3
f 870/5/3 866/5/3 869/5/3
f 871/5/3 869/5/3 868/5/3
f 872/5/3 869/5/3 871/5/3
f 873/5/3 869/5/3 872/5/3
f 874/5/3 869/5/3 873/5/3
f 875/5/3 873/5/3 872/5/3
f 876/5/3 873/5/3 875/5/3
f 877/5/3 873/5/3 876/5/3
f 878/5/3 873/5/3 877/5/3
f 879/5/3 877/5/3 876/5/3
f 880/5/3 877/5/3 879/5/3
f 884/1/3 882/1/3 881/1/3
f 884/3/3 883/3/3 882/3/3
f 885/3/3 883/3/3 884/3/3
f 886/1/3 884/1/3 881/1/3
f 886/1/3 885/1/3 884/1/3
f 887/1/3 885/1/3 886/1/3
f 888/1/3 885/1/3 887/1/3
f 889/1/3 885/1/3 888/1/3
f 890/1/3 885/1/3 889/1/3
f 892/1/3 890/1/3 889/1/3
f 892/1/3 891/1/3 890/1/3
f 893/1/3 891/1/3 892/1/3
f 894/1/3 891/1/3 893/1/3
f 896/1/3 894/1/3 893/1/3
f 896/1/3 895/1/3 894/1/3
f 897/1/3 895/1/3 896/1/3
f 898/1/3 895/1/3 897/1/3
f 899/1/3 895/1/3 898/1/3
f 900/1/3 895/1/3 899/1/3
f 901/1/3 895/1/3 900/1/3
f 902/1/3 898/1/3 897/1/3
f 902/6/3 899/6/3 898/6/3
f 903/6/3 899/6/3 902/6/3
f 904/7/3 900/7/3 899/7/3
f 904/6/3 899/6/3 903/6/3
f 905/7/3 900/7/3 904/7/3
f 908/7/3 903/7/3 902/7/3
f 908/1/3 902/1/3 897/1/3
f 909/7/3 903/7/3 908/7/3
f 910/7/3 903/7/3 909/7/3
f 911/1/3 908/1/3 897/1/3
f 911/6/3 909/6/3 908/6/3
f 912/6/3 909/6/3 911/6/3
f 914/1/3 911/1/3 897/1/3
f 916/1/3 914/1/3 913/1/3
f 918/1/3 916/1/3 915/1/3
f 920/1/3 918/1/3 917/1/3
f 923/7/3 922/7/3 921/7/3
f 924/7/3 922/7/3 923/7/3
f 926/6/3 924/6/3 923/6/3
f 926/6/3 925/6/3 924/6/3
f 927/6/3 925/6/3 926/6/3
f 930/7/3 927/7/3 926/7/3
f 930/7/3 928/7/3 927/7/3
f 931/7/3 928/7/3 930/7/3
f 932/7/3 928/7/3 931/7/3
f 934/1/3 920/1/3 919/1/3
f 934/1/3 918/1/3 920/1/3
f 934/1/3 911/1/3 914/1/3
f 934/1/3 914/1/3 916/1/3
f 934/1/3 916/1/3 918/1/3
f 935/7/3 931/7/3 930/7/3
f 935/7/3 930/7/3 929/7/3
f 936/6/3 933/6/3 932/6/3
f 936/6/3 932/6/3 931/6/3
f 936/7/3 931/7/3 935/7/3
f 937/6/3 933/6/3 936/6/3
f 938/1/3 907/1/3 906/1/3
f 939/1/3 937/1/3 936/1/3
f 939/1/3 938/1/3 937/1/3
f 939/1/3 935/1/3 934/1/3
f 939/1/3 934/1/3 919/1/3
f 939/1/3 936/1/3 935/1/3
f 940/1/3 938/1/3 939/1/3
f 941/1/3 938/1/3 940/1/3
f 942/1/3 938/1/3 941/1/3
f 943/1/3 938/1/3 942/1/3
f 944/1/3 938/1/3 943/1/3
f 945/1/3 938/1/3 944/1/3
f 946/1/3 938/1/3 945/1/3
f 947/1/3 938/1/3 946/1/3
f 948/1/3 938/1/3 947/1/3
f 949/1/3 938/1/3 948/1/3
f 950/1/3 938/1/3 949/1/3
f 951/1/3 938/1/3 950/1/3
f 952/1/3 907/1/3 938/1/3
f 952/1/3 938/1/3 951/1/3
f 953/1/3 947/1/3 946/1/3
f 953/7/3 948/7/3 947/7/3
f 954/6/3 949/6/3 948/6/3
f 954/7/3 948/7/3 953/7/3
f 955/6/3 949/6/3 954/6/3
f 957/7/3 951/7/3 950/7/3
f 958/7/3 951/7/3 957/7/3
f 959/6/3 952/6/3 951/6/3
f 959/7/3 951/7/3 958/7/3
f 960/1/3 907/1/3 952/1/3
f 960/6/3 952/6/3 959/6/3
f 961/1/3 953/1/3 946/1/3
f 961/6/3 954/6/3 953/6/3
f 961/6/3 955/6/3 954/6/3
f 962/7/3 956/7/3 955/7/3
f 962/6/3 955/6/3 961/6/3
f 963/7/3 956/7/3 962/7/3
f 964/7/3 959/7/3 958/7/3
f 964/7/3 960/7/3 959/7/3
f 965/7/3 960/7/3 964/7/3
f 966/1/3 907/1/3 960/1/3
f 966/7/3 960/7/3 965/7/3
f 967/1/3 961/1/3 946/1/3
f 969/6/3 966/6/3 965/6/3
f 970/1/3 907/1/3 966/1/3
f 970/6/3 966/6/3 969/6/3
f 971/6/3 968/6/3 967/6/3
f 971/1/3 967/1/3 946/1/3
f 972/6/3 968/6/3 971/6/3
f 973/7/3 970/7/3 969/7/3
f 974/1/3 907/1/3 970/1/3
f 974/7/3 970/7/3 973/7/3
f 976/1/3 971/1/3 946/1/3
f 977/7/3 972/7/3 971/7/3
f 979/1/3 976/1/3 975/1/3
f 979/7/3 978/7/3 977/7/3
f 979/7/3 977/7/3 971/7/3
f 979/1/3 971/1/3 976/1/3
f 980/7/3 978/7/3 979/7/3
f 983/1/3 907/1/3 974/1/3
f 985/1/3 979/1/3 975/1/3
f 986/6/3 980/6/3 979/6/3
f 986/1/3 979/1/3 985/1/3
f 987/6/3 980/6/3 986/6/3
f 990/7/3 982/7/3 981/7/3
f 991/6/3 983/6/3 982/6/3
f 991/7/3 982/7/3 990/7/3
f 992/6/3 983/6/3 991/6/3
f 993/1/3 907/1/3 983/1/3
f 993/6/3 983/6/3 992/6/3
f 995/1/3 985/1/3 984/1/3
f 995/1/3 986/1/3 985/1/3
f 996/1/3 986/1/3 995/1/3
f 999/7/3 989/7/3 988/7/3
f 1000/7/3 989/7/3 999/7/3
f 1004/1/3 995/1/3 994/1/3
f 1004/1/3 996/1/3 995/1/3
f 1005/7/3 997/7/3 996/7/3
f 1005/1/3 996/1/3 1004/1/3
f 1006/7/3 997/7/3 1005/7/3
f 1007/7/3 999/7/3 998/7/3
f 1008/6/3 1000/6/3 999/6/3
f 1008/7/3 999/7/3 1007/7/3
f 1009/6/3 1000/6/3 1008/6/3
f 1010/7/3 1002/7/3 1001/7/3
f 1011/7/3 1002/7/3 1010/7/3
f 1012/7/3 993/7/3 992/7/3
f 1013/1/3 907/1/3 993/1/3
f 1013/7/3 993/7/3 1012/7/3
f 1014/1/3 1004/1/3 1003/1/3
f 1014/1/3 1011/1/3 1010/1/3
f 1014/1/3 1013/1/3 1012/1/3
f 1014/1/3 1012/1/3 1011/1/3
f 1014/1/3 1010/1/3 1009/1/3
f 1014/1/3 1009/1/3 1008/1/3
f 1014/1/3 1008/1/3 1007/1/3
f 1014/1/3 1007/1/3 1006/1/3
f 1014/1/3 1005/1/3 1004/1/3
f 1014/1/3 1006/1/3 1005/1/3
f 1015/1/3 907/1/3 1013/1/3
f 1015/1/3 1013/1/3 1014/1/3
f 1016/1/3 1014/1/3 1003/1/3
f 1017/1/3 1014/1/3 1016/1/3
f 1020/7/3 1019/7/3 1018/7/3
f 1021/7/3 1019/7/3 1020/7/3
f 1024/1/3 1023/1/3 1022/1/3
f 1025/1/3 1023/1/3 1024/1/3
f 1028/1/3 1027/1/3 1026/1/3
f 1029/1/3 1027/1/3 1028/1/3
f 1032/5/3 1031/5/3 1030/5/3
f 1034/5/3 1032/5/3 1030/5/3
f 1034/5/3 1033/5/3 1032/5/3
f 1035/5/3 1033/5/3 1034/5/3
f 1038/5/3 1037/5/3 1036/5/3
f 1039/5/3 1037/5/3 1038/5/3
f 1042/7/3 1041/7/3 1040/7/3
f 1043/7/3 1041/7/3 1042/7/3
f 1046/1/3 1045/1/3 1044/1/3
f 1047/1/3 1045/1/3 1046/1/3
f 1051/7/3 1049/7/3 1048/7/3
f 1052/1/3 1050/1/3 1049/1/3
f 1052/7/3 1049/7/3 1051/7/3
f 1053/1/3 1050/1/3 1052/1/3
f 1054/1/3 1050/1/3 1053/1/3
f 1055/1/3 1050/1/3 1054/1/3
f 1058/5/3 1057/5/3 1056/5/3
f 1059/5/3 1057/5/3 1058/5/3
f 1062/5/3 1061/5/3 1060/5/3
f 1063/5/3 1061/5/3 1062/5/3
f 1065/5/3 1064/5/3 1063/5/3
f 1066/5/3 1064/5/3 1065/5/3
f 1069/5/3 1068/5/3 1067/5/3
f 1070/5/3 1068/5/3 1069/5/3
f 1073/5/3 1072/5/3 1071/5/3
f 1074/5/3 1072/5/3 1073/5/3
f 1077/1/3 1076/1/3 1075/1/3
f 1078/1/3 1076/1/3 1077/1/3
f 1081/1/3 1080/1/3 1079/1/3
f 1082/1/3 1080/1/3 1081/1/3
f 1083/2/3 1082/2/3 1081/2/3
f 1084/2/3 1082/2/3 1083/2/3
f 1085/5/4 1086/5/4 1088/5/4
f 1087/5/4 1088/5/4 1090/5/4
f 1089/5/4 1090/5/4 1092/5/4
f 1091/5/4 1092/5/4 1093/5/4
f 1092/5/4 1090/5/4 1094/5/4
f 1093/5/4 1092/5/4 1094/5/4
f 1094/5/4 1090/5/4 1095/5/4
f 1090/5/4 1088/5/4 1096/5/4
f 1095/5/4 1090/5/4 1096/5/4
f 1096/5/4 1088/5/4 1097/5/4
f 1088/5/4 1086/5/4 1098/5/4
f 1097/5/4 1088/5/4 1098/5/4
f 1098/5/4 1086/5/4 1099/5/4
f 1099/5/4 1086/5/4 1100/5/4
f 1101/5/4 1102/5/4 1104/5/4
f 1103/5/4 1104/5/4 1106/5/4
f 1105/5/4 1106/5/4 1108/5/4
f 1107/5/4 1108/5/4 1109/5/4
f 1108/5/4 1106/5/4 1110/5/4
f 1109/5/4 1108/5/4 1110/5/4
f 1110/5/4 1106/5/4 1111/5/4
f 1106/5/4 1104/5/4 1112/5/4
f 1111/5/4 1106/5/4 1112/5/4
f 1112/5/4 1104/5/4 1113/5/4
f 1104/5/4 1102/5/4 1114/5/4
f 1113/5/4 1104/5/4 1114/5/4
f 1114/5/4 1102/5/4 1115/5/4
f 1115/5/4 1102/5/4 1116/5/4
f 1117/1/4 1118/1/4 1120/1/4
f 1118/1/4 1119/1/4 1120/1/4
f 1120/1/4 1121/1/4 1122/1/4
f 1120/1/4 1122/1/4 1124/1/4
f 1122/1/4 1123/1/4 1124/1/4
f 1124/1/4 1123/1/4 1125/1/4
f 1125/1/4 1123/1/4 1126/1/4
f 1126/1/4 1123/1/4 1127/1/4
f 1120/1/4 1124/1/4 1128/1/4
f 1124/6/4 1125/6/4 1128/6/4
f 1128/6/4 1125/6/4 1129/6/4
f 1125/7/4 1126/7/4 1130/7/4
f 1129/6/4 1125/6/4 1130/6/4
f 1130/7/4 1126/7/4 1131/7/4
f 1128/7/4 1129/7/4 1132/7/4
f 1120/1/4 1128/1/4 1132/1/4
f 1132/7/4 1129/7/4 1133/7/4
f 1133/7/4 1129/7/4 1134/7/4
f 1120/1/4 1132/1/4 1135/1/4
f 1132/6/4 1133/6/4 1135/6/4
f 1135/6/4 1133/6/4 1136/6/4
f 1137/7/4 1138/7/4 1139/7/4
f 1139/7/4 1138/7/4 1140/7/4
f 1139/6/4 1140/6/4 1142/6/4
f 1140/6/4 1141/6/4 1142/6/4
f 1142/6/4 1141/6/4 1143/6/4
f 1142/7/4 1143/7/4 1146/7/4
f 1143/7/4 1144/7/4 1146/7/4
f 1146/7/4 1144/7/4 1147/7/4
f 1147/7/4 1144/7/4 1148/7/4
f 1120/1/4 1135/1/4 1150/1/4
f 1145/7/4 1146/7/4 1151/7/4
f 1146/7/4 1147/7/4 1151/7/4
f 1147/6/4 1148/6/4 1152/6/4
f 1148/6/4 1149/6/4 1152/6/4
f 1151/7/4 1147/7/4 1152/7/4
f 1152/6/4 1149/6/4 1153/6/4
f 1150/1/4 1151/1/4 1155/1/4
f 1153/1/4 1154/1/4 1155/1/4
f 1152/1/4 1153/1/4 1155/1/4
f 1151/1/4 1152/1/4 1155/1/4
f 1120/1/4 1150/1/4 1155/1/4
f 1155/1/4 1154/1/4 1156/1/4
f 1156/1/4 1154/1/4 1157/1/4
f 1157/1/4 1154/1/4 1158/1/4
f 1158/1/4 1154/1/4 1159/1/4
f 1159/1/4 1154/1/4 1160/1/4
f 1120/1/4 1155/1/4 1161/1/4
f 1155/7/4 1156/7/4 1161/7/4
f 1156/6/4 1157/6/4 1162/6/4
f 1161/7/4 1156/7/4 1162/7/4
f 1162/6/4 1157/6/4 1163/6/4
f 1158/7/4 1159/7/4 1165/7/4
f 1165/7/4 1159/7/4 1166/7/4
f 1159/6/4 1160/6/4 1167/6/4
f 1166/7/4 1159/7/4 1167/7/4
f 1167/6/4 1160/6/4 1168/6/4
f 1120/1/4 1161/1/4 1169/1/4
f 1161/6/4 1162/6/4 1169/6/4
f 1162/6/4 1163/6/4 1169/6/4
f 1163/7/4 1164/7/4 1170/7/4
f 1169/6/4 1163/6/4 1170/6/4
f 1170/7/4 1164/7/4 1171/7/4
f 1167/7/4 1168/7/4 1172/7/4
f 1166/7/4 1167/7/4 1172/7/4
f 1172/7/4 1168/7/4 1173/7/4
f 1173/7/4 1168/7/4 1174/7/4
f 1120/1/4 1169/1/4 1175/1/4
f 1173/6/4 1174/6/4 1177/6/4
f 1177/6/4 1174/6/4 1178/6/4
f 1175/6/4 1176/6/4 1179/6/4
f 1120/1/4 1175/1/4 1179/1/4
f 1179/6/4 1176/6/4 1180/6/4
f 1177/7/4 1178/7/4 1181/7/4
f 1181/7/4 1178/7/4 1182/7/4
f 1179/7/4 1180/7/4 1183/7/4
f 1120/1/4 1179/1/4 1185/1/4
f 1183/7/4 1184/7/4 1185/7/4
f 1179/7/4 1183/7/4 1185/7/4
f 1185/7/4 1184/7/4 1186/7/4
f 1120/1/4 1185/1/4 1190/1/4
f 1185/6/4 1186/6/4 1190/6/4
f 1190/6/4 1186/6/4 1191/6/4
f 1187/7/4 1188/7/4 1194/7/4
f 1188/6/4 1189/6/4 1195/6/4
f 1194/7/4 1188/7/4 1195/7/4
f 1195/6/4 1189/6/4 1196/6/4
f 1196/6/4 1189/6/4 1197/6/4
f 1120/1/4 1190/1/4 1198/1/4
f 1192/7/4 1193/7/4 1201/7/4
f 1201/7/4 1193/7/4 1202/7/4
f 1198/7/4 1199/7/4 1205/7/4
f 1120/1/4 1198/1/4 1205/1/4
f 1205/7/4 1199/7/4 1206/7/4
f 1200/7/4 1201/7/4 1207/7/4
f 1201/6/4 1202/6/4 1208/6/4
f 1207/7/4 1201/7/4 1208/7/4
f 1208/6/4 1202/6/4 1209/6/4
f 1203/7/4 1204/7/4 1210/7/4
f 1210/7/4 1204/7/4 1211/7/4
f 1196/7/4 1197/7/4 1212/7/4
f 1212/7/4 1197/7/4 1213/7/4
f 1205/1/4 1206/1/4 1214/1/4
f 1117/1/4 1120/1/4 1215/1/4
f 1120/1/4 1205/1/4 1215/1/4
f 1205/1/4 1214/1/4 1215/1/4
f 1215/1/4 1214/1/4 1216/1/4
f 1217/5/4 1218/5/4 1219/5/4
f 1219/5/4 1218/5/4 1220/5/4
f 1221/5/4 1222/5/4 1223/5/4
f 1223/5/4 1222/5/4 1224/5/4
f 1224/5/4 1225/5/4 1226/5/4
f 1226/5/4 1225/5/4 1227/5/4
f 1228/5/4 1229/5/4 1230/5/4
f 1230/5/4 1229/5/4 1231/5/4
f 1232/5/4 1233/5/4 1234/5/4
f 1232/5/4 1234/5/4 1236/5/4
f 1234/5/4 1235/5/4 1236/5/4
f 1236/5/4 1235/5/4 1237/5/4
f 1238/5/4 1239/5/4 1240/5/4
f 1240/5/4 1239/5/4 1241/5/4
f 1242/1/4 1243/1/4 1244/1/4
f 1244/1/4 1243/1/4 1245/1/4
f 1246/1/4 1247/1/4 1248/1/4
f 1248/1/4 1247/1/4 1249/1/4
f 1250/1/4 1251/1/4 1252/1/4
f 1252/1/4 1251/1/4 1253/1/4
f 1254/1/4 1255/1/4 1256/1/4
f 1256/1/4 1255/1/4 1257/1/4
f 1258/1/4 1259/1/4 1262/1/4
f 1262/1/4 1259/1/4 1263/1/4
f 1260/1/4 1261/1/4 1264/1/4
f 1264/1/4 1261/1/4 1265/1/4
f 1266/5/4 1267/5/4 1269/5/4
f 1267/1/4 1268/1/4 1270/1/4
f 1269/5/4 1267/5/4 1270/5/4
f 1270/1/4 1268/1/4 1271/1/4
f 1271/1/4 1268/1/4 1272/1/4
f 1272/1/4 1268/1/4 1273/1/4
f 1274/1/4 1275/1/4 1276/1/4
f 1276/1/4 1275/1/4 1277/1/4
f 1278/1/4 1279/1/4 1280/1/4
f 1280/1/4 1279/1/4 1281/1/4
f 1282/1/4 1283/1/4 1284/1/4
f 1284/1/4 1283/1/4 1285/1/4
f 1286/1/4 1287/1/4 1288/1/4
f 1288/1/4 1289/1/4 1290/1/4
f 1286/1/4 1288/1/4 1291/1/4
f 1288/1/4 1290/1/4 1291/1/4
f 1291/1/4 1290/1/4 1292/1/4
f 1293/4/4 1294/4/4 1297/4/4
f 1297/4/4 1294/4/4 1298/4/4
f 1294/1/4 1295/1/4 1299/1/4
f 1298/4/4 1294/4/4 1299/4/4
f 1295/5/4 1296/5/4 1300/5/4
f 1299/1/4 1295/1/4 1300/1/4
f 1300/5/4 1296/5/4 1301/5/4
f 1297/1/4 1298/1/4 1302/1/4
f 1302/1/4 1298/1/4 1303/1/4
f 1304/1/4 1305/1/4 1306/1/4
f 1306/1/4 1305/1/4 1307/1/4
f 1308/1/4 1309/1/4 1310/1/4
f 1310/1/4 1309/1/4 1311/1/4
f 1312/1/4 1313/1/4 1314/1/4
f 1314/1/4 1313/1/4 1315/1/4
f 1316/1/4 1317/1/4 1318/1/4
f 1318/1/4 1317/1/4 1319/1/4
f 1320/1/4 1321/1/4 1322/1/4
f 1322/1/4 1321/1/4 1323/1/4
f 1323/1/4 1321/1/4 1324/1/4
f 1322/2/4 1323/2/4 1325/2/4
f 1325/2/4 1323/2/4 1326/2/4
f 1327/1/4 1328/1/4 1329/1/4
f 1329/1/4 1328/1/4 1330/1/4
f 1331/1/4 1332/1/4 1333/1/4
f 1333/1/4 1332/1/4 1334/1/4
f 1335/1/4 1336/1/4 1337/1/4
f 1337/1/4 1336/1/4 1338/1/4
f 1339/1/4 1340/1/4 1341/1/4
f 1341/1/4 1340/1/4 1342/1/4
f 1343/1/4 1344/1/4 1345/1/4
f 1345/1/4 1344/1/4 1346/1/4
f 1347/2/4 1348/2/4 1349/2/4
f 1349/2/4 1348/2/4 1350/2/4
f 1351/1/4 1352/1/4 1353/1/4
f 1353/1/4 1352/1/4 1354/1/4
f 1355/1/4 1356/1/4 1357/1/4
f 1357/1/4 1356/1/4 1358/1/4
f 1357/2/4 1358/2/4 1359/2/4
f 1359/2/4 1358/2/4 1360/2/4
f 1361/1/4 1362/1/4 1363/1/4
f 1363/1/4 1362/1/4 1364/1/4
f 1365/1/4 1366/1/4 1367/1/4
f 1367/1/4 1366/1/4 1368/1/4
f 1369/1/4 1370/1/4 1371/1/4
f 1371/1/4 1370/1/4 1372/1/4
f 1373/1/4 1374/1/4 1375/1/4
f 1375/1/4 1374/1/4 1376/1/4
f 1377/1/4 1378/1/4 1379/1/4
f 1379/1/4 1378/1/4 1380/1/4
f 1381/1/4 1382/1/4 1383/1/4
f 1383/1/4 1382/1/4 1384/1/4
f 1385/1/4 1386/1/4 1387/1/4
f 1387/1/4 1386/1/4 1388/1/4
f 1389/1/4 1390/1/4 1391/1/4
f 1391/1/4 1390/1/4 1392/1/4
f 1393/1/4 1394/1/4 1395/1/4
f 1395/1/4 1394/1/4 1396/1/4
f 1396/1/4 1394/1/4 1397/1/4
f 1395/2/4 1396/2/4 1398/2/4
f 1398/2/4 1396/2/4 1399/2/4
f 1400/1/4 1401/1/4 1404/1/4
f 1404/1/4 1401/1/4 1405/1/4
f 1402/1/4 1403/1/4 1406/1/4
f 1406/1/4 1403/1/4 1407/1/4
f 1408/1/4 1409/1/4 1413/1/4
f 1410/1/4 1411/1/4 1414/1/4
f 1414/1/4 1411/1/4 1415/1/4
f 1415/1/4 1411/1/4 1416/1/4
f 1412/1/4 1413/1/4 1417/1/4
f 1413/1/4 1409/1/4 1418/1/4
f 1417/1/4 1413/1/4 1418/1/4
f 1414/2/4 1415/2/4 1419/2/4
f 1419/2/4 1415/2/4 1420/2/4
f 1421/2/4 1422/2/4 1423/2/4
f 1423/2/4 1422/2/4 1424/2/4
f 1425/1/4 1426/1/4 1427/1/4
f 1427/1/4 1426/1/4 1428/1/4
f 1429/1/4 1430/1/4 1431/1/4
f 1431/1/4 1430/1/4 1432/1/4
f 1433/1/4 1434/1/4 1435/1/4
f 1435/1/4 1434/1/4 1436/1/4
f 1437/2/4 1438/2/4 1439/2/4
f 1439/2/4 1438/2/4 1440/2/4
f 1441/2/4 1442/2/4 1446/2/4
f 1443/1/4 1444/1/4 1447/1/4
f 1447/1/4 1444/1/4 1448/1/4
f 1445/1/4 1446/1/4 1449/1/4
f 1446/2/4 1442/2/4 1450/2/4
f 1449/1/4 1446/1/4 1450/1/4
f 1447/2/4 1448/2/4 1451/2/4
f 1451/2/4 1448/2/4 1452/2/4
f 1449/2/4 1450/2/4 1453/2/4
f 1450/2/4 1442/2/4 1454/2/4
f 1453/2/4 1450/2/4 1454/2/4
f 1455/1/4 1456/1/4 1457/1/4
f 1457/1/4 1456/1/4 1458/1/4
f 1459/2/4 1460/2/4 1461/2/4
f 1461/2/4 1460/2/4 1462/2/4
f 1463/1/4 1464/1/4 1465/1/4
f 1465/1/4 1464/1/4 1466/1/4
f 1465/2/4 1466/2/4 1467/2/4
f 1467/2/4 1466/2/4 1468/2/4
f 1469/1/4 1470/1/4 1471/1/4
f 1469/1/4 1471/1/4 1473/1/4
f 1471/7/4 1472/7/4 1474/7/4
f 1473/1/4 1471/1/4 1474/1/4
f 1474/7/4 1472/7/4 1475/7/4
f 1476/1/4 1477/1/4 1478/1/4
f 1478/1/4 1477/1/4 1479/1/4
f 1480/7/4 1481/7/4 1484/7/4
f 1484/7/4 1481/7/4 1485/7/4
f 1482/1/4 1483/1/4 1486/1/4
f 1486/1/4 1483/1/4 1487/1/4
f 1488/7/4 1489/7/4 1493/7/4
f 1493/7/4 1489/7/4 1494/7/4
f 1490/7/4 1491/7/4 1495/7/4
f 1491/1/4 1492/1/4 1496/1/4
f 1495/7/4 1491/7/4 1496/7/4
f 1496/1/4 1492/1/4 1497/1/4
f 1498/7/4 1499/7/4 1500/7/4
f 1500/7/4 1499/7/4 1501/7/4
f 1502/7/4 1503/7/4 1504/7/4
f 1504/7/4 1503/7/4 1505/7/4
f 1506/7/4 1507/7/4 1508/7/4
f 1508/7/4 1507/7/4 1509/7/4
f 1514/5/5 1511/5/5 1510/5/5
f 1515/5/5 1511/5/5 1514/5/5
f 1516/5/5 1513/5/5 1512/5/5
f 1517/5/5 1513/5/5 1516/5/5
f 1526/5/5 1519/5/5 1518/5/5
f 1527/5/5 1519/5/5 1526/5/5
f 1528/5/5 1521/5/5 1520/5/5
f 1529/5/5 1521/5/5 1528/5/5
f 1530/5/5 1523/5/5 1522/5/5
f 1531/5/5 1523/5/5 1530/5/5
f 1532/5/5 1525/5/5 1524/5/5
f 1533/5/5 1525/5/5 1532/5/5
f 1542/5/5 1535/5/5 1534/5/5
f 1543/5/5 1535/5/5 1542/5/5
f 1544/5/5 1537/5/5 1536/5/5
f 1545/5/5 1537/5/5 1544/5/5
f 1546/5/5 1539/5/5 1538/5/5
f 1547/5/5 1539/5/5 1546/5/5
f 1548/5/5 1541/5/5 1540/5/5
f 1549/5/5 1541/5/5 1548/5/5
f 1558/5/5 1551/5/5 1550/5/5
f 1559/5/5 1551/5/5 1558/5/5
f 1560/5/5 1553/5/5 1552/5/5
f 1561/5/5 1553/5/5 1560/5/5
f 1562/5/5 1555/5/5 1554/5/5
f 1563/5/5 1555/5/5 1562/5/5
f 1564/5/5 1557/5/5 1556/5/5
f 1565/5/5 1557/5/5 1564/5/5
f 1572/1/5 1567/1/5 1566/1/5
f 1572/1/5 1571/1/5 1570/1/5
f 1572/1/5 1570/1/5 1569/1/5
f 1572/1/5 1569/1/5 1568/1/5
f 1572/1/5 1568/1/5 1567/1/5
f 1573/1/5 1571/1/5 1572/1/5
f 1574/1/5 1572/1/5 1566/1/5
f 1574/5/5 1573/5/5 1572/5/5
f 1575/1/5 1571/1/5 1573/1/5
f 1575/5/5 1573/5/5 1574/5/5
f 1576/1/5 1574/1/5 1566/1/5
f 1576/1/5 1575/1/5 1574/1/5
f 1577/1/5 1575/1/5 1576/1/5
f 1578/1/5 1575/1/5 1577/1/5
f 1579/1/5 1571/1/5 1575/1/5
f 1579/1/5 1575/1/5 1578/1/5
f 1580/1/5 1578/1/5 1577/1/5
f 1581/1/5 1578/1/5 1580/1/5
f 1582/1/5 1571/1/5 1579/1/5
f 1583/1/5 1571/1/5 1582/1/5
f 1584/1/5 1580/1/5 1577/1/5
f 1585/1/5 1580/1/5 1584/1/5
f 1586/1/5 1571/1/5 1583/1/5
f 1587/1/5 1571/1/5 1586/1/5
f 1588/1/5 1586/1/5 1583/1/5
f 1589/1/5 1586/1/5 1588/1/5
f 1590/1/5 1571/1/5 1587/1/5
f 1591/1/5 1571/1/5 1590/1/5
f 1592/4/5 1577/4/5 1576/4/5
f 1593/1/5 1584/1/5 1577/1/5
f 1593/4/5 1577/4/5 1592/4/5
f 1594/1/5 1584/1/5 1593/1/5
f 1595/1/5 1584/1/5 1594/1/5
f 1596/1/5 1584/1/5 1595/1/5
f 1597/1/5 1595/1/5 1594/1/5
f 1598/1/5 1595/1/5 1597/1/5
f 1599/1/5 1595/1/5 1598/1/5
f 1600/1/5 1595/1/5 1599/1/5
f 1601/1/5 1595/1/5 1600/1/5
f 1603/1/5 1601/1/5 1600/1/5
f 1603/1/5 1602/1/5 1601/1/5
f 1604/1/5 1602/1/5 1603/1/5
f 1605/1/5 1602/1/5 1604/1/5
f 1606/1/5 1602/1/5 1605/1/5
f 1607/1/5 1605/1/5 1604/1/5
f 1608/1/5 1605/1/5 1607/1/5
f 1612/1/5 1610/1/5 1609/1/5
f 1613/2/5 1611/2/5 1610/2/5
f 1613/1/5 1610/1/5 1612/1/5
f 1614/2/5 1611/2/5 1613/2/5
f 1617/2/5 1616/2/5 1615/2/5
f 1618/2/5 1616/2/5 1617/2/5
f 1621/1/5 1620/1/5 1619/1/5
f 1623/1/5 1621/1/5 1619/1/5
f 1624/2/5 1622/2/5 1621/2/5
f 1624/1/5 1621/1/5 1623/1/5
f 1625/2/5 1622/2/5 1624/2/5
f 1629/1/5 1627/1/5 1626/1/5
f 1630/2/5 1628/2/5 1627/2/5
f 1630/1/5 1627/1/5 1629/1/5
f 1631/2/5 1628/2/5 1630/2/5
f 1635/1/5 1633/1/5 1632/1/5
f 1636/2/5 1634/2/5 1633/2/5
f 1636/1/5 1633/1/5 1635/1/5
f 1637/2/5 1634/2/5 1636/2/5
f 1640/2/5 1639/2/5 1638/2/5
f 1641/2/5 1639/2/5 1640/2/5
f 1644/1/5 1643/1/5 1642/1/5
f 1646/1/5 1644/1/5 1642/1/5
f 1647/2/5 1645/2/5 1644/2/5
f 1647/1/5 1644/1/5 1646/1/5
f 1648/2/5 1645/2/5 1647/2/5
f 1651/1/5 1650/1/5 1649/1/5
f 1652/1/5 1650/1/5 1651/1/5
f 1654/1/5 1652/1/5 1651/1/5
f 1654/5/5 1653/5/5 1652/5/5
f 1655/5/5 1653/5/5 1654/5/5
f 1656/1/5 1654/1/5 1651/1/5
f 1657/1/5 1654/1/5 1656/1/5
f 1658/1/5 1654/1/5 1657/1/5
f 1659/1/5 1654/1/5 1658/1/5
f 1660/1/5 1654/1/5 1659/1/5
f 1661/1/5 1654/1/5 1660/1/5
f 1662/1/5 1654/1/5 1661/1/5
f 1663/1/5 1654/1/5 1662/1/5
f 1664/1/5 1654/1/5 1663/1/5
f 1665/1/5 1654/1/5 1664/1/5
f 1666/1/5 1654/1/5 1665/1/5
f 1667/1/5 1654/1/5 1666/1/5
f 1671/1/5 1669/1/5 1668/1/5
f 1672/2/5 1670/2/5 1669/2/5
f 1672/1/5 1669/1/5 1671/1/5
f 1673/2/5 1670/2/5 1672/2/5
f 1674/1/5 1654/1/5 1667/1/5
f 1675/1/5 1654/1/5 1674/1/5
f 1679/5/5 1677/5/5 1676/5/5
f 1680/5/5 1679/5/5 1678/5/5
f 1681/5/5 1677/5/5 1679/5/5
f 1681/5/5 1679/5/5 1680/5/5
f 1682/5/5 1677/5/5 1681/5/5
f 1683/5/5 1677/5/5 1682/5/5
f 1686/7/5 1685/7/5 1684/7/5
f 1687/7/5 1685/7/5 1686/7/5
f 1691/1/5 1689/1/5 1688/1/5
f 1692/2/5 1690/2/5 1689/2/5
f 1692/1/5 1689/1/5 1691/1/5
f 1693/2/5 1690/2/5 1692/2/5
f 1694/2/5 1690/2/5 1693/2/5
f 1695/2/5 1690/2/5 1694/2/5
f 1696/2/5 1690/2/5 1695/2/5
f 1697/2/5 1690/2/5 1696/2/5
f 1698/2/5 1696/2/5 1695/2/5
f 1699/2/5 1696/2/5 1698/2/5
f 1702/7/5 1701/7/5 1700/7/5
f 1703/7/5 1701/7/5 1702/7/5
f 1706/7/5 1705/7/5 1704/7/5
f 1707/7/5 1705/7/5 1706/7/5
f 1710/7/5 1709/7/5 1708/7/5
f 1711/7/5 1709/7/5 1710/7/5
f 1716/7/5 1713/7/5 1712/7/5
f 1717/6/5 1714/6/5 1713/6/5
f 1717/7/5 1713/7/5 1716/7/5
f 1718/7/5 1715/7/5 1714/7/5
f 1718/6/5 1714/6/5 1717/6/5
f 1719/7/5 1715/7/5 1718/7/5
f 1722/7/5 1721/7/5 1720/7/5
f 1723/7/5 1721/7/5 1722/7/5
f 1726/7/5 1725/7/5 1724/7/5
f 1727/7/5 1725/7/5 1726/7/5
f 1730/7/5 1729/7/5 1728/7/5
f 1731/7/5 1729/7/5 1730/7/5
f 1734/1/5 1733/1/5 1732/1/5
f 1735/1/5 1733/1/5 1734/1/5
f 1740/7/5 1737/7/5 1736/7/5
f 1741/7/5 1737/7/5 1740/7/5
f 1742/7/5 1739/7/5 1738/7/5
f 1743/7/5 1739/7/5 1742/7/5
f 1748/7/5 1745/7/5 1744/7/5
f 1749/7/5 1745/7/5 1748/7/5
f 1750/7/5 1747/7/5 1746/7/5
f 1751/7/5 1747/7/5 1750/7/5
f 1757/6/5 1753/6/5 1752/6/5
f 1758/7/5 1754/7/5 1753/7/5
f 1758/6/5 1753/6/5 1757/6/5
f 1759/7/5 1754/7/5 1758/7/5
f 1760/7/5 1756/7/5 1755/7/5
f 1761/7/5 1756/7/5 1760/7/5
f 1766/1/5 1763/1/5 1762/1/5
f 1771/1/5 1765/1/5 1764/1/5
f 1772/1/5 1765/1/5 1771/1/5
f 1776/1/5 1770/1/5 1769/1/5
f 1776/1/5 1774/1/5 1773/1/5
f 1776/1/5 1773/1/5 1772/1/5
f 1776/1/5 1772/1/5 1771/1/5
f 1776/1/5 1771/1/5 1770/1/5
f 1776/1/5 1766/1/5 1762/1/5
f 1776/1/5 1769/1/5 1768/1/5
f 1776/1/5 1768/1/5 1767/1/5
f 1776/1/5 1767/1/5 1766/1/5
f 1778/1/5 1776/1/5 1775/1/5
f 1780/1/5 1778/1/5 1777/1/5
f 1782/1/5 1780/1/5 1779/1/5
f 1783/1/5 1774/1/5 1776/1/5
f 1783/1/5 1782/1/5 1781/1/5
f 1783/1/5 1780/1/5 1782/1/5
f 1783/1/5 1776/1/5 1778/1/5
f 1783/1/5 1778/1/5 1780/1/5
f 1784/1/5 1774/1/5 1783/1/5
f 1785/1/5 1783/1/5 1781/1/5
f 1786/1/5 1783/1/5 1785/1/5
f 1787/1/5 1774/1/5 1784/1/5
f 1788/1/5 1774/1/5 1787/1/5
f 1789/1/5 1785/1/5 1781/1/5
f 1790/1/5 1785/1/5 1789/1/5
f 1791/1/5 1774/1/5 1788/1/5
f 1792/1/5 1774/1/5 1791/1/5
f 1793/1/5 1789/1/5 1781/1/5
f 1794/1/5 1789/1/5 1793/1/5
f 1795/1/5 1785/1/5 1790/1/5
f 1796/1/5 1785/1/5 1795/1/5
f 1797/1/5 1774/1/5 1792/1/5
f 1798/1/5 1774/1/5 1797/1/5
f 1799/1/5 1793/1/5 1781/1/5
f 1800/1/5 1793/1/5 1799/1/5
f 1801/1/5 1799/1/5 1781/1/5
f 1802/1/5 1799/1/5 1801/1/5
f 1803/1/5 1774/1/5 1798/1/5
f 1804/1/5 1774/1/5 1803/1/5
f 1805/1/5 1801/1/5 1781/1/5
f 1806/1/5 1801/1/5 1805/1/5
f 1807/1/5 1805/1/5 1781/1/5
f 1808/1/5 1805/1/5 1807/1/5
f 1809/1/5 1774/1/5 1804/1/5
f 1810/1/5 1774/1/5 1809/1/5
f 1811/1/5 1807/1/5 1781/1/5
f 1812/1/5 1807/1/5 1811/1/5
f 1813/1/5 1811/1/5 1781/1/5
f 1814/1/5 1811/1/5 1813/1/5
f 1815/1/5 1813/1/5 1781/1/5
f 1816/1/5 1813/1/5 1815/1/5
f 1817/1/6 1818/1/6 1819/1/6
f 1819/1/6 1818/1/6 1820/1/6
f 1820/1/6 1818/1/6 1821/1/6
f 1821/1/6 1818/1/6 1822/1/6
f 1817/1/6 1819/1/6 1823/1/6
f 1820/1/6 1821/1/6 1824/1/6
f 1817/1/6 1823/1/6 1825/1/6
f 1823/1/6 1824/1/6 1825/1/6
f 1824/1/6 1821/1/6 1826/1/6
f 1825/1/6 1824/1/6 1826/1/6
f 1822/1/6 1818/1/6 1827/1/6
f 1825/1/6 1826/1/6 1828/1/6
f 1826/1/6 1827/1/6 1828/1/6
f 1828/1/6 1827/1/6 1829/1/6
f 1825/1/6 1828/1/6 1830/1/6
f 1830/1/6 1828/1/6 1831/1/6
f 1829/1/6 1827/1/6 1832/1/6
f 1832/1/6 1827/1/6 1833/1/6
f 1825/1/6 1830/1/6 1834/1/6
f 1834/1/6 1830/1/6 1835/1/6
f 1833/1/6 1827/1/6 1836/1/6
f 1836/1/6 1827/1/6 1837/1/6
f 1833/1/6 1836/1/6 1838/1/6
f 1838/1/6 1836/1/6 1839/1/6
f 1837/1/6 1827/1/6 1840/1/6
f 1827/1/6 1818/1/6 1841/1/6
f 1840/1/6 1827/1/6 1841/1/6
f 1825/1/6 1834/1/6 1842/1/6
f 1842/1/6 1834/1/6 1843/1/6
f 1843/1/6 1834/1/6 1844/1/6
f 1844/1/6 1834/1/6 1845/1/6
f 1843/1/6 1844/1/6 1846/1/6
f 1846/1/6 1844/1/6 1847/1/6
f 1847/1/6 1844/1/6 1848/1/6
f 1848/1/6 1844/1/6 1849/1/6
f 1849/1/6 1844/1/6 1850/1/6
f 1849/1/6 1850/1/6 1852/1/6
f 1850/1/6 1851/1/6 1852/1/6
f 1852/1/6 1851/1/6 1853/1/6
f 1853/1/6 1851/1/6 1854/1/6
f 1854/1/6 1851/1/6 1855/1/6
f 1853/1/6 1854/1/6 1856/1/6
f 1856/1/6 1854/1/6 1857/1/6
f 1858/5/6 1859/5/6 1866/5/6
f 1866/5/6 1859/5/6 1867/5/6
f 1860/5/6 1861/5/6 1868/5/6
f 1868/5/6 1861/5/6 1869/5/6
f 1862/5/6 1863/5/6 1870/5/6
f 1870/5/6 1863/5/6 1871/5/6
f 1864/5/6 1865/5/6 1872/5/6
f 1872/5/6 1865/5/6 1873/5/6
f 1874/5/6 1875/5/6 1878/5/6
f 1878/5/6 1875/5/6 1879/5/6
f 1876/5/6 1877/5/6 1880/5/6
f 1880/5/6 1877/5/6 1881/5/6
f 1882/5/6 1883/5/6 1890/5/6
f 1890/5/6 1883/5/6 1891/5/6
f 1884/5/6 1885/5/6 1892/5/6
f 1892/5/6 1885/5/6 1893/5/6
f 1886/5/6 1887/5/6 1894/5/6
f 1894/5/6 1887/5/6 1895/5/6
f 1888/5/6 1889/5/6 1896/5/6
f 1896/5/6 1889/5/6 1897/5/6
f 1898/5/6 1899/5/6 1906/5/6
f 1906/5/6 1899/5/6 1907/5/6
f 1900/5/6 1901/5/6 1908/5/6
f 1908/5/6 1901/5/6 1909/5/6
f 1902/5/6 1903/5/6 1910/5/6
f 1910/5/6 1903/5/6 1911/5/6
f 1904/5/6 1905/5/6 1912/5/6
f 1912/5/6 1905/5/6 1913/5/6
f 1914/5/6 1915/5/6 1918/5/6
f 1918/5/6 1915/5/6 1919/5/6
f 1916/5/6 1917/5/6 1920/5/6
f 1920/5/6 1917/5/6 1921/5/6
f 1922/5/6 1923/5/6 1924/5/6
f 1924/5/6 1923/5/6 1925/5/6
f 1926/5/6 1927/5/6 1928/5/6
f 1928/5/6 1927/5/6 1929/5/6
f 1931/1/6 1932/1/6 1933/1/6
f 1930/3/6 1931/3/6 1936/3/6
f 1931/1/6 1933/1/6 1937/1/6
f 1936/3/6 1931/3/6 1937/3/6
f 1938/5/6 1939/5/6 1940/5/6
f 1940/5/6 1939/5/6 1941/5/6
f 1934/5/6 1935/5/6 1942/5/6
f 1942/5/6 1935/5/6 1943/5/6
f 1936/1/6 1937/1/6 1944/1/6
f 1937/1/6 1933/1/6 1945/1/6
f 1944/1/6 1937/1/6 1945/1/6
f 1945/1/6 1933/1/6 1946/1/6
f 1946/1/6 1933/1/6 1947/1/6
f 1947/1/6 1933/1/6 1948/1/6
f 1948/1/6 1933/1/6 1949/1/6
f 1949/1/6 1933/1/6 1950/1/6
f 1949/1/6 1950/1/6 1951/1/6
f 1951/1/6 1950/1/6 1952/1/6
f 1952/1/6 1950/1/6 1953/1/6
f 1952/1/6 1953/1/6 1954/1/6
f 1954/1/6 1953/1/6 1955/1/6
f 1955/1/6 1953/1/6 1956/1/6
f 1956/1/6 1953/1/6 1957/1/6
f 1957/1/6 1953/1/6 1958/1/6
f 1958/1/6 1953/1/6 1959/1/6
f 1960/1/6 1961/1/6 1966/1/6
f 1966/1/6 1961/1/6 1967/1/6
f 1962/1/6 1963/1/6 1968/1/6
f 1968/1/6 1963/1/6 1969/1/6
f 1964/1/6 1965/1/6 1970/1/6
f 1970/1/6 1965/1/6 1971/1/6
f 1972/5/6 1973/5/6 1975/5/6
f 1973/5/6 1974/5/6 1975/5/6
f 1975/5/6 1974/5/6 1976/5/6
f 1976/5/6 1974/5/6 1977/5/6
f 1978/6/6 1979/6/6 1983/6/6
f 1983/6/6 1979/6/6 1984/6/6
f 1980/6/6 1981/6/6 1985/6/6
f 1981/7/6 1982/7/6 1986/7/6
f 1985/6/6 1981/6/6 1986/6/6
f 1986/7/6 1982/7/6 1987/7/6
f 1988/5/6 1989/5/6 1990/5/6
f 1990/5/6 1989/5/6 1991/5/6
f 1992/5/6 1993/5/6 1994/5/6
f 1994/5/6 1993/5/6 1995/5/6
f 1996/1/6 1997/1/6 1999/1/6
f 1997/2/6 1998/2/6 2000/2/6
f 1999/1/6 1997/1/6 2000/1/6
f 2000/2/6 1998/2/6 2001/2/6
f 2002/7/6 2003/7/6 2011/7/6
f 2011/7/6 2003/7/6 2012/7/6
f 2004/6/6 2005/6/6 2013/6/6
f 2013/6/6 2005/6/6 2014/6/6
f 2006/7/6 2007/7/6 2015/7/6
f 2007/6/6 2008/6/6 2016/6/6
f 2015/7/6 2007/7/6 2016/7/6
f 2016/6/6 2008/6/6 2017/6/6
f 2009/7/6 2010/7/6 2018/7/6
f 2018/7/6 2010/7/6 2019/7/6
f 2020/1/6 2021/1/6 2022/1/6
f 2022/1/6 2021/1/6 2023/1/6
f 2022/2/6 2023/2/6 2024/2/6
f 2024/2/6 2023/2/6 2025/2/6
f 2025/2/6 2023/2/6 2026/2/6
f 2026/2/6 2023/2/6 2027/2/6
f 2027/2/6 2023/2/6 2028/2/6
f 2028/2/6 2023/2/6 2029/2/6
f 2027/2/6 2028/2/6 2030/2/6
f 2030/2/6 2028/2/6 2031/2/6
f 2032/7/6 2033/7/6 2036/7/6
f 2036/7/6 2033/7/6 2037/7/6
f 2034/7/6 2035/7/6 2038/7/6
f 2038/7/6 2035/7/6 2039/7/6
f 2040/7/6 2041/7/6 2042/7/6
f 2042/7/6 2041/7/6 2043/7/6
f 2044/1/6 2045/1/6 2048/1/6
f 2048/1/6 2045/1/6 2049/1/6
f 2046/6/6 2047/6/6 2050/6/6
f 2050/6/6 2047/6/6 2051/6/6
f 2044/1/6 2048/1/6 2052/1/6
f 2052/1/6 2048/1/6 2053/1/6
f 2054/1/6 2055/1/6 2061/1/6
f 2061/1/6 2055/1/6 2062/1/6
f 2056/7/6 2057/7/6 2063/7/6
f 2063/7/6 2057/7/6 2064/7/6
f 2058/7/6 2059/7/6 2065/7/6
f 2059/6/6 2060/6/6 2066/6/6
f 2065/7/6 2059/7/6 2066/7/6
f 2066/6/6 2060/6/6 2067/6/6
f 2068/7/6 2069/7/6 2070/7/6
f 2070/7/6 2069/7/6 2071/7/6
f 2072/6/6 2073/6/6 2074/6/6
f 2074/6/6 2073/6/6 2075/6/6
f 2076/7/6 2077/7/6 2078/7/6
f 2078/7/6 2077/7/6 2079/7/6
f 2080/7/6 2081/7/6 2082/7/6
f 2082/7/6 2081/7/6 2083/7/6
f 2084/7/6 2085/7/6 2086/7/6
f 2086/7/6 2085/7/6 2087/7/6
f 2088/7/6 2089/7/6 2090/7/6
f 2090/7/6 2089/7/6 2091/7/6
f 2092/1/6 2093/1/6 2094/1/6
f 2094/1/6 2093/1/6 2095/1/6
f 2096/1/6 2097/1/6 2098/1/6
f 2098/1/6 2097/1/6 2099/1/6
f 2100/1/6 2101/1/6 2103/1/6
f 2102/1/6 2103/1/6 2105/1/6
f 2104/1/6 2105/1/6 2107/1/6
f 2106/1/6 2107/1/6 2109/1/6
f 2103/1/6 2101/1/6 2110/1/6
f 2108/1/6 2109/1/6 2110/1/6
f 2109/1/6 2107/1/6 2110/1/6
f 2105/1/6 2103/1/6 2110/1/6
f 2107/1/6 2105/1/6 2110/1/6
f 2110/1/6 2101/1/6 2111/1/6
f 2108/1/6 2110/1/6 2112/1/6
f 2112/1/6 2110/1/6 2113/1/6
f 2111/1/6 2101/1/6 2114/1/6
f 2114/1/6 2101/1/6 2115/1/6
f 2108/1/6 2112/1/6 2116/1/6
f 2116/1/6 2112/1/6 2117/1/6
f 2115/1/6 2101/1/6 2118/1/6
f 2118/1/6 2101/1/6 2119/1/6
f 2108/1/6 2116/1/6 2120/1/6
f 2120/1/6 2116/1/6 2121/1/6
f 2117/1/6 2112/1/6 2122/1/6
f 2122/1/6 2112/1/6 2123/1/6
f 2119/1/6 2101/1/6 2124/1/6
f 2124/1/6 2101/1/6 2125/1/6
f 2108/1/6 2120/1/6 2126/1/6
f 2126/1/6 2120/1/6 2127/1/6
f 2108/1/6 2126/1/6 2128/1/6
f 2128/1/6 2126/1/6 2129/1/6
f 2125/1/6 2101/1/6 2130/1/6
f 2130/1/6 2101/1/6 2131/1/6
f 2108/1/6 2128/1/6 2132/1/6
f 2132/1/6 2128/1/6 2133/1/6
f 2108/1/6 2132/1/6 2134/1/6
f 2134/1/6 2132/1/6 2135/1/6
f 2131/1/6 2101/1/6 2136/1/6
f 2136/1/6 2101/1/6 2137/1/6
f 2108/1/6 2134/1/6 2138/1/6
f 2138/1/6 2134/1/6 2139/1/6
f 2108/1/6 2138/1/6 2140/1/6
f 2140/1/6 2138/1/6 2141/1/6
f 2108/1/6 2140/1/6 2142/1/6
f 2142/1/6 2140/1/6 2143/1/6
f 2108/1/6 2142/1/6 2144/1/6
f 2144/1/6 2142/1/6 2145/1/6
